<?xml version="1.0" encoding="UTF-8"?>
<svg width="1074px" height="95px" viewBox="0 0 1074 95" version="1.1" xmlns="http://www.w3.org/2000/svg" xmlns:xlink="http://www.w3.org/1999/xlink">
    <!-- Generator: Sketch 43 (38999) - http://www.bohemiancoding.com/sketch -->
    <title>Find yourself in Hac</title>
    <desc>Created with Sketch.</desc>
    <defs></defs>
    <g id="Page-1" stroke="none" stroke-width="1" fill="none" fill-rule="evenodd">
        <path d="M40.8900203,3.8 L3.19002028,3.8 C1.59002028,3.8 0.890020275,4.7 0.890020275,6.3 L0.890020275,70.3 C0.890020275,72.5 1.59002028,73 3.59002028,73 L11.3900203,73 C13.0900203,73 13.7900203,72.3 13.7900203,70.5 L13.7900203,42.6 L36.9900203,42.6 C38.6900203,42.6 39.3900203,41.9 39.3900203,40.2 L39.3900203,34.5 C39.3900203,33.1 38.7900203,32.3 36.8900203,32.3 L13.7900203,32.3 L13.7900203,14.2 L38.8900203,14.2 C40.9900203,14.2 42.0900203,13.9 42.2900203,12.1 L42.9900203,6.1 C43.1900203,4.6 42.7900203,3.8 40.8900203,3.8 Z M67.2116853,11.8 C67.2116853,7.8 63.9116853,5.5 60.5116853,5.5 C57.0116853,5.5 53.7116853,7.9 53.7116853,11.9 C53.7116853,15.9 57.2116853,18.1 60.5116853,18.1 C63.8116853,18.1 67.2116853,15.7 67.2116853,11.8 Z M66.6116853,26.8 C66.6116853,25 65.7116853,24.5 64.1116853,24.5 L57.1116853,24.5 C55.5116853,24.5 54.5116853,25.1 54.5116853,26.8 L54.5116853,70.5 C54.5116853,72.3 55.3116853,73 57.1116853,73 L64.1116853,73 C65.8116853,73 66.6116853,72.3 66.6116853,70.5 L66.6116853,26.8 Z M124.83335,41.1 C124.83335,30.2 120.23335,23.2 109.03335,23.2 C103.23335,23.2 97.4333502,25.3 92.8333502,29 L92.7333502,26.4 C92.6333502,24.9 91.7333502,24.5 90.3333502,24.5 L83.8333502,24.5 C82.0333502,24.5 81.3333502,25.4 81.3333502,27 L81.3333502,70.6 C81.3333502,72.2 82.2333502,73 83.7333502,73 L91.0333502,73 C92.7333502,73 93.4333502,72.2 93.4333502,70.5 L93.4333502,38.6 C96.5333502,35.9 101.33335,33.8 105.23335,33.8 C111.33335,33.8 112.83335,37.7 112.83335,43.2 L112.83335,70.4 C112.83335,72.1 113.43335,73 115.23335,73 L122.43335,73 C124.23335,73 124.83335,72.1 124.83335,70.4 L124.83335,41.1 Z M182.055015,3.5 L182.055015,70.5 C182.055015,72.2 181.055015,73 179.855015,73 L173.355015,73 C171.755015,73 171.055015,72.2 170.955015,71 L170.755015,68.3 C167.955015,71.5 162.355015,74.2 157.155015,74.2 C142.655015,74.2 136.055015,62.7 136.055015,49.3 C136.055015,35.3 143.855015,23.1 157.955015,23.1 C162.455015,23.1 167.155015,24.9 169.955015,27.8 L169.955015,5.3 C169.955015,3.5 170.455015,2.8 172.055015,2.6 L180.455015,1.5 C181.655015,1.5 182.055015,2 182.055015,3.5 Z M169.955015,59.4 L169.955015,37.7 C167.955015,35 164.155015,32.8 160.355015,32.8 C152.255015,32.8 148.655015,40.4 148.655015,48.6 C148.655015,56.8 151.655015,64.4 159.755015,64.4 C163.455015,64.4 167.955015,61.9 169.955015,59.4 Z M226.498345,24.7 L219.898345,24.7 C218.898345,24.7 218.598345,25.6 218.898345,26.4 L236.798345,73.8 L234.198345,80.2 C232.098345,85.4 228.798345,87.6 223.298345,87.6 C222.298345,87.6 220.898345,87.4 219.798345,87.3 L219.398345,87.3 C218.498345,87.3 217.998345,87.7 217.898345,88.7 L217.398345,92.5 L217.398345,93 C217.398345,93.7 217.598345,94.3 218.498345,94.5 C219.998345,94.8 221.498345,94.9 222.998345,94.9 C233.798345,94.9 238.798345,90.7 243.198345,78.9 L262.698345,26.6 C262.798345,26.3 262.898345,26 262.898345,25.7 C262.898345,25.1 262.498345,24.7 261.598345,24.7 L256.098345,24.7 C254.898345,24.7 254.398345,25.1 253.998345,26.2 L241.398345,63.4 L228.398345,26 C228.098345,25.1 227.498345,24.7 226.498345,24.7 Z M314.12001,48.8 C314.12001,62.9 305.92001,74 291.02001,74 C275.52001,74 268.62001,63 268.62001,48.7 C268.62001,34.6 276.72001,23.6 291.62001,23.6 C307.12001,23.6 314.12001,34.3 314.12001,48.8 Z M305.32001,48.9 C305.32001,39.6 301.92001,30.2 291.52001,30.2 C280.72001,30.2 277.42001,39.7 277.42001,48.5 C277.42001,57.7 280.52001,67.4 291.12001,67.4 C301.62001,67.4 305.32001,58.2 305.32001,48.9 Z M366.041675,26.7 C366.041675,25.3 365.441675,24.7 364.141675,24.7 L359.441675,24.7 C358.141675,24.7 357.541675,25.3 357.541675,26.7 L357.541675,60.8 C354.341675,63.8 348.741675,66.7 344.341675,66.7 C336.341675,66.7 334.741675,61.7 334.741675,54.6 L334.741675,26.7 C334.741675,25.3 334.041675,24.7 332.741675,24.7 L328.241675,24.7 C326.941675,24.7 326.241675,25.3 326.241675,26.7 L326.241675,55.9 C326.241675,66.6 330.441675,74 341.941675,74 C347.741675,74 353.141675,71.9 357.741675,68 L357.841675,71.1 C357.841675,72.3 358.541675,73 359.741675,73 L364.041675,73 C365.441675,73 366.041675,72.3 366.041675,70.8 L366.041675,26.7 Z M387.06334,24.7 L382.76334,24.7 C381.56334,24.7 380.86334,25.2 380.86334,26.7 L380.86334,70.9 C380.86334,72.3 381.46334,73 382.76334,73 L387.46334,73 C388.76334,73 389.36334,72.2 389.36334,70.9 L389.36334,36.8 C391.96334,33.1 395.86334,30.8 399.36334,30.8 C401.16334,30.8 401.76334,31.1 402.56334,31.1 C403.16334,31.1 403.56334,30.8 403.66334,30.1 L404.36334,25.6 C404.46334,24.9 404.46334,24.1 403.56334,23.9 C402.56334,23.7 401.36334,23.6 400.66334,23.6 C395.36334,23.6 391.56334,26.6 389.16334,29.9 L389.06334,26.5 C389.06334,25.2 388.36334,24.7 387.06334,24.7 Z M443.285005,59.1 C443.285005,52.7 438.785005,48.7 433.285005,46.4 L425.485005,43.1 C421.285005,41.3 419.285005,39.7 419.285005,36.3 C419.285005,32.9 422.185005,30.1 427.485005,30.1 C430.685005,30.1 435.385005,31.3 437.985005,32.5 C438.285005,32.6 438.585005,32.7 438.785005,32.7 C439.285005,32.7 439.685005,32.4 439.885005,31.7 L440.985005,28.2 C441.085005,27.9 441.185005,27.6 441.185005,27.4 C441.185005,27 440.885005,26.7 440.285005,26.4 C435.785005,24.3 431.585005,23.6 427.285005,23.6 C418.485005,23.6 410.485005,28.1 410.485005,36.9 C410.485005,43.2 414.885005,47.2 420.785005,49.5 L427.485005,52.1 C432.085005,53.9 434.985005,56 434.985005,59.9 C434.985005,64.6 431.085005,67.4 425.285005,67.4 C421.885005,67.4 417.185005,66 413.385005,64.4 C412.685005,64.1 411.985005,64.5 411.685005,65.3 L410.385005,68.9 C410.085005,69.7 410.385005,70.4 411.285005,70.8 C414.585005,72.3 419.885005,74 424.985005,74 C435.585005,74 443.285005,68.3 443.285005,59.1 Z M494.30667,45.6 L494.30667,47.3 C494.30667,49.6 493.90667,50.1 491.30667,50.1 L460.60667,50.1 C460.90667,59.6 466.30667,67 476.40667,67 C480.50667,67 485.00667,66.2 488.40667,64.9 C489.30667,64.6 490.30667,64.4 490.60667,65.6 L491.70667,69.3 C492.00667,70.2 491.50667,70.6 490.60667,71.1 C486.30667,73.1 479.90667,74 475.30667,74 C459.90667,74 451.70667,63.9 451.70667,48.8 C451.70667,34.5 460.60667,23.6 475.00667,23.6 C480.70667,23.6 485.30667,25.7 488.60667,29.1 C492.60667,33.2 494.30667,39.1 494.30667,45.6 Z M460.80667,44.3 L485.90667,44.3 L485.90667,42.9 C485.90667,36.1 482.20667,30.2 474.60667,30.2 C466.30667,30.2 461.60667,36.9 460.80667,44.3 Z M514.328335,3.6 C514.328335,2.3 513.728335,1.9 512.828335,1.9 C512.628335,1.9 512.528335,1.9 507.328335,2.6 C506.128335,2.8 505.828335,3.2 505.828335,4.6 L505.828335,71 C505.828335,72.4 506.428335,73 507.628335,73 L512.528335,73 C513.728335,73 514.328335,72.3 514.328335,70.9 L514.328335,3.6 Z M547.95,0.9 C538.65,0.9 533.35,6.1 532.15,14.8 C531.95,16.6 531.75,19.2 531.75,22.8 L531.75,24.7 L525.95,24.7 C524.95,24.7 524.55,25.1 524.55,26.1 L524.55,29.2 C524.55,30.5 524.75,30.7 525.85,30.7 L531.75,30.7 L531.75,70.9 C531.75,72.3 532.35,73 533.65,73 L538.35,73 C539.75,73 540.25,72.2 540.25,70.8 L540.25,30.7 L552.65,30.7 C553.65,30.7 554.05,30.3 554.05,29.3 L554.05,25.9 C554.05,24.9 553.55,24.7 552.55,24.7 L540.25,24.7 L540.25,20 C540.25,12.2 542.15,7.7 548.95,7.7 C551.25,7.7 553.95,8.4 555.55,9 C555.85,9.1 556.15,9.2 556.45,9.2 C556.95,9.2 557.25,8.9 557.45,8.2 L558.15,5.1 C558.45,4 558.45,3.1 557.05,2.6 C554.55,1.6 550.95,0.9 547.95,0.9 Z M600.89333,12.9 C600.89333,10 598.39333,8.1 595.69333,8.1 C592.99333,8.1 590.59333,10 590.59333,12.9 C590.59333,15.8 592.99333,17.7 595.69333,17.7 C598.29333,17.7 600.89333,15.8 600.89333,12.9 Z M599.99333,26.7 C599.99333,25.3 599.39333,24.7 598.09333,24.7 L593.49333,24.7 C592.19333,24.7 591.49333,25.3 591.49333,26.7 L591.49333,70.9 C591.49333,72.3 592.19333,73 593.49333,73 L598.09333,73 C599.39333,73 599.99333,72.3 599.99333,70.9 L599.99333,26.7 Z M656.414995,41.5 C656.414995,30.6 652.014995,23.6 640.514995,23.6 C634.714995,23.6 628.714995,25.7 624.114995,29.6 L624.014995,26.5 C624.014995,25.2 623.314995,24.7 622.114995,24.7 L617.714995,24.7 C616.314995,24.7 615.814995,25.3 615.814995,26.7 L615.814995,71 C615.814995,72.3 616.514995,73 617.714995,73 L622.414995,73 C623.714995,73 624.314995,72.3 624.314995,70.9 L624.314995,36.5 C627.814995,33.3 633.514995,30.7 638.114995,30.7 C646.114995,30.7 647.914995,35.8 647.914995,42.9 L647.914995,70.9 C647.914995,72.3 648.514995,73 649.814995,73 L654.514995,73 C655.914995,73 656.414995,72.3 656.414995,70.9 L656.414995,41.5 Z M751.458325,6.2 C751.458325,4.4 750.658325,3.8 749.058325,3.8 L741.158325,3.8 C739.558325,3.8 738.558325,4.5 738.558325,6.2 L738.558325,32.3 L710.158325,32.3 L710.158325,6.2 C710.158325,4.4 709.258325,3.8 707.658325,3.8 L699.858325,3.8 C698.258325,3.8 697.158325,4.5 697.158325,6.2 L697.158325,70.5 C697.158325,72.3 698.058325,73 699.858325,73 L707.658325,73 C709.358325,73 710.158325,72.3 710.158325,70.5 L710.158325,42.6 L738.558325,42.6 L738.558325,70.5 C738.558325,72.3 739.358325,73 741.158325,73 L749.058325,73 C750.758325,73 751.458325,72.3 751.458325,70.5 L751.458325,6.2 Z M813.97999,66.4 L813.97999,71.1 C813.97999,72.3 813.17999,73 811.97999,73 L807.17999,73 C801.97999,73 799.67999,70.5 798.97999,67.1 L798.77999,67.1 C796.27999,70.8 789.77999,74.2 784.27999,74.2 C770.17999,74.2 763.77999,62.6 763.77999,49.6 C763.77999,32.3 774.17999,23.2 785.37999,23.2 C790.67999,23.2 795.67999,25.6 798.17999,29 L798.37999,26.3 C798.47999,25.2 799.27999,24.5 800.47999,24.5 L807.47999,24.5 C808.77999,24.5 809.57999,25.2 809.57999,26.7 L809.57999,61.4 C809.57999,62.8 809.77999,63.8 810.17999,64.3 C810.47999,64.6 810.87999,64.7 811.37999,64.7 L812.17999,64.7 C813.37999,64.7 813.97999,65.1 813.97999,66.4 Z M797.47999,57.5 L797.47999,38.2 C795.47999,35.3 791.37999,33.1 787.57999,33.1 C781.47999,33.1 776.27999,38.3 776.27999,48.8 C776.27999,57.2 779.47999,64.3 786.87999,64.3 C791.77999,64.3 795.97999,60.6 797.47999,57.5 Z M846.401655,64.8 C837.801655,64.8 833.401655,58.2 833.401655,48.6 C833.401655,38.8 838.301655,32.7 846.901655,32.7 C850.401655,32.7 853.601655,33.7 856.501655,34.9 C856.901655,35.1 857.301655,35.3 857.601655,35.3 C858.201655,35.3 858.601655,34.8 858.801655,33.9 L860.101655,28.6 C860.401655,27.3 860.401655,26.6 859.101655,26 C854.901655,24.1 850.201655,23.2 845.701655,23.2 C830.201655,23.2 820.901655,33.7 820.901655,49.2 C820.901655,64.6 829.401655,74.2 844.801655,74.2 C850.101655,74.2 854.501655,73.4 859.301655,71.2 C860.201655,70.8 860.701655,70.4 860.701655,69.6 C860.701655,69.2 860.601655,68.6 860.401655,67.9 L859.101655,63.5 C858.701655,62.1 858.001655,62.2 856.901655,62.6 C853.401655,64 850.701655,64.8 846.401655,64.8 Z M910.92332,71.8 C910.92332,71.2 910.62332,70.5 910.22332,69.9 L894.02332,44.6 L908.32332,26.6 C908.62332,26.2 908.72332,25.8 908.72332,25.5 C908.72332,24.9 908.22332,24.5 907.42332,24.5 L898.52332,24.5 C897.22332,24.5 896.62332,24.8 895.82332,25.9 L882.72332,43.9 L882.52332,43.9 L882.52332,3.8 C882.52332,2.1 881.72332,1.5 880.52332,1.5 L872.52332,2.6 C871.02332,2.8 870.42332,3.4 870.42332,5 L870.42332,70.6 C870.42332,72.1 871.22332,73 872.72332,73 L880.22332,73 C881.82332,73 882.52332,72.2 882.52332,70.5 L882.52332,50.9 L883.62332,49.9 L896.42332,70.9 C897.42332,72.5 898.62332,73 900.42332,73 L909.02332,73 C910.02332,73 910.92332,72.7 910.92332,71.8 Z M963.844985,41.1 C963.844985,30.2 959.244985,23.2 948.044985,23.2 C942.244985,23.2 936.444985,25.3 931.844985,29 L931.744985,26.4 C931.644985,24.9 930.744985,24.5 929.344985,24.5 L922.844985,24.5 C921.044985,24.5 920.344985,25.4 920.344985,27 L920.344985,70.6 C920.344985,72.2 921.244985,73 922.744985,73 L930.044985,73 C931.744985,73 932.444985,72.2 932.444985,70.5 L932.444985,38.6 C935.544985,35.9 940.344985,33.8 944.244985,33.8 C950.344985,33.8 951.844985,37.7 951.844985,43.2 L951.844985,70.4 C951.844985,72.1 952.444985,73 954.244985,73 L961.444985,73 C963.244985,73 963.844985,72.1 963.844985,70.4 L963.844985,41.1 Z M1002.06665,64.5 C1006.26665,64.5 1010.46665,63.6 1014.36665,62.1 C1015.46665,61.7 1016.46665,61.5 1016.86665,63 L1018.26665,68.1 C1018.36665,68.6 1018.46665,69 1018.46665,69.3 C1018.46665,70 1018.06665,70.5 1016.86665,71 C1011.96665,73.2 1005.26665,74.2 1000.06665,74.2 C984.36665,74.2 975.06665,64.2 975.06665,48.6 C975.06665,33.6 984.96665,23.2 999.86665,23.2 C1005.96665,23.2 1010.96665,25.5 1014.46665,29.2 C1019.06665,34 1020.36665,40.3 1020.36665,47.1 L1020.36665,48.6 C1020.36665,51 1019.56665,51.5 1017.06665,51.5 L987.76665,51.5 C988.56665,59.2 994.16665,64.5 1002.06665,64.5 Z M987.96665,43.6 L1008.46665,43.6 L1008.46665,42.5 C1008.26665,37.3 1005.26665,32.5 999.16665,32.5 C992.66665,32.5 988.76665,37.7 987.96665,43.6 Z M1073.58831,25.9 C1073.58831,25.1 1072.98831,24.5 1071.98831,24.5 L1063.88831,24.5 C1062.18831,24.5 1061.38831,25.2 1060.88831,26.8 L1050.38831,59.3 L1039.28831,26.2 C1038.88831,25.2 1038.18831,24.5 1036.78831,24.5 L1027.18831,24.5 C1026.28831,24.5 1025.68831,25.1 1025.68831,25.9 C1025.68831,26.2 1025.78831,26.4 1025.88831,26.7 L1044.08831,73.6 L1042.18831,78.1 C1040.18831,82.8 1037.58831,85 1031.38831,85 C1030.18831,85 1028.68831,84.7 1027.38831,84.7 C1026.28831,84.7 1025.78831,85.2 1025.58831,86.5 L1024.88831,91.7 C1024.68831,93 1024.58831,94 1026.28831,94.3 C1027.98831,94.7 1029.68831,94.8 1031.58831,94.8 C1043.58831,94.8 1049.18831,90.6 1053.68831,78.7 L1073.38831,26.9 C1073.48831,26.5 1073.58831,26.2 1073.58831,25.9 Z" id="Find-yourself-in-Hac" fill="#000000"></path>
    </g>
</svg>