<?xml version="1.0" encoding="UTF-8"?>
<svg width="1795px" height="158px" viewBox="0 0 1795 158" version="1.1" xmlns="http://www.w3.org/2000/svg" xmlns:xlink="http://www.w3.org/1999/xlink">
    <!-- Generator: Sketch 43 (38999) - http://www.bohemiancoding.com/sketch -->
    <title>Find yourself in Hac</title>
    <desc>Created with Sketch.</desc>
    <defs></defs>
    <g id="Page-1" stroke="none" stroke-width="1" fill="none" fill-rule="evenodd">
        <path d="M66.518,6.128 L3.936,6.128 C1.28,6.128 0.118,7.622 0.118,10.278 L0.118,116.518 C0.118,120.17 1.28,121 4.6,121 L17.548,121 C20.37,121 21.532,119.838 21.532,116.85 L21.532,70.536 L60.044,70.536 C62.866,70.536 64.028,69.374 64.028,66.552 L64.028,57.09 C64.028,54.766 63.032,53.438 59.878,53.438 L21.532,53.438 L21.532,23.392 L63.198,23.392 C66.684,23.392 68.51,22.894 68.842,19.906 L70.004,9.946 C70.336,7.456 69.672,6.128 66.518,6.128 Z M109.207665,19.408 C109.207665,12.768 103.729665,8.95 98.085665,8.95 C92.275665,8.95 86.797665,12.934 86.797665,19.574 C86.797665,26.214 92.607665,29.866 98.085665,29.866 C103.563665,29.866 109.207665,25.882 109.207665,19.408 Z M108.211665,44.308 C108.211665,41.32 106.717665,40.49 104.061665,40.49 L92.441665,40.49 C89.785665,40.49 88.125665,41.486 88.125665,44.308 L88.125665,116.85 C88.125665,119.838 89.453665,121 92.441665,121 L104.061665,121 C106.883665,121 108.211665,119.838 108.211665,116.85 L108.211665,44.308 Z M203.85533,68.046 C203.85533,49.952 196.21933,38.332 177.62733,38.332 C167.99933,38.332 158.37133,41.818 150.73533,47.96 L150.56933,43.644 C150.40333,41.154 148.90933,40.49 146.58533,40.49 L135.79533,40.49 C132.80733,40.49 131.64533,41.984 131.64533,44.64 L131.64533,117.016 C131.64533,119.672 133.13933,121 135.62933,121 L147.74733,121 C150.56933,121 151.73133,119.672 151.73133,116.85 L151.73133,63.896 C156.87733,59.414 164.84533,55.928 171.31933,55.928 C181.44533,55.928 183.93533,62.402 183.93533,71.532 L183.93533,116.684 C183.93533,119.506 184.93133,121 187.91933,121 L199.87133,121 C202.85933,121 203.85533,119.506 203.85533,116.684 L203.85533,68.046 Z M297.838995,5.63 L297.838995,116.85 C297.838995,119.672 296.178995,121 294.186995,121 L283.396995,121 C280.740995,121 279.578995,119.672 279.412995,117.68 L279.080995,113.198 C274.432995,118.51 265.136995,122.992 256.504995,122.992 C232.434995,122.992 221.478995,103.902 221.478995,81.658 C221.478995,58.418 234.426995,38.166 257.832995,38.166 C265.302995,38.166 273.104995,41.154 277.752995,45.968 L277.752995,8.618 C277.752995,5.63 278.582995,4.468 281.238995,4.136 L295.182995,2.31 C297.174995,2.31 297.838995,3.14 297.838995,5.63 Z M277.752995,98.424 L277.752995,62.402 C274.432995,57.92 268.124995,54.268 261.816995,54.268 C248.370995,54.268 242.394995,66.884 242.394995,80.496 C242.394995,94.108 247.374995,106.724 260.820995,106.724 C266.962995,106.724 274.432995,102.574 277.752995,98.424 Z M434.678325,42.814 C434.678325,41.486 433.682325,40.49 432.022325,40.49 L418.576325,40.49 C415.754325,40.49 414.426325,41.652 413.596325,44.308 L396.166325,98.258 L377.740325,43.312 C377.076325,41.652 375.914325,40.49 373.590325,40.49 L357.654325,40.49 C356.160325,40.49 355.164325,41.486 355.164325,42.814 C355.164325,43.312 355.330325,43.644 355.496325,44.142 L385.708325,121.996 L382.554325,129.466 C379.234325,137.268 374.918325,140.92 364.626325,140.92 C362.634325,140.92 360.144325,140.422 357.986325,140.422 C356.160325,140.422 355.330325,141.252 354.998325,143.41 L353.836325,152.042 C353.504325,154.2 353.338325,155.86 356.160325,156.358 C358.982325,157.022 361.804325,157.188 364.958325,157.188 C384.878325,157.188 394.174325,150.216 401.644325,130.462 L434.346325,44.474 C434.512325,43.81 434.678325,43.312 434.678325,42.814 Z M520.36199,80.662 C520.36199,104.566 505.75399,122.992 479.85799,122.992 C452.79999,122.992 440.34999,104.732 440.34999,80.496 C440.34999,56.592 454.95799,38.332 480.85399,38.332 C507.91199,38.332 520.36199,56.26 520.36199,80.662 Z M499.61199,80.662 C499.61199,67.05 495.29599,54.102 480.68799,54.102 C465.91399,54.102 461.09999,66.884 461.09999,80.164 C461.09999,93.776 465.24999,107.222 480.02399,107.222 C494.63199,107.222 499.61199,94.274 499.61199,80.662 Z M609.531655,44.308 C609.531655,41.32 608.037655,40.49 605.381655,40.49 L593.595655,40.49 C590.939655,40.49 589.445655,41.486 589.445655,44.308 L589.445655,97.262 C584.465655,101.744 576.497655,105.23 570.189655,105.23 C560.229655,105.23 557.905655,98.922 557.905655,89.792 L557.905655,44.308 C557.905655,41.32 556.411655,40.49 553.755655,40.49 L542.135655,40.49 C539.479655,40.49 537.819655,41.486 537.819655,44.308 L537.819655,93.278 C537.819655,111.206 545.455655,122.992 564.047655,122.992 C573.675655,122.992 582.805655,119.672 590.441655,113.53 L590.607655,117.68 C590.773655,119.838 592.433655,121 594.591655,121 L605.215655,121 C608.535655,121 609.531655,119.838 609.531655,116.352 L609.531655,44.308 Z M670.97932,38.332 C661.68332,38.332 656.03932,42.482 650.89332,48.956 L650.72732,43.644 C650.72732,41.32 649.23332,40.49 646.57732,40.49 L635.95332,40.49 C633.46332,40.49 631.80332,41.32 631.80332,44.64 L631.80332,116.85 C631.80332,119.672 633.13132,121 635.78732,121 L647.90532,121 C650.72732,121 651.88932,119.506 651.88932,116.85 L651.88932,64.062 C656.03932,59.082 662.18132,56.094 667.82532,56.094 C669.31932,56.094 670.97932,56.26 672.30732,56.592 C673.96732,56.924 674.96332,56.426 675.29532,54.434 C676.78932,44.806 677.28732,41.652 677.28732,41.154 C677.28732,39.826 676.78932,39.328 675.62732,38.996 C674.13332,38.498 672.30732,38.332 670.97932,38.332 Z M744.212985,97.262 C744.212985,86.472 737.240985,79.666 728.442985,76.014 L713.502985,69.872 C707.194985,67.382 705.368985,65.058 705.368985,61.406 C705.368985,57.588 708.854985,53.77 715.826985,53.77 C721.138985,53.77 728.276985,55.596 733.754985,57.754 C734.252985,57.92 734.916985,58.086 735.414985,58.086 C736.576985,58.086 737.406985,57.422 737.738985,56.26 L740.560985,47.296 C740.726985,46.632 740.892985,46.134 740.892985,45.636 C740.892985,44.64 740.228985,43.976 738.900985,43.312 C730.600985,39.66 722.798985,38.332 714.830985,38.332 C700.056985,38.332 684.784985,45.802 684.784985,62.07 C684.784985,73.358 692.420985,80.662 701.882985,84.148 L714.996985,89.128 C721.802985,91.784 724.956985,94.274 724.956985,98.922 C724.956985,104.4 719.976985,107.72 712.672985,107.72 C706.862985,107.72 699.060985,105.562 691.756985,102.574 C691.092985,102.242 690.594985,102.242 690.096985,102.242 C688.934985,102.242 688.104985,102.906 687.606985,104.566 L684.950985,113.032 C684.784985,113.53 684.618985,114.028 684.618985,114.526 C684.618985,115.522 685.116985,116.518 686.610985,117.182 C694.080985,120.502 703.542985,122.992 712.174985,122.992 C729.106985,122.992 744.212985,114.692 744.212985,97.262 Z M800.34865,106.89 C807.32065,106.89 814.29265,105.396 820.76665,102.906 C822.59265,102.242 824.25265,101.91 824.91665,104.4 L827.24065,112.866 C827.40665,113.696 827.57265,114.36 827.57265,114.858 C827.57265,116.02 826.90865,116.85 824.91665,117.68 C816.78265,121.332 805.66065,122.992 797.02865,122.992 C770.96665,122.992 755.52865,106.392 755.52865,80.496 C755.52865,55.596 771.96265,38.332 796.69665,38.332 C806.82265,38.332 815.12265,42.15 820.93265,48.292 C828.56865,56.26 830.72665,66.718 830.72665,78.006 L830.72665,80.496 C830.72665,84.48 829.39865,85.31 825.24865,85.31 L776.61065,85.31 C777.93865,98.092 787.23465,106.89 800.34865,106.89 Z M776.94265,72.196 L810.97265,72.196 L810.97265,70.37 C810.64065,61.738 805.66065,53.77 795.53465,53.77 C784.74465,53.77 778.27065,62.402 776.94265,72.196 Z M867.440315,5.962 C867.440315,3.306 866.112315,2.31 864.120315,2.31 L850.674315,4.136 C848.516315,4.468 847.354315,5.298 847.354315,8.12 L847.354315,117.016 C847.354315,119.838 848.848315,121 851.172315,121 L863.788315,121 C866.112315,121 867.440315,119.672 867.440315,116.85 L867.440315,5.962 Z M924.07398,0.152 C907.47398,0.152 898.67598,8.618 896.01998,22.562 C895.35598,26.214 894.85798,30.53 894.85798,36.008 L894.85798,40.49 L885.56198,40.49 C883.40398,40.49 882.40798,41.818 882.40798,43.81 L882.40798,50.118 C882.40798,53.604 882.90598,54.268 885.89398,54.268 L894.85798,54.268 L894.85798,116.684 C894.85798,119.506 896.01998,121 898.84198,121 L910.79398,121 C913.94798,121 914.94398,119.34 914.94398,116.352 L914.94398,54.268 L933.36998,54.268 C935.36198,54.268 936.68998,53.272 936.68998,51.114 L936.68998,43.312 C936.68998,41.154 935.36198,40.49 933.36998,40.49 L914.94398,40.49 L914.94398,32.854 C914.94398,23.226 917.10198,16.586 927.06198,16.586 C931.04598,16.586 935.02998,17.582 938.34998,18.744 C939.01398,18.91 939.51198,19.076 940.17598,19.076 C941.50398,19.076 942.00198,18.08 942.33398,16.586 L943.49598,9.614 C943.82798,7.124 944.49198,4.8 941.66998,3.638 C936.85598,1.48 929.55198,0.152 924.07398,0.152 Z M1015.92731,19.408 C1015.92731,12.768 1010.44931,8.95 1004.80531,8.95 C998.99531,8.95 993.51731,12.934 993.51731,19.574 C993.51731,26.214 999.32731,29.866 1004.80531,29.866 C1010.28331,29.866 1015.92731,25.882 1015.92731,19.408 Z M1014.93131,44.308 C1014.93131,41.32 1013.43731,40.49 1010.78131,40.49 L999.16131,40.49 C996.50531,40.49 994.84531,41.486 994.84531,44.308 L994.84531,116.85 C994.84531,119.838 996.17331,121 999.16131,121 L1010.78131,121 C1013.60331,121 1014.93131,119.838 1014.93131,116.85 L1014.93131,44.308 Z M1110.57497,68.046 C1110.57497,49.952 1102.93897,38.332 1084.34697,38.332 C1074.71897,38.332 1065.09097,41.818 1057.45497,47.96 L1057.28897,43.644 C1057.12297,41.154 1055.62897,40.49 1053.30497,40.49 L1042.51497,40.49 C1039.52697,40.49 1038.36497,41.984 1038.36497,44.64 L1038.36497,117.016 C1038.36497,119.672 1039.85897,121 1042.34897,121 L1054.46697,121 C1057.28897,121 1058.45097,119.672 1058.45097,116.85 L1058.45097,63.896 C1063.59697,59.414 1071.56497,55.928 1078.03897,55.928 C1088.16497,55.928 1090.65497,62.402 1090.65497,71.532 L1090.65497,116.684 C1090.65497,119.506 1091.65097,121 1094.63897,121 L1106.59097,121 C1109.57897,121 1110.57497,119.506 1110.57497,116.684 L1110.57497,68.046 Z M1265.8403,10.112 C1265.8403,7.124 1264.5123,6.128 1261.8563,6.128 L1248.7423,6.128 C1246.0863,6.128 1244.4263,7.29 1244.4263,10.112 L1244.4263,53.438 L1197.2823,53.438 L1197.2823,10.112 C1197.2823,7.124 1195.7883,6.128 1193.1323,6.128 L1180.1843,6.128 C1177.5283,6.128 1175.7023,7.29 1175.7023,10.112 L1175.7023,116.85 C1175.7023,119.838 1177.1963,121 1180.1843,121 L1193.1323,121 C1195.9543,121 1197.2823,119.838 1197.2823,116.85 L1197.2823,70.536 L1244.4263,70.536 L1244.4263,116.85 C1244.4263,119.838 1245.7543,121 1248.7423,121 L1261.8563,121 C1264.6783,121 1265.8403,119.838 1265.8403,116.85 L1265.8403,10.112 Z M1368.62197,110.044 L1368.62197,117.846 C1368.62197,119.838 1367.29397,121 1365.30197,121 L1357.33397,121 C1348.70197,121 1344.88397,116.85 1343.72197,111.206 L1343.38997,111.206 C1339.23997,117.348 1328.44997,122.992 1319.31997,122.992 C1295.91397,122.992 1285.28997,103.736 1285.28997,82.156 C1285.28997,53.438 1302.55397,38.332 1321.14597,38.332 C1329.94397,38.332 1338.24397,42.316 1342.39397,47.96 L1342.72597,43.478 C1342.89197,41.652 1344.21997,40.49 1346.21197,40.49 L1357.83197,40.49 C1359.98997,40.49 1361.31797,41.652 1361.31797,44.142 L1361.31797,101.744 C1361.31797,104.068 1361.64997,105.728 1362.31397,106.558 C1362.81197,107.056 1363.47597,107.222 1364.30597,107.222 L1365.63397,107.222 C1367.62597,107.222 1368.62197,107.886 1368.62197,110.044 Z M1341.23197,95.27 L1341.23197,63.232 C1337.91197,58.418 1331.10597,54.766 1324.79797,54.766 C1314.67197,54.766 1306.03997,63.398 1306.03997,80.828 C1306.03997,94.772 1311.35197,106.558 1323.63597,106.558 C1331.76997,106.558 1338.74197,100.416 1341.23197,95.27 Z M1421.43763,107.388 C1407.16163,107.388 1399.85763,96.432 1399.85763,80.496 C1399.85763,64.228 1407.99163,54.102 1422.26763,54.102 C1428.07763,54.102 1433.38963,55.762 1438.20363,57.754 C1438.86763,58.086 1439.53163,58.418 1440.02963,58.418 C1441.02563,58.418 1441.68963,57.588 1442.02163,56.094 L1444.17963,47.296 C1444.67763,45.138 1444.67763,43.976 1442.51963,42.98 C1435.54763,39.826 1427.74563,38.332 1420.27563,38.332 C1394.54563,38.332 1379.10763,55.762 1379.10763,81.492 C1379.10763,107.056 1393.21763,122.992 1418.78163,122.992 C1427.57963,122.992 1434.88363,121.664 1442.85163,118.012 C1444.34563,117.348 1445.17563,116.684 1445.17563,115.356 C1445.17563,114.692 1445.00963,113.696 1444.67763,112.534 L1442.51963,105.23 C1441.85563,102.906 1440.69363,103.072 1438.86763,103.736 C1433.05763,106.06 1428.57563,107.388 1421.43763,107.388 Z M1527.5393,119.008 C1527.5393,118.012 1527.0413,116.85 1526.3773,115.854 L1499.4853,73.856 L1523.2233,43.976 C1523.7213,43.312 1523.8873,42.648 1523.8873,42.15 C1523.8873,41.154 1523.0573,40.49 1521.7293,40.49 L1506.9553,40.49 C1504.7973,40.49 1503.8013,40.988 1502.4733,42.814 L1480.7273,72.694 L1480.3953,72.694 L1480.3953,6.128 C1480.3953,3.306 1479.0673,2.31 1477.0753,2.31 L1463.7953,4.136 C1461.3053,4.468 1460.3093,5.464 1460.3093,8.12 L1460.3093,117.016 C1460.3093,119.506 1461.6373,121 1464.1273,121 L1476.5773,121 C1479.2333,121 1480.3953,119.672 1480.3953,116.85 L1480.3953,84.314 L1482.2213,82.654 L1503.4693,117.514 C1505.1293,120.17 1507.1213,121 1510.1093,121 L1524.3853,121 C1526.0453,121 1527.5393,120.502 1527.5393,119.008 Z M1614.38496,68.046 C1614.38496,49.952 1606.74896,38.332 1588.15696,38.332 C1578.52896,38.332 1568.90096,41.818 1561.26496,47.96 L1561.09896,43.644 C1560.93296,41.154 1559.43896,40.49 1557.11496,40.49 L1546.32496,40.49 C1543.33696,40.49 1542.17496,41.984 1542.17496,44.64 L1542.17496,117.016 C1542.17496,119.672 1543.66896,121 1546.15896,121 L1558.27696,121 C1561.09896,121 1562.26096,119.672 1562.26096,116.85 L1562.26096,63.896 C1567.40696,59.414 1575.37496,55.928 1581.84896,55.928 C1591.97496,55.928 1594.46496,62.402 1594.46496,71.532 L1594.46496,116.684 C1594.46496,119.506 1595.46096,121 1598.44896,121 L1610.40096,121 C1613.38896,121 1614.38496,119.506 1614.38496,116.684 L1614.38496,68.046 Z M1676.82863,106.89 C1683.80063,106.89 1690.77263,105.396 1697.24663,102.906 C1699.07263,102.242 1700.73263,101.91 1701.39663,104.4 L1703.72063,112.866 C1703.88663,113.696 1704.05263,114.36 1704.05263,114.858 C1704.05263,116.02 1703.38863,116.85 1701.39663,117.68 C1693.26263,121.332 1682.14063,122.992 1673.50863,122.992 C1647.44663,122.992 1632.00863,106.392 1632.00863,80.496 C1632.00863,55.596 1648.44263,38.332 1673.17663,38.332 C1683.30263,38.332 1691.60263,42.15 1697.41263,48.292 C1705.04863,56.26 1707.20663,66.718 1707.20663,78.006 L1707.20663,80.496 C1707.20663,84.48 1705.87863,85.31 1701.72863,85.31 L1653.09063,85.31 C1654.41863,98.092 1663.71463,106.89 1676.82863,106.89 Z M1653.42263,72.196 L1687.45263,72.196 L1687.45263,70.37 C1687.12063,61.738 1682.14063,53.77 1672.01463,53.77 C1661.22463,53.77 1654.75063,62.402 1653.42263,72.196 Z M1794.55029,42.814 C1794.55029,41.486 1793.55429,40.49 1791.89429,40.49 L1778.44829,40.49 C1775.62629,40.49 1774.29829,41.652 1773.46829,44.308 L1756.03829,98.258 L1737.61229,43.312 C1736.94829,41.652 1735.78629,40.49 1733.46229,40.49 L1717.52629,40.49 C1716.03229,40.49 1715.03629,41.486 1715.03629,42.814 C1715.03629,43.312 1715.20229,43.644 1715.36829,44.142 L1745.58029,121.996 L1742.42629,129.466 C1739.10629,137.268 1734.79029,140.92 1724.49829,140.92 C1722.50629,140.92 1720.01629,140.422 1717.85829,140.422 C1716.03229,140.422 1715.20229,141.252 1714.87029,143.41 L1713.70829,152.042 C1713.37629,154.2 1713.21029,155.86 1716.03229,156.358 C1718.85429,157.022 1721.67629,157.188 1724.83029,157.188 C1744.75029,157.188 1754.04629,150.216 1761.51629,130.462 L1794.21829,44.474 C1794.38429,43.81 1794.55029,43.312 1794.55029,42.814 Z" id="Find-yourself-in-Hac" fill="#000000"></path>
    </g>
</svg>