<svg xmlns="http://www.w3.org/2000/svg" viewBox="0 0 211.52 186.65"><defs><style>.cls-1{fill:none;}</style></defs><title>Asset 1</title><g id="Layer_2" data-name="Layer 2"><g id="Layer_1-2" data-name="Layer 1"><path d="M115,101.59a15.16,15.16,0,0,1-4.76-.8.55.55,0,0,1-.37-.8l.52-1.62c.07-.25.2-.4.45-.4a1.24,1.24,0,0,1,.37.07,11.23,11.23,0,0,0,3.72.75c1.35,0,2.87-.65,2.87-2.22,0-1.15-.85-1.77-1.82-2.24l-3.24-1.62a4.75,4.75,0,0,1-2.94-4.29c0-3,3-4.71,5.76-4.71a10.74,10.74,0,0,1,4.46.87c.32.15.5.3.5.5a.87.87,0,0,1-.07.32l-.6,1.52c-.1.27-.25.37-.42.37a1.34,1.34,0,0,1-.4-.1,9.42,9.42,0,0,0-3.29-.77c-1.17,0-2.52.5-2.52,1.9,0,1,.95,1.62,1.77,2l2.77,1.35c2,.95,3.32,2.27,3.32,4.56C121,99.72,118.2,101.59,115,101.59Z"/><path d="M137.73,93.64c0,5.14-2.42,8-7.28,8-5.26,0-7.18-2.89-7.18-8v-9c0-.42.25-.6.65-.6h2c.42,0,.6.17.6.6v8.68c0,3.67.95,5.56,4.09,5.56s4-2,4-5.56V84.63c0-.42.22-.6.62-.6h2c.42,0,.6.17.6.6Z"/><path d="M145.52,95.23c-.2,0-1.32,0-1.5-.07v5.54c0,.37-.15.6-.62.6h-2c-.4,0-.6-.17-.6-.67V84.71c0-.5.15-.67.62-.67H145c2.64,0,4.59.5,5.81,1.9a5.42,5.42,0,0,1,1.25,3.54C152.1,93.34,149.18,95.23,145.52,95.23Zm-.2-8.7H144v6.19l1.47,0c2.12,0,3.37-1,3.37-3.14S147.46,86.53,145.32,86.53Z"/><path d="M158.89,95.23c-.2,0-1.32,0-1.5-.07v5.54c0,.37-.15.6-.62.6h-2c-.4,0-.6-.17-.6-.67V84.71c0-.5.15-.67.62-.67h3.62c2.64,0,4.59.5,5.81,1.9a5.42,5.42,0,0,1,1.25,3.54C165.47,93.34,162.55,95.23,158.89,95.23Zm-.2-8.7h-1.3v6.19l1.47,0c2.12,0,3.37-1,3.37-3.14S160.83,86.53,158.69,86.53Z"/><path d="M174.35,101.59c-4.76,0-7.51-3.47-7.51-8.88s3-9,7.68-9c4.94,0,7.51,3.74,7.51,8.85C182,98.2,178.82,101.59,174.35,101.59Zm.1-15.16c-2.49,0-4.16,2.32-4.16,6.21,0,4.14,1.52,6.23,4.16,6.23,2.47,0,4.14-2.17,4.14-6.23S177.12,86.43,174.45,86.43Z"/><path d="M196.36,101.29h-2.27a1,1,0,0,1-1-.5l-3.59-5.86H187.6v5.74c0,.37-.15.62-.57.62h-2c-.42,0-.6-.2-.6-.62V84.76c0-.55.13-.72.67-.72h3.69c2.17,0,4.46.32,5.79,1.85a5.53,5.53,0,0,1-2,8.46l4.09,6.31a.74.74,0,0,1,.12.35C196.73,101.19,196.58,101.29,196.36,101.29Zm-7.51-14.81H187.6v6h1.55c2,0,3.32-1.07,3.32-3.09S191,86.48,188.85,86.48Z"/><path d="M210,86.1c0,.42-.32.52-.77.52h-4.51v14.09c0,.47-.1.57-.52.57H202c-.45,0-.52-.1-.52-.55V86.63h-4.66c-.42,0-.57-.17-.57-.6V84.56c0-.37.17-.52.55-.52h12.62c.65,0,.82.2.77.62Z"/><path d="M14.22,100.71c0,.43-.17.6-.57.6H11.76c-.43,0-.62-.17-.62-.6V94H4.35v6.67c0,.43-.19.6-.6.6H1.89c-.43,0-.65-.17-.65-.6V85.34c0-.41.26-.57.65-.57H3.75c.38,0,.6.14.6.57v6.24h6.79V85.34c0-.41.24-.57.62-.57h1.89c.38,0,.57.14.57.57Z"/><path d="M18.67,101.31H16.54c-.24,0-.33-.12-.33-.31a.56.56,0,0,1,0-.26l5.83-15.49a.65.65,0,0,1,.65-.48h1.91a.65.65,0,0,1,.67.43l5.86,15.42a.76.76,0,0,1,0,.31c0,.24-.12.38-.43.38H28.66a.73.73,0,0,1-.81-.57L26.6,97.22h-6l-1.24,3.58A.61.61,0,0,1,18.67,101.31Zm7.12-6.41-1.7-5c-.22-.67-.36-1.17-.48-1.55h0c-.12.41-.26.91-.5,1.58l-1.7,5Z"/><path d="M44.65,100.61a11.93,11.93,0,0,1-4.76,1c-5,0-7.5-3.56-7.5-8.49s2.94-8.65,7.74-8.65a10,10,0,0,1,4.49,1c.29.14.38.26.38.41a.82.82,0,0,1-.07.31l-.55,1.51c-.07.22-.19.31-.33.31a.7.7,0,0,1-.26-.1A7.15,7.15,0,0,0,40.33,87c-3.32,0-4.61,3.06-4.61,6,0,3.68,1.72,6,4.66,6a8.46,8.46,0,0,0,3.44-.76,1,1,0,0,1,.29-.1c.17,0,.29.12.38.36L45,99.8a1,1,0,0,1,.07.33C45,100.35,44.94,100.49,44.65,100.61Z"/><path d="M59.16,101.31H56.77a1.25,1.25,0,0,1-1.15-.6l-5.16-6.62h0v6.62c0,.43-.17.6-.57.6H47.93c-.43,0-.6-.17-.6-.6V85.34c0-.41.22-.57.6-.57h1.91c.38,0,.57.14.57.57V92.1h0l4.92-6.91a1,1,0,0,1,.88-.43h1.91c.24,0,.38.14.38.31a.46.46,0,0,1-.1.29L53,92.75l6.36,7.82a.81.81,0,0,1,.22.43C59.54,101.19,59.4,101.31,59.16,101.31Z"/><path d="M75.49,100.66c0,.53-.22.65-.57.65h-1.6a1.09,1.09,0,0,1-.91-.5L64.61,90.14h0v10.54c0,.45-.22.62-.62.62H62.22c-.45,0-.65-.12-.65-.6V85.41c0-.5.22-.65.65-.65h1.55a.87.87,0,0,1,.81.45L72.45,96h0V85.39c0-.45.22-.62.62-.62h1.79c.5,0,.57.26.57.65Z"/><path d="M89,100.73c0,.38-.17.57-.57.57H79.6c-.48,0-.65-.12-.65-.65V85.36c0-.38.17-.6.55-.6h9c.48,0,.55.22.5.55l-.17,1.43c0,.43-.31.5-.81.5H82v4.33h5.52c.45,0,.6.19.6.53v1.36c0,.41-.17.57-.57.57H82v4.78h6.41c.41,0,.6.17.6.55Z"/><path d="M103.74,85.36l-4.92,9.11v6.29a.49.49,0,0,1-.55.55h-2c-.36,0-.55-.19-.55-.6V94.59l-5.19-9.25a.53.53,0,0,1-.07-.24c0-.19.17-.33.43-.33h2.18a.9.9,0,0,1,.88.45L97.39,92h0l3.39-6.72a.77.77,0,0,1,.84-.5h1.72c.29,0,.45.1.45.29A.64.64,0,0,1,103.74,85.36Z"/><path class="cls-1" d="M143.41,106.85a.84.84,0,0,1-.81.63l-.22,0-1.63-.44a.84.84,0,0,1-.6-1,.81.81,0,0,1,.06-.14h-4.12l1.23.71a.84.84,0,1,1-.84,1.46l-3.76-2.17h-3.37L140,112a.84.84,0,0,1-.42,1.58.83.83,0,0,1-.42-.11L126,105.84h-4a10.59,10.59,0,0,0,1.07,2.26l3.75,6.07-6.07-3.75a8,8,0,0,0-4-1.38,2.92,2.92,0,0,0-1.5.37c-1.26.73-1.94,2.65-1.86,5.27l.2,7.12-3.38-6.26c-1.24-2.31-2.79-3.63-4.25-3.63s-3,1.32-4.25,3.63l-3.38,6.26.2-7.12c.08-2.62-.6-4.54-1.86-5.27a2.93,2.93,0,0,0-1.5-.37,8,8,0,0,0-4,1.38l-6.07,3.75,3.75-6.07A10.61,10.61,0,0,0,90,105.84H86l-13.21,7.62a.84.84,0,0,1-.84-1.46l10.67-6.16H79.23L75.48,108a.84.84,0,0,1-.84-1.46l1.23-.71H71.74a.82.82,0,0,1,.06.14.84.84,0,0,1-.6,1l-1.63.44-.22,0a.84.84,0,0,1-.27-1.64H66.57a41.35,41.35,0,0,0,78.82,0h-2.52A.84.84,0,0,1,143.41,106.85ZM76.74,119a.84.84,0,1,1-1.19-1.19l1.19-1.19a.84.84,0,0,1,1.19,1.19Zm6,3.58-1.19,1.19a.84.84,0,1,1-1.19-1.19l1.19-1.19a.84.84,0,1,1,1.19,1.19Zm0-4.77-3.58,3.58a.84.84,0,1,1-1.19-1.19l3.58-3.58a.84.84,0,0,1,1.19,1.19Zm2-7.31-5.85,3.38A.84.84,0,0,1,78,112.4L83.86,109a.84.84,0,1,1,.84,1.46Zm.74,10,3.38-5.85a.84.84,0,0,1,1.46.84l-3.38,5.85a.84.84,0,1,1-1.46-.84Zm1.12,7.34a.84.84,0,0,1-.73-1.26l8.44-14.62a.84.84,0,0,1,1.46.84L87.3,127.36A.84.84,0,0,1,86.57,127.79Zm4.72-4L94.67,118a.84.84,0,0,1,.73-.42.83.83,0,0,1,.42.11.84.84,0,0,1,.31,1.15l-3.38,5.85a.85.85,0,0,1-.73.42.83.83,0,0,1-.42-.11A.84.84,0,0,1,91.29,123.82Zm2.63,4.71-.44,1.63a.84.84,0,0,1-.81.63l-.22,0a.84.84,0,0,1-.6-1l.44-1.63a.84.84,0,0,1,.81-.63l.22,0A.84.84,0,0,1,93.92,128.54Zm4.13-2.39L96.74,131a.84.84,0,0,1-.81.63l-.22,0a.84.84,0,0,1-.6-1l1.31-4.89a.84.84,0,0,1,.81-.63l.22,0A.84.84,0,0,1,98.05,126.15Zm2.39,4.13-.44,1.63a.84.84,0,0,1-.82.63l-.22,0a.84.84,0,0,1-.6-1l.44-1.63a.84.84,0,0,1,.81-.63l.22,0A.84.84,0,0,1,100.44,130.28Zm3-3.2a.84.84,0,0,1-1.69,0v-6.75a.84.84,0,1,1,1.69,0Zm3.38,5.06a.84.84,0,0,1-1.69,0V115.27a.84.84,0,0,1,1.69,0Zm3.38-5.06a.84.84,0,0,1-1.69,0v-6.75a.84.84,0,0,1,1.69,0Zm2.79,5.43-.22,0a.84.84,0,0,1-.82-.63l-.44-1.63a.84.84,0,0,1,.6-1l.22,0a.84.84,0,0,1,.81.63l.44,1.63A.85.85,0,0,1,113,132.51Zm3.26-.87-.22,0a.84.84,0,0,1-.81-.63l-1.31-4.89a.84.84,0,0,1,.6-1l.22,0a.84.84,0,0,1,.81.63l1.31,4.89A.84.84,0,0,1,116.24,131.64Zm3.26-.87-.22,0a.84.84,0,0,1-.81-.63l-.44-1.63a.85.85,0,0,1,.6-1l.22,0a.84.84,0,0,1,.82.63l.44,1.63A.85.85,0,0,1,119.5,130.76Zm.85-5.79a.84.84,0,0,1-1.15-.31l-3.38-5.85a.84.84,0,0,1,.31-1.15.83.83,0,0,1,.42-.11.85.85,0,0,1,.73.42l3.37,5.85A.84.84,0,0,1,120.35,125Zm5.45,2.7a.85.85,0,0,1-1.15-.31l-8.44-14.62a.84.84,0,0,1,.31-1.15.83.83,0,0,1,.42-.11.85.85,0,0,1,.73.42l8.44,14.62A.84.84,0,0,1,125.81,127.67Zm.39-6.07a.84.84,0,0,1-1.15-.31l-3.38-5.85a.84.84,0,0,1,.31-1.15.83.83,0,0,1,.42-.11.84.84,0,0,1,.73.42l3.38,5.85A.84.84,0,0,1,126.2,121.6Zm.74-12.27a.84.84,0,0,1,1.15-.31l5.85,3.38a.84.84,0,0,1-.42,1.57.83.83,0,0,1-.42-.11l-5.85-3.38A.85.85,0,0,1,126.94,109.33Zm4.69,14.43a.84.84,0,0,1-1.19,0l-1.19-1.19a.84.84,0,0,1,1.19-1.19l1.19,1.19A.84.84,0,0,1,131.63,123.76Zm2.39-2.39a.84.84,0,0,1-1.19,0l-3.58-3.58a.84.84,0,0,1,1.19-1.19l3.58,3.58A.84.84,0,0,1,134,121.37Zm2.39-2.39a.84.84,0,0,1-1.19,0L134,117.79a.84.84,0,0,1,1.19-1.19l1.19,1.19A.84.84,0,0,1,136.41,119Z"/><path class="cls-1" d="M75.28,30.11l.11-.05,1.28-.6-1.28.6Z"/><path class="cls-1" d="M80.36,136c-1.84-1.13-4.19-.12-5.77,2.45-1.68,2.73-1.56,5,.37,6.23s4.1.2,5.75-2.49S82.32,137.25,80.36,136Z"/><path class="cls-1" d="M106,106.83a13.45,13.45,0,0,0,5.05-1h-10.1A13.45,13.45,0,0,0,106,106.83Z"/><path class="cls-1" d="M106,158.3a65.08,65.08,0,0,1-63.76-52.46H40.5a66.65,66.65,0,0,0,130.94,0h-1.71A65.08,65.08,0,0,1,106,158.3Z"/><path class="cls-1" d="M106,46.91A46.49,46.49,0,0,1,150.25,79.4H167.7a63.28,63.28,0,0,0-123.45,0H61.7A46.49,46.49,0,0,1,106,46.91ZM137.4,40a.48.48,0,0,1,.06-.2c.06-.1.18-.12.33,0l.85.54a.54.54,0,0,1,.32.6l-.94,7h0l5.81-3.85c.29-.19.41-.21.68,0l.64.41c.17.11.2.22.14.32a.51.51,0,0,1-.2.18l-7.25,4.65-2.69,4.25c-.14.22-.27.25-.45.14l-.9-.57c-.18-.12-.21-.25-.06-.48l2.66-4.2Zm-8.52-4.22,5.83,2.47c.25.1.23.25.12.46l-.36.67c-.12.25-.29.22-.57.1l-4.36-1.84-1.69,4,3.89,1.65a.31.31,0,0,1,.19.47l-.28.66c-.11.26-.22.29-.45.2L127.3,43l-1.94,4.6,4.58,1.93c.25.1.31.24.22.46l-.29.69a.31.31,0,0,1-.47.19l-5.79-2.45c-.28-.12-.32-.22-.19-.53l5-11.83C128.52,35.77,128.65,35.7,128.89,35.8ZM111.82,45l2.63-12.54c.06-.29.21-.38.44-.33l.7.15c.21,0,.3.12.4.39l4.38,11.38h0l2.08-9.91c.07-.31.19-.38.42-.34l.85.18c.26.06.31.19.25.48L121.37,47c-.07.33-.17.39-.38.34l-.81-.17c-.21,0-.33-.17-.45-.48l-4.3-11.14h0l-2,9.77c-.06.27-.21.38-.44.33l-.81-.17C111.84,45.47,111.76,45.33,111.82,45Zm-9.08-13c0-.28.11-.39.35-.39l1,0c.23,0,.34.13.34.4l-.1,5.75h0L108.77,32a.59.59,0,0,1,.51-.25l1,0a.19.19,0,0,1,.21.2l-.06.16-4.72,6.12,5,6.71a.62.62,0,0,1,.14.32c0,.1-.07.16-.24.15l-1.22,0a.71.71,0,0,1-.68-.39l-4.39-6h0l-.11,5.9c0,.28-.12.41-.35.41l-1,0c-.23,0-.34-.14-.34-.42Zm-7.47.25a6.14,6.14,0,0,1,3.4.29c.16.07.24.12.26.23a.75.75,0,0,1,0,.24l-.15.77c0,.15-.09.22-.18.23l-.17,0a4.89,4.89,0,0,0-2.78-.3,3.49,3.49,0,0,0-2.55,2,6.72,6.72,0,0,0-.39,4.12c.53,2.92,2.21,5.34,4.92,4.85a6,6,0,0,0,2.63-1.22c.14-.13.29-.11.42.11l.34.56a.38.38,0,0,1-.1.58,7.36,7.36,0,0,1-3.27,1.46c-3.7.67-6-2.12-6.68-5.92S91.73,32.91,95.27,32.27ZM81.41,36.35,82.3,36a.32.32,0,0,1,.39.1l8.86,10.51c.15.18.22.36-.07.47l-1,.4c-.29.11-.39.09-.58-.16l-2.44-3L83.06,46l.19,3.9c0,.27,0,.37-.26.46l-1,.39c-.23.09-.28-.12-.29-.31l-.49-13.73A.35.35,0,0,1,81.41,36.35Zm-15.1,8.18.81-.51c.2-.13.37-.09.52.14l2.9,4.54,4.89-3.12L72.52,41c-.15-.23-.11-.4.09-.53l.82-.52c.2-.13.35-.08.5.15L80.84,51c.15.23.13.41-.06.54L80,52c-.2.13-.38.08-.53-.16l-3.24-5.08L71.3,49.9,74.54,55c.15.23.12.42-.08.54l-.8.51c-.2.13-.38.08-.53-.16L66.22,45.05C66.07,44.82,66.11,44.65,66.31,44.52Z"/><polygon class="cls-1" points="156.44 142.2 156.44 142.2 156.44 142.2 156.44 142.2"/><path class="cls-1" d="M106,28.35a65.08,65.08,0,0,1,63.46,51h1.73a66.66,66.66,0,0,0-130.38,0h1.73A65.08,65.08,0,0,1,106,28.35Z"/><path class="cls-1" d="M92.64,24.31h0Z"/><path class="cls-1" d="M87,25.65l.08,0,.25-.07-.25.07Z"/><path class="cls-1" d="M105.84,23h0Z"/><path class="cls-1" d="M150.75,39.19l.24.2.52.44-.52-.45Z"/><path class="cls-1" d="M150.24,38.77l.11.09-.11-.09Z"/><path class="cls-1" d="M61.71,38.77h0l-.25.2Z"/><path class="cls-1" d="M124.24,25.45l.14,0,.09,0-.09,0Z"/><path class="cls-1" d="M106,25A68.47,68.47,0,0,1,172.9,79.4h0a68.36,68.36,0,0,0-133.85,0h0A68.47,68.47,0,0,1,106,25Z"/><path class="cls-1" d="M106,50.29A43.1,43.1,0,0,1,146.69,79.4h1.78a44.71,44.71,0,0,0-85,0h1.78A43.1,43.1,0,0,1,106,50.29Z"/><path class="cls-1" d="M106,139.74a46.49,46.49,0,0,1-44.68-33.9H43.93a63.29,63.29,0,0,0,124.08,0H150.66A46.49,46.49,0,0,1,106,139.74Zm-55.7-21.91c-1.27-3.12.25-5.87,4-7.38s6.94-.41,8.17,2.62c1.31,3.21-.42,6-3.95,7.4C54.6,122,51.46,120.74,50.27,117.83Zm10.05,8.26-.71-1L56,127.59a.33.33,0,0,1-.52-.1l-.58-.83a.33.33,0,0,1,.11-.51l9.7-6.81c.21-.15.37-.14.52.07l1.42,2c1,1.45,1.55,2.87,1.22,4.16a3.67,3.67,0,0,1-1.53,2.09C64.1,129.24,61.82,128.22,60.32,126.09ZM67,134l-.89-.89L63,136.32a.33.33,0,0,1-.53,0l-.73-.71a.33.33,0,0,1,0-.53L70,126.57c.18-.18.33-.21.52,0l1.77,1.71c1.27,1.23,2.06,2.53,2,3.85a3.66,3.66,0,0,1-1.11,2.34C71.31,136.41,68.87,135.84,67,134Zm7.16,11.83C71.3,144.11,70.9,141,73,137.58s5.35-4.43,8.14-2.71c3,1.81,3.19,5.06,1.19,8.3C80.15,146.71,76.84,147.52,74.17,145.87ZM93,144.27a3.65,3.65,0,0,1-3.63,2.46v0l1.28,5.72c.05.19-.05.39-.3.3l-1.07-.37a.58.58,0,0,1-.45-.5l-1.12-5.46-1.71-.59-1.53,4.49a.33.33,0,0,1-.46.25l-1-.33c-.23-.08-.3-.24-.21-.48l3.83-11.2c.09-.28.22-.35.49-.26l2.56.88c1.6.55,2.87,1.33,3.33,2.53A3.6,3.6,0,0,1,93,144.27Zm11-1.7-.22.73c-.07.25-.25.26-.51.22l-3.48-.5-1.56,10.8c0,.25-.15.35-.39.31L96.82,154c-.24,0-.32-.16-.28-.41l1.56-10.8-3.59-.52c-.22,0-.29-.12-.26-.33l.11-.76c0-.22.11-.26.32-.23l9.11,1.32C104,142.27,104.08,142.39,104,142.57Zm6.85,12.14c-4.07.31-5.33-1.84-5.6-5.4l-.5-6.61a.32.32,0,0,1,.33-.39l1-.08c.26,0,.37.1.38.34L107,149c.18,2.45.66,4.51,3.77,4.27s3.21-2.44,3-4.8l-.48-6.43a.33.33,0,0,1,.35-.39l1-.08c.26,0,.37.1.38.34l.51,6.72C115.85,152,114.6,154.43,110.89,154.71Zm19.28-4.7-.82.28a.65.65,0,0,1-.65-.15l-9.4-6.61h0l3,8.75a.34.34,0,0,1-.23.48l-.82.28c-.25.08-.39,0-.48-.24l-3.79-11.23a.33.33,0,0,1,.23-.48l.71-.24a.5.5,0,0,1,.55.1l9.59,6.76h0l-3-8.87c-.09-.28,0-.4.22-.48l.86-.29c.27-.09.37,0,.46.25l3.79,11.23C130.44,149.84,130.38,149.94,130.17,150Zm7.75-4.2-3.48,2a.24.24,0,0,1-.38-.1l-.31-.54c-.09-.16-.08-.25.12-.36l1-.56-5.12-9-1,.6c-.18.1-.27.09-.37-.08l-.3-.53a.23.23,0,0,1,.09-.37l3.53-2c.21-.12.32-.08.4.06l.29.51c.13.22.08.29-.13.41l-1,.57,5.12,9,1-.56c.2-.11.33-.06.41.08l.29.51C138.1,145.6,138.09,145.71,137.91,145.81Zm6.88-5-.83.68c-.19.16-.33.13-.49-.07L136.56,133l-2.81,2.3c-.17.14-.28.13-.42,0l-.49-.59c-.14-.17-.12-.26,0-.39l7.12-5.83c.19-.15.32-.12.42,0l.39.65c.13.22,0,.36-.18.52l-2.72,2.23,6.92,8.44C145,140.52,145,140.67,144.8,140.82Zm8.12-8.2-2.62,3a.24.24,0,0,1-.39,0l-.47-.41c-.14-.12-.16-.21,0-.38l.74-.85-7.81-6.76-.79.91c-.14.16-.23.18-.38,0l-.46-.4a.23.23,0,0,1,0-.38l2.66-3.08c.16-.19.28-.18.4-.07l.44.38c.19.17.17.25,0,.43l-.75.87,7.81,6.76.74-.85c.15-.17.29-.17.42-.06l.44.38C153,132.36,153.06,132.46,152.92,132.62Zm6.22-9.34-3.41,5.61c-.17.27-.27.3-.53.14l-10.14-6.16c-.22-.13-.26-.27-.13-.5l3.44-5.66c.15-.24.28-.21.45-.08l.56.43c.21.15.15.31,0,.58l-2.57,4.23,3.43,2.08,2.3-3.78c.14-.23.29-.26.48-.15l.56.34c.22.13.23.25.1.48l-2.3,3.8,3.94,2.4,2.7-4.44c.15-.24.28-.29.47-.18l.59.36C159.25,122.9,159.29,123,159.14,123.28Zm-7-14.2.61.52a.27.27,0,0,1,.1.32l-.13.19a6.64,6.64,0,0,0-1.32,2.06c-.36,1-.33,2.3.82,2.72a2.16,2.16,0,0,0,2.27-.73l1.67-1.53c1.23-1.12,2.46-1.83,4.06-1.25,2.26.82,2.69,3.16,1.9,5.34a10.63,10.63,0,0,1-1.56,2.8.34.34,0,0,1-.51.07l-.69-.51c-.2-.15-.17-.34,0-.52a8,8,0,0,0,1.41-2.33c.44-1.2.35-2.68-1-3.17a2.42,2.42,0,0,0-2.53.84l-2,1.82a3.38,3.38,0,0,1-3.5.93c-2-.72-2.36-3-1.68-4.86a7.42,7.42,0,0,1,1.54-2.62c.13-.15.26-.23.39-.18Z"/><path class="cls-1" d="M106,136.36A43.11,43.11,0,0,1,64.8,105.84H63a44.71,44.71,0,0,0,85.86,0h-1.75A43.11,43.11,0,0,1,106,136.36Z"/><path class="cls-1" d="M61.08,113.57c-.82-2-3.31-2.58-6.1-1.44-3,1.21-4.23,3.15-3.38,5.24s3.19,2.58,6.11,1.39S61.94,115.7,61.08,113.57Z"/><path class="cls-1" d="M89.2,140.42,88.06,140l-1.59,4.64,1.37.47c1.57.54,3,.11,3.51-1.43C91.94,142,91,141,89.2,140.42Z"/><path class="cls-1" d="M65.56,122.14,65,121.3l-4.29,3,.68,1c1,1.49,2.4,2,3.93.94S66.62,123.65,65.56,122.14Z"/><path class="cls-1" d="M70.66,128.45,67,132.21l.85.85c1.31,1.27,2.74,1.53,4,.18s.82-2.8-.51-4.08Z"/><path class="cls-1" d="M69.35,79.17l.22,0,.72.19h3.93a.82.82,0,0,1,.1-.45.84.84,0,0,1,1.15-.31l1.31.76h3.38l-8.23-4.75a.84.84,0,1,1,.84-1.46L83.54,79.4h5.82q-.21-.42-.48-.84l-3.75-6.07,6.07,3.75a8,8,0,0,0,4,1.38,2.92,2.92,0,0,0,1.5-.37C98,76.52,98.63,74.6,98.56,72l-.2-7.12,3.38,6.26c1.24,2.31,2.79,3.63,4.25,3.63s3-1.32,4.25-3.63l3.38-6.26-.2,7.12c-.08,2.62.6,4.53,1.86,5.27a2.92,2.92,0,0,0,1.5.37,8,8,0,0,0,4-1.38l6.07-3.75-3.75,6.07c-.18.29-.33.57-.48.84h5.82l10.76-6.21a.84.84,0,1,1,.84,1.46l-8.22,4.75h3.37l1.31-.76a.84.84,0,0,1,1.15.31.82.82,0,0,1,.1.45h3.93l.72-.19.22,0a.84.84,0,0,1,.56.22h1.75A41.34,41.34,0,0,0,67,79.4H68.8A.83.83,0,0,1,69.35,79.17Zm65.86-11.51a.84.84,0,0,1,1.19,1.19l-1.19,1.19A.84.84,0,0,1,134,68.86ZM133.42,65a.84.84,0,0,1,.6,1.44l-3.58,3.58a.84.84,0,1,1-1.19-1.19l3.58-3.58A.84.84,0,0,1,133.42,65Zm-4.18-.95,1.19-1.19a.84.84,0,1,1,1.19,1.19l-1.19,1.19a.84.84,0,1,1-1.19-1.19Zm-2,12.08,5.85-3.38a.84.84,0,0,1,.84,1.46l-5.85,3.38a.83.83,0,0,1-.42.11.84.84,0,0,1-.42-1.58Zm-.74-10-3.38,5.85a.84.84,0,1,1-1.46-.84L125,65.36a.84.84,0,0,1,1.46.84Zm-1.12-7.34a.84.84,0,0,1,.73,1.27l-8.44,14.62a.84.84,0,1,1-1.46-.84l8.44-14.62A.84.84,0,0,1,125.39,58.87Zm-4.73,4-3.38,5.85a.84.84,0,1,1-1.46-.84L119.2,62a.84.84,0,1,1,1.46.84ZM118,58.12l.44-1.63a.84.84,0,0,1,.82-.63l.22,0a.85.85,0,0,1,.6,1l-.44,1.63a.84.84,0,0,1-.81.63l-.22,0A.84.84,0,0,1,118,58.12ZM113.9,60.5l1.31-4.89A.85.85,0,0,1,116,55l.22,0a.84.84,0,0,1,.6,1l-1.31,4.89a.84.84,0,0,1-.81.63l-.22,0A.84.84,0,0,1,113.9,60.5Zm-2.39-4.13.44-1.63a.85.85,0,0,1,.82-.63l.22,0a.84.84,0,0,1,.6,1l-.44,1.63a.84.84,0,0,1-.81.63l-.22,0A.84.84,0,0,1,111.51,56.37Zm-3,3.2a.84.84,0,0,1,1.69,0v6.75a.84.84,0,0,1-1.69,0Zm-3.38-5.06a.84.84,0,0,1,1.69,0V71.39a.84.84,0,0,1-1.69,0Zm-3.37,5.06a.84.84,0,1,1,1.69,0v6.75a.84.84,0,1,1-1.69,0ZM99,54.14l.22,0a.84.84,0,0,1,.81.63l.44,1.63a.84.84,0,0,1-.6,1l-.22,0a.84.84,0,0,1-.81-.63l-.44-1.63A.84.84,0,0,1,99,54.14ZM95.71,55l.22,0a.84.84,0,0,1,.81.63l1.31,4.89a.84.84,0,0,1-.6,1l-.22,0a.84.84,0,0,1-.82-.63L95.11,56A.84.84,0,0,1,95.71,55Zm-3.26.87.22,0a.84.84,0,0,1,.81.63l.44,1.63a.84.84,0,0,1-.6,1l-.22,0a.84.84,0,0,1-.81-.63l-.44-1.63A.84.84,0,0,1,92.45,55.89Zm-.85,5.79a.84.84,0,0,1,1.15.31l3.38,5.85a.84.84,0,0,1-1.46.84l-3.38-5.85A.84.84,0,0,1,91.6,61.68ZM86.14,59a.84.84,0,0,1,1.15.31L95.74,73.9a.84.84,0,0,1-1.46.84L85.84,60.13A.84.84,0,0,1,86.14,59Zm-.39,6.07a.84.84,0,0,1,1.15.31l3.38,5.85a.84.84,0,1,1-1.46.84L85.44,66.2A.85.85,0,0,1,85.75,65.05ZM85,77.32a.84.84,0,0,1-1.15.31L78,74.26a.84.84,0,0,1,.84-1.46l5.85,3.38A.84.84,0,0,1,85,77.32ZM80.32,62.89a.84.84,0,0,1,1.19,0l1.19,1.19a.84.84,0,1,1-1.19,1.19l-1.19-1.19A.84.84,0,0,1,80.32,62.89Zm-2.39,2.39a.84.84,0,0,1,1.19,0l3.58,3.58a.84.84,0,1,1-1.19,1.19l-3.58-3.58A.84.84,0,0,1,77.93,65.28Zm-2.39,2.39a.84.84,0,0,1,1.19,0l1.19,1.19a.84.84,0,0,1-1.19,1.19l-1.19-1.19A.84.84,0,0,1,75.54,67.67Z"/><path class="cls-1" d="M41.8,64.67h0l.07-.15.27-.58-.27.58Z"/><path class="cls-1" d="M83,44.58l3.54-1.37-3-3.71c-.45-.57-.73-.93-.9-1.16h0c0,.33.06.74.11,1.51Z"/><path class="cls-1" d="M42.43,63.32l.35-.74h0Z"/><path d="M52.91,47.29h0L46.7,42.08a1.14,1.14,0,0,0-.73-.25,1.15,1.15,0,0,0-.76,2l6.21,5.21h0Q52.15,48.16,52.91,47.29Z"/><path d="M41.87,64.52l.27-.58.13-.28.17-.35.35-.74h0l-7.33-3.42a1.14,1.14,0,0,0-.46-.1,1.18,1.18,0,0,0-1.07.66,1.16,1.16,0,0,0,.56,1.53l7.32,3.41h0Z"/><path d="M57.12,42.85l-5.73-5.74a1.12,1.12,0,0,0-.81-.33,1.14,1.14,0,0,0-.82,2l5.74,5.73.18-.18h0l.23-.23Q56.51,43.44,57.12,42.85Z"/><path d="M49.09,52.09l-6.64-4.64a1.12,1.12,0,0,0-.65-.2,1.16,1.16,0,0,0-1,.48,1.21,1.21,0,0,0-.2.86,1.24,1.24,0,0,0,.47.75L47.77,54C48.2,53.34,48.64,52.71,49.09,52.09Z"/><path d="M97.94,2.66H98a1.15,1.15,0,0,0-.09-2.3h-.11a1.15,1.15,0,0,0-1,1.24A1.16,1.16,0,0,0,97.94,2.66Z"/><path d="M92.64,24.31h.07q1.09-.21,2.2-.39h0L93.51,16a1.16,1.16,0,0,0-1.13-1l-.2,0a1.12,1.12,0,0,0-.75.47,1.14,1.14,0,0,0-.18.86l1.4,7.94h0Z"/><path d="M27.68,107.13a1.15,1.15,0,0,0,1.13,1l.21,0,7.94-1.4c-.05-.27-.1-.55-.14-.82H28.45A1.15,1.15,0,0,0,27.68,107.13Z"/><path d="M32.74,65.44a1.12,1.12,0,0,0-.37-.06,1.18,1.18,0,0,0-1.1.75A1.15,1.15,0,0,0,32,67.61l7.58,2.76c.18-.53.38-1.05.58-1.58.07-.2.14-.4.22-.59Z"/><path d="M37.82,76.14c.18-.71.37-1.42.57-2.12L30.6,71.93a1.11,1.11,0,0,0-.29,0,1.18,1.18,0,0,0-1.13.85,1.16,1.16,0,0,0,.12.88,1.15,1.15,0,0,0,.7.54l7.79,2.08h0Z"/><path d="M29,78.59l-.21,0a1.13,1.13,0,0,0-1.08.83h5.88Z"/><path d="M127.44,13.19a.94.94,0,0,0,.31,0,1.16,1.16,0,0,0,1.11-.85l.6-2.23a1.15,1.15,0,0,0-.82-1.41,1.08,1.08,0,0,0-.28,0,1.19,1.19,0,0,0-1.13.85l-.59,2.22a1.11,1.11,0,0,0,.12.88A1.13,1.13,0,0,0,127.44,13.19Z"/><path d="M118.38,24.14l.93.17,1.4-7.94a1.14,1.14,0,0,0-.18-.86,1.12,1.12,0,0,0-.75-.47l-.2,0a1.16,1.16,0,0,0-1.13,1L117,23.91l.83.14Z"/><path d="M113.91,2.65H114a1.17,1.17,0,0,0,1.15-1.06,1.18,1.18,0,0,0-.27-.84,1.13,1.13,0,0,0-.78-.4H114a1.15,1.15,0,0,0-.09,2.3Z"/><path d="M98.35,6.1a1.14,1.14,0,0,0-.78.4,1.1,1.1,0,0,0-.27.84l.2,2.29a1.16,1.16,0,0,0,1.15,1.06h.1a1.14,1.14,0,0,0,1-1.24l-.2-2.29a1.14,1.14,0,0,0-1.12-1.05Z"/><path d="M120.38,11.63l.21,0a1.15,1.15,0,0,0,1.13-1l.4-2.27a1.17,1.17,0,0,0-.93-1.34l-.19,0a1.16,1.16,0,0,0-1.14,1l-.4,2.26A1.15,1.15,0,0,0,120.38,11.63Z"/><path d="M121.78,3.69l.2,0a1.16,1.16,0,0,0,.21-2.29l-.21,0a1.15,1.15,0,0,0-.2,2.29Z"/><path d="M123.05,25.14l1.19.31.14,0,.09,0,.81.22L127.37,18a1.21,1.21,0,0,0-.12-.88,1.13,1.13,0,0,0-1-.58,1.18,1.18,0,0,0-1.13.86l-2.08,7.79h0Z"/><path d="M113.21,10.68h.09a1.16,1.16,0,0,0,1.15-1.06l.2-2.29a1.14,1.14,0,0,0-1-1.24h-.12a1.15,1.15,0,0,0-1.12,1.05l-.2,2.29A1.14,1.14,0,0,0,113.21,10.68Z"/><path d="M105.84,23h1.29V15a1.15,1.15,0,0,0-2.3,0v8.08h1Z"/><path d="M101,23.22l-.7-8a1.16,1.16,0,0,0-1.14-1.05h-.1a1.16,1.16,0,0,0-1,1.26l.7,8h0C99.47,23.34,100.23,23.27,101,23.22Z"/><path d="M113.24,23.42l.7-8a1.11,1.11,0,0,0-.26-.84,1.15,1.15,0,0,0-.78-.41h-.11a1.14,1.14,0,0,0-1.14,1.05l-.7,8,1.71.14Z"/><path d="M106,10.37a1.16,1.16,0,0,0,1.15-1.15V6.91a1.15,1.15,0,0,0-2.3,0v2.3A1.16,1.16,0,0,0,106,10.37Z"/><circle cx="105.98" cy="1.15" r="1.15"/><path d="M90.77,7.09a1.17,1.17,0,0,0-.93,1.34l.4,2.27a1.15,1.15,0,0,0,1.13,1l.21,0a1.15,1.15,0,0,0,.93-1.34L92.1,8a1.16,1.16,0,0,0-1.15-1Z"/><path d="M75.34,12.51l.78,2.17a1.15,1.15,0,0,0,1.08.76,1.12,1.12,0,0,0,.39-.07,1.11,1.11,0,0,0,.66-.59,1.18,1.18,0,0,0,0-.89l-.78-2.17A1.19,1.19,0,0,0,76.4,11,1.09,1.09,0,0,0,76,11a1.2,1.2,0,0,0-.66.6A1.15,1.15,0,0,0,75.34,12.51Z"/><path d="M69.85,33.06l1.53-.89.47-.27h0l-4-7a1.2,1.2,0,0,0-1-.57,1.12,1.12,0,0,0-.55.14,1.16,1.16,0,0,0-.43,1.58Z"/><path d="M62.92,21.06a1.16,1.16,0,0,0,1,.58,1.26,1.26,0,0,0,.58-.15,1.18,1.18,0,0,0,.54-.7,1.11,1.11,0,0,0-.13-.88l-1.15-2a1.18,1.18,0,0,0-1-.57,1.08,1.08,0,0,0-.55.15,1.18,1.18,0,0,0-.54.7,1.16,1.16,0,0,0,.12.88Z"/><path d="M69.38,17.58a1.17,1.17,0,0,0,1,.67,1,1,0,0,0,.48-.12,1.14,1.14,0,0,0,.6-.65,1.11,1.11,0,0,0,0-.87l-1-2.1a1.19,1.19,0,0,0-1.06-.66A1.1,1.1,0,0,0,69,14a1.15,1.15,0,0,0-.55,1.53Z"/><path d="M75.28,30.11l.11-.06,1.28-.6.64-.3h0l-3.41-7.32a1.18,1.18,0,0,0-1.06-.66,1.09,1.09,0,0,0-.47.11,1.15,1.15,0,0,0-.56,1.52l3.42,7.33h0Z"/><path d="M74.45,7.87a1,1,0,0,0,.39-.08,1.16,1.16,0,0,0,.69-1.47,1.2,1.2,0,0,0-1.11-.75,1.08,1.08,0,0,0-.37.06,1.16,1.16,0,0,0,.39,2.25Z"/><path d="M67,10.95a1.17,1.17,0,0,0,1-1.65A1.19,1.19,0,0,0,67,8.64a1.11,1.11,0,0,0-.47.1,1.15,1.15,0,0,0,.48,2.2Z"/><path d="M66.62,35.12,62,28.48A1.16,1.16,0,0,0,61,28a1.12,1.12,0,0,0-.65.2,1.14,1.14,0,0,0-.47.75,1.13,1.13,0,0,0,.2.85l4.64,6.64c.62-.45,1.25-.89,1.88-1.32Z"/><path d="M51,29.63a1.14,1.14,0,0,0,.89.41,1.11,1.11,0,0,0,.74-.28,1.14,1.14,0,0,0,.4-.77,1.11,1.11,0,0,0-.27-.84l-1.47-1.77a1.17,1.17,0,0,0-.89-.39,1.14,1.14,0,0,0-1.15,1,1.17,1.17,0,0,0,.27.84Z"/><path d="M61.11,39.26l.35-.29.25-.2h0l-5.21-6.2a1.16,1.16,0,0,0-.9-.4,1.14,1.14,0,0,0-.73.25A1.16,1.16,0,0,0,54.73,34l5.21,6.21h0Z"/><path d="M53.1,19a1.24,1.24,0,0,0,.67-.21,1.15,1.15,0,0,0,.28-1.6,1.16,1.16,0,0,0-1-.49,1.11,1.11,0,0,0-.64.2A1.15,1.15,0,0,0,53.1,19Z"/><path d="M59.89,14.66a1.12,1.12,0,0,0,.58-.16,1.14,1.14,0,0,0,.43-1.57,1.2,1.2,0,0,0-1-.57,1.08,1.08,0,0,0-.55.15,1.18,1.18,0,0,0-.54.7,1.15,1.15,0,0,0,1.12,1.45Z"/><path d="M56.79,25.08a1.15,1.15,0,0,0,1.6.29,1.09,1.09,0,0,0,.47-.74,1.14,1.14,0,0,0-.18-.86l-1.32-1.89a1.17,1.17,0,0,0-1.6-.28,1.16,1.16,0,0,0-.29,1.6Z"/><path d="M82.61,9.29a1.14,1.14,0,0,0-.12.86l.6,2.23a1.16,1.16,0,0,0,1.11.85.83.83,0,0,0,.3,0,1.13,1.13,0,0,0,.7-.53,1.11,1.11,0,0,0,.12-.88l-.6-2.22a1.17,1.17,0,0,0-1.12-.85,1.08,1.08,0,0,0-.28,0A1.14,1.14,0,0,0,82.61,9.29Z"/><path d="M47.82,132.76l-.06-.09-6.64,4.64a1.21,1.21,0,0,0-.47.75,1.16,1.16,0,0,0,.2.85,1.14,1.14,0,0,0,1.6.29l6.64-4.64-.14-.19-.22-.32c-.29-.41-.58-.81-.86-1.23Z"/><path d="M78.09,20.09l2.76,7.59q1.07-.41,2.16-.79l-2.76-7.58a1.18,1.18,0,0,0-1.1-.75,1.12,1.12,0,0,0-.37.06A1.16,1.16,0,0,0,78.09,20.09Z"/><path d="M56.51,143.2c-.34-.34-.68-.67-1-1l-5.73,5.73a1.15,1.15,0,0,0,.82,2,1.12,1.12,0,0,0,.81-.33l5.73-5.74h0Z"/><path d="M51.82,138.08l-.11-.14-.28-.34-6.2,5.2a1.15,1.15,0,0,0-.15,1.62,1.14,1.14,0,0,0,1.63.14l6.21-5.21-.36-.42-.55-.65Z"/><path d="M32.35,121.28a1.12,1.12,0,0,0,.39-.07l7.59-2.76q-.41-1.07-.79-2.16L32,119a1.15,1.15,0,0,0-.69,1.47A1.17,1.17,0,0,0,32.35,121.28Z"/><path d="M41.8,122l-7.32,3.41a1.13,1.13,0,0,0-.6.65A1.15,1.15,0,0,0,35,127.59a1.14,1.14,0,0,0,.48-.12l7.33-3.41h0Q42.27,123,41.8,122Z"/><path d="M44.55,127.46l-7,4a1.18,1.18,0,0,0-.54.7,1.15,1.15,0,0,0,1.12,1.45,1.14,1.14,0,0,0,.58-.16l7-4,0,0-.47-.8-.27-.47-.39-.68Z"/><path d="M37.92,110.9l-.13-.5L30,112.49a1.16,1.16,0,0,0-.82,1.42,1.17,1.17,0,0,0,1.12.85.88.88,0,0,0,.3,0l7.79-2.08c-.09-.32-.17-.63-.26-1l-.16-.57Z"/><path d="M129.54,5.4a1.23,1.23,0,0,0,.3,0,1.16,1.16,0,0,0,1.11-.86,1.14,1.14,0,0,0-.12-.86,1.11,1.11,0,0,0-.7-.54,1.06,1.06,0,0,0-.28,0,1.15,1.15,0,0,0-1,1.73A1.13,1.13,0,0,0,129.54,5.4Z"/><path d="M82.11,5.45a1.23,1.23,0,0,0,.3,0,1.13,1.13,0,0,0,.7-.53A1.17,1.17,0,0,0,83.23,4a1.18,1.18,0,0,0-1.12-.85,1.08,1.08,0,0,0-.28,0,1.11,1.11,0,0,0-.7.54,1.14,1.14,0,0,0-.12.86A1.16,1.16,0,0,0,82.11,5.45Z"/><path d="M87,25.65l.08,0,.25-.07,1.39-.37.2,0-2.08-7.79a1.19,1.19,0,0,0-1.13-.86,1.12,1.12,0,0,0-.28,0,1.17,1.17,0,0,0-.7.53,1.2,1.2,0,0,0-.12.89l2.09,7.79h0Z"/><path d="M90,3.71l.2,0A1.15,1.15,0,0,0,90,1.4l-.2,0A1.15,1.15,0,0,0,90,3.71Z"/><path d="M159.3,29.77A1.11,1.11,0,0,0,160,30a1.14,1.14,0,0,0,.89-.41l1.47-1.76a1.13,1.13,0,0,0-.87-1.88,1.17,1.17,0,0,0-.89.39l-1.47,1.77A1.14,1.14,0,0,0,159.3,29.77Z"/><path d="M156.44,142.2h0c-.53.54-1.06,1.08-1.61,1.61l5.73,5.74a1.15,1.15,0,0,0,2-.82,1.12,1.12,0,0,0-.33-.81l-5.73-5.73h0Z"/><path d="M175.13,105.93V106l-.13.67,7.94,1.4.21,0a1.15,1.15,0,0,0,.37-2.24h-8.36Z"/><path d="M162.19,38.74a1.14,1.14,0,0,0-.82-2,1.12,1.12,0,0,0-.81.33l-5.73,5.73c.55.53,1.09,1.07,1.62,1.62Z"/><path d="M183.13,78.57l-.2,0-4.59.81h5.88A1.15,1.15,0,0,0,183.13,78.57Z"/><path d="M172.41,70.37,180,67.61a1.18,1.18,0,0,0,.66-.59,1.16,1.16,0,0,0-1.07-1.64,1.08,1.08,0,0,0-.37.06l-7.59,2.76c.15.39.29.79.43,1.18s.24.65.36,1Z"/><path d="M169.77,63.85l.07.15.31.68,7.32-3.41a1.16,1.16,0,0,0,.56-1.53,1.19,1.19,0,0,0-1.07-.66,1.1,1.1,0,0,0-.46.1l-7.33,3.42.34.71.22.46Z"/><path d="M164.18,54l6.63-4.64a1.15,1.15,0,0,0,.29-1.61,1.19,1.19,0,0,0-1-.48,1.11,1.11,0,0,0-.64.2l-6.64,4.65c.22.31.44.63.66.94S164,53.66,164.18,54Z"/><path d="M169.4,123.59l-.23.48,7.33,3.41a1.15,1.15,0,1,0,1-2.08L170.15,122q-.3.67-.61,1.33Z"/><path d="M129.61,27.13l1.48.55,2.76-7.59a1.15,1.15,0,0,0-.69-1.47,1.12,1.12,0,0,0-.37-.06,1.18,1.18,0,0,0-1.1.75l-2.76,7.58Z"/><path d="M181.65,114.76a1.15,1.15,0,0,0,1-1.73,1.15,1.15,0,0,0-.7-.54l-7.79-2.08q-.28,1.12-.6,2.22l7.8,2.09A.84.84,0,0,0,181.65,114.76Z"/><path d="M171.91,117.66c-.1.26-.19.53-.29.79l7.59,2.76a1.14,1.14,0,0,0,.39.07A1.15,1.15,0,0,0,180,119l-7.58-2.76h0C172.25,116.74,172.08,117.2,171.91,117.66Z"/><path d="M174.83,133.08a1.17,1.17,0,0,0-.43-1.58l-7-4q-.56,1-1.15,2l7,4a1.14,1.14,0,0,0,.58.16A1.16,1.16,0,0,0,174.83,133.08Z"/><path d="M162.86,134.56l6.64,4.64a1.13,1.13,0,0,0,.66.21,1.15,1.15,0,0,0,.94-.5,1.18,1.18,0,0,0,.2-.85,1.22,1.22,0,0,0-.47-.75l-6.63-4.64-.12.17C163.67,133.42,163.27,134,162.86,134.56Z"/><path d="M165.25,42.08,159,47.29q.76.87,1.48,1.77l6.2-5.2a1.14,1.14,0,0,0-.74-2A1.14,1.14,0,0,0,165.25,42.08Z"/><path d="M195,70.62a1.28,1.28,0,0,0,.3,0,1.15,1.15,0,0,0,.82-1.41,1.18,1.18,0,0,0-1.12-.86,1.1,1.1,0,0,0-.28,0,1.15,1.15,0,0,0,.29,2.26Z"/><path d="M195.61,77.52a1.15,1.15,0,0,0,1.14,1l.2,0a1.15,1.15,0,0,0,.93-1.34,1.18,1.18,0,0,0-1.15-.95l-.19,0a1.24,1.24,0,0,0-.75.47A1.15,1.15,0,0,0,195.61,77.52Z"/><path d="M189.52,55.52a1.21,1.21,0,0,0,.48-.1,1.16,1.16,0,0,0,.55-1.53,1.18,1.18,0,0,0-1.07-.66,1.14,1.14,0,0,0-.46.1,1.16,1.16,0,0,0,.5,2.2Z"/><path d="M184.62,63.47a1.15,1.15,0,0,0-.69,1.47,1.14,1.14,0,0,0,1.08.76,1.19,1.19,0,0,0,.39-.07l2.17-.78a1.14,1.14,0,0,0,.65-.6,1.1,1.1,0,0,0,0-.88,1.19,1.19,0,0,0-1.1-.76,1,1,0,0,0-.38.07Z"/><path d="M192.21,78.12a1.18,1.18,0,0,0-1.15-.95l-.19,0-2.27.4a1.14,1.14,0,0,0-.93,1.34,1.11,1.11,0,0,0,.21.47h3.53A1.14,1.14,0,0,0,192.21,78.12Z"/><path d="M189.43,69.81a1.12,1.12,0,0,0-.28,0l-2.23.6a1.13,1.13,0,0,0-.69.54,1.11,1.11,0,0,0-.12.88,1.15,1.15,0,0,0,1.11.85,1.28,1.28,0,0,0,.3,0l2.22-.6a1.15,1.15,0,0,0,.82-1.41A1.18,1.18,0,0,0,189.43,69.81Z"/><path d="M189.15,116.81a1.27,1.27,0,0,0,.3,0,1.15,1.15,0,0,0,1-1.73,1.14,1.14,0,0,0-.7-.54l-2.22-.59a1,1,0,0,0-.3,0,1.15,1.15,0,0,0-.3,2.27Z"/><path d="M166,144.84a1.14,1.14,0,0,0,.89-.42,1.15,1.15,0,0,0-.15-1.62l-6.2-5.21q-.73.89-1.48,1.77l6.21,5.2A1.14,1.14,0,0,0,166,144.84Z"/><path d="M153.56,25.37a1.15,1.15,0,0,0,1.6-.29l1.32-1.88a1.16,1.16,0,0,0-.29-1.6,1.11,1.11,0,0,0-.65-.2,1.15,1.15,0,0,0-1,.48l-1.32,1.89a1.14,1.14,0,0,0-.19.86A1.1,1.1,0,0,0,153.56,25.37Z"/><path d="M151.49,14.49a1.11,1.11,0,0,0,.58.16,1.17,1.17,0,0,0,1-.58,1.16,1.16,0,0,0,.12-.88,1.18,1.18,0,0,0-.54-.7,1.07,1.07,0,0,0-.55-.15,1.15,1.15,0,0,0-1.14,1.45A1.16,1.16,0,0,0,151.49,14.49Z"/><path d="M46.73,23.87a1.17,1.17,0,0,0,.74-.28A1.15,1.15,0,0,0,47.61,22a1.17,1.17,0,0,0-.89-.39,1.15,1.15,0,0,0-.73.26,1.16,1.16,0,0,0-.14,1.62A1.14,1.14,0,0,0,46.73,23.87Z"/><path d="M147.45,21.49a1.26,1.26,0,0,0,.58.15,1.16,1.16,0,0,0,1-.58l1.15-2a1.21,1.21,0,0,0,.12-.88,1.18,1.18,0,0,0-.54-.7,1.08,1.08,0,0,0-.55-.15,1.2,1.2,0,0,0-1,.57l-1.15,2a1.16,1.16,0,0,0-.12.88A1.19,1.19,0,0,0,147.45,21.49Z"/><path d="M150.35,38.86l.11.09.28.24.24.2.52.45.49.42h0L157.21,34a1.15,1.15,0,0,0-.14-1.62,1.11,1.11,0,0,0-.72-.25,1.17,1.17,0,0,0-.9.4l-5.21,6.2h0Z"/><path d="M158.85,19a1.15,1.15,0,0,0,.66-2.1,1.12,1.12,0,0,0-.65-.2,1.16,1.16,0,0,0-1,.49,1.15,1.15,0,0,0,.28,1.6A1.23,1.23,0,0,0,158.85,19Z"/><path d="M146,35.6l1.07.76.12.08,4.64-6.64a1.15,1.15,0,0,0-.28-1.6,1.13,1.13,0,0,0-.65-.2,1.2,1.2,0,0,0-1,.48l-4.64,6.63.34.23Z"/><path d="M140.13,22.8a1.1,1.1,0,0,0,0-.88,1.14,1.14,0,0,0-.6-.64,1.12,1.12,0,0,0-.48-.11,1.17,1.17,0,0,0-1.06.66l-3.41,7.32q1.05.47,2.09,1Z"/><path d="M137.11,7.79a.91.91,0,0,0,.39.08,1.16,1.16,0,0,0,.39-2.25,1.08,1.08,0,0,0-.37-.06,1.19,1.19,0,0,0-1.11.75A1.15,1.15,0,0,0,137.11,7.79Z"/><path d="M144.45,10.83a1.15,1.15,0,0,0,.48.12,1.15,1.15,0,0,0,.48-2.2,1.08,1.08,0,0,0-.46-.1,1.2,1.2,0,0,0-1.07.66A1.16,1.16,0,0,0,144.45,10.83Z"/><path d="M141,18.13a1,1,0,0,0,.48.12,1.17,1.17,0,0,0,1-.67l1-2.09a1.1,1.1,0,0,0,0-.88A1.13,1.13,0,0,0,143,14a1.1,1.1,0,0,0-.47-.1,1.17,1.17,0,0,0-1.06.66l-1,2.1a1.11,1.11,0,0,0,0,.87A1.14,1.14,0,0,0,141,18.13Z"/><path d="M142.1,33.06h0l4-7a1.16,1.16,0,0,0-.42-1.58,1.12,1.12,0,0,0-.55-.14,1.2,1.2,0,0,0-1,.57l-4,7,.47.27.63.36Z"/><path d="M134.35,15.37a1.12,1.12,0,0,0,.39.07,1.16,1.16,0,0,0,1.08-.76l.78-2.17a1.16,1.16,0,0,0,0-.88,1.2,1.2,0,0,0-.66-.6,1.07,1.07,0,0,0-.36-.06,1.2,1.2,0,0,0-1.11.75l-.78,2.17a1.19,1.19,0,0,0,0,.89A1.1,1.1,0,0,0,134.35,15.37Z"/><path d="M176.58,35.23a1.17,1.17,0,0,0,.75-.28,1.13,1.13,0,0,0,.4-.78,1.12,1.12,0,0,0-1.15-1.23,1.15,1.15,0,0,0,0,2.29Z"/><path d="M181.48,41.6h0a1.08,1.08,0,0,0,.65-.21,1.15,1.15,0,0,0,.48-.74,1.19,1.19,0,0,0-.2-.86,1.16,1.16,0,0,0-1-.48,1.12,1.12,0,0,0-.65.2,1.1,1.1,0,0,0-.47.74,1.15,1.15,0,0,0,.19.86A1.18,1.18,0,0,0,181.48,41.6Z"/><path d="M177.81,51.85a1.15,1.15,0,0,0,1,.58,1.1,1.1,0,0,0,.58-.16l2-1.15a1.15,1.15,0,0,0,.43-1.57,1.19,1.19,0,0,0-1-.57,1.15,1.15,0,0,0-.56.14l-2,1.15a1.18,1.18,0,0,0-.54.7A1.16,1.16,0,0,0,177.81,51.85Z"/><path d="M181.15,58.27a1.17,1.17,0,0,0,1,.67,1,1,0,0,0,.48-.12l2.1-1a1.15,1.15,0,0,0,.55-1.53,1.19,1.19,0,0,0-1.06-.66,1.1,1.1,0,0,0-.47.1l-2.09,1A1.16,1.16,0,0,0,181.15,58.27Z"/><path d="M185.8,48.39a1.23,1.23,0,0,0,.58-.15,1.16,1.16,0,0,0,.43-1.58,1.2,1.2,0,0,0-1-.57,1.11,1.11,0,0,0-.55.14,1.16,1.16,0,0,0-.53.7,1.12,1.12,0,0,0,.12.88A1.14,1.14,0,0,0,185.8,48.39Z"/><path d="M164.48,23.6a1.17,1.17,0,0,0,.74.28,1.14,1.14,0,0,0,.89-.42,1.16,1.16,0,0,0-.14-1.62,1.15,1.15,0,0,0-.73-.26,1.17,1.17,0,0,0-.89.39,1.16,1.16,0,0,0,.14,1.62Z"/><path d="M170.4,40.42a1.17,1.17,0,0,0,.74-.28l1.77-1.47a1.15,1.15,0,0,0-.76-2,1.13,1.13,0,0,0-.73.25l-1.76,1.49a1.15,1.15,0,0,0-.41.78,1.19,1.19,0,0,0,.26.84A1.16,1.16,0,0,0,170.4,40.42Z"/><path d="M164.63,33a1.15,1.15,0,0,0,.82,2,1.12,1.12,0,0,0,.81-.33L167.89,33a1.15,1.15,0,0,0,0-1.62,1.15,1.15,0,0,0-.82-.33,1.13,1.13,0,0,0-.81.33Z"/><path d="M171.15,29.3A1.16,1.16,0,0,0,172,29a1.17,1.17,0,1,0-.82.33Z"/><path d="M167.4,59.2h0l7-4a1.17,1.17,0,0,0,.54-.7,1.15,1.15,0,0,0-.11-.88,1.2,1.2,0,0,0-1-.57,1.12,1.12,0,0,0-.55.14l-7,4,.21.35.34.6.52.91Z"/><path d="M174.88,46.24a1.11,1.11,0,0,0,.66-.21l1.89-1.32a1.14,1.14,0,0,0,.47-.75,1.09,1.09,0,0,0-.19-.85,1.16,1.16,0,0,0-1-.49,1.1,1.1,0,0,0-.64.2l-1.89,1.32a1.16,1.16,0,0,0,.67,2.1Z"/><path d="M181.63,71.9a1.15,1.15,0,0,0-.28,0L173.56,74l.12.44c.17.6.32,1.19.48,1.79l7.79-2.08a1.16,1.16,0,0,0,.82-1.42A1.18,1.18,0,0,0,181.63,71.9Z"/><path d="M127.37,168.7l-2.09-7.79-.37.11-1.86.49,2.09,7.79a1.16,1.16,0,0,0,1.12.85,1.31,1.31,0,0,0,.3,0A1.17,1.17,0,0,0,127.37,168.7Z"/><path d="M45.69,34.67a1.1,1.1,0,0,0,.81.33,1.15,1.15,0,0,0,.82-2l-1.64-1.64A1.15,1.15,0,0,0,44.06,33Z"/><path d="M82.41,181.25a1.09,1.09,0,0,0-.3,0,1.16,1.16,0,0,0-1.11.86,1.09,1.09,0,0,0,.12.86,1.11,1.11,0,0,0,.7.54,1.27,1.27,0,0,0,.3,0,1.14,1.14,0,0,0,1.11-.85,1.16,1.16,0,0,0-.12-.88A1.13,1.13,0,0,0,82.41,181.25Z"/><path d="M114,184h-.12a1.15,1.15,0,0,0-1,1.24,1.13,1.13,0,0,0,1.14,1h.1A1.15,1.15,0,0,0,114,184Z"/><path d="M121.18,179.56a1.15,1.15,0,0,0,.93-1.33l-.4-2.27a1.16,1.16,0,0,0-1.15-1l-.19,0a1.17,1.17,0,0,0-.93,1.34l.4,2.27a1.15,1.15,0,0,0,1.13,1Z"/><path d="M119.78,171.62a1.16,1.16,0,0,0,.93-1.34l-1.4-7.94q-1.13.22-2.27.4l1.4,7.94a1.16,1.16,0,0,0,1.14,1Z"/><path d="M129.82,181.21a1.16,1.16,0,0,0-1,.57,1.16,1.16,0,0,0-.12.88,1.15,1.15,0,0,0,1.11.85,1.33,1.33,0,0,0,.3,0,1.12,1.12,0,0,0,.7-.54,1.08,1.08,0,0,0,.12-.87A1.16,1.16,0,0,0,129.82,181.21Z"/><path d="M142.57,169.07a1.18,1.18,0,0,0-1.07-.66,1.14,1.14,0,0,0-.46.1,1.2,1.2,0,0,0-.6.66,1.16,1.16,0,0,0,0,.88l1,2.1a1.15,1.15,0,0,0,1,.66,1.21,1.21,0,0,0,.48-.1,1.2,1.2,0,0,0,.6-.66,1.1,1.1,0,0,0,0-.87Z"/><path d="M144.91,175.72a1.08,1.08,0,0,0-.46.1,1.16,1.16,0,0,0-.56,1.53,1.19,1.19,0,0,0,1,.67,1.17,1.17,0,0,0,.48-.12,1.14,1.14,0,0,0,.6-.65,1.18,1.18,0,0,0,0-.89A1.2,1.2,0,0,0,144.91,175.72Z"/><path d="M134.63,157.5h0l3.41,7.32a1.16,1.16,0,0,0,1,.67,1,1,0,0,0,.48-.12,1.16,1.16,0,0,0,.57-1.53l-3.41-7.32h0C136,156.86,135.33,157.19,134.63,157.5Z"/><path d="M128.93,159.76l2.76,7.58a1.14,1.14,0,0,0,2.12.09,1.1,1.1,0,0,0,0-.88L131.1,159h0C130.38,159.24,129.66,159.51,128.93,159.76Z"/><path d="M137.49,178.8a1.07,1.07,0,0,0-.38.07,1.16,1.16,0,0,0-.69,1.47,1.17,1.17,0,0,0,1.08.76,1.13,1.13,0,0,0,.39-.08,1.1,1.1,0,0,0,.66-.59,1.15,1.15,0,0,0-1.06-1.63Z"/><path d="M136.61,174.13l-.78-2.16a1.19,1.19,0,0,0-1.1-.76,1.11,1.11,0,0,0-.38.07,1.15,1.15,0,0,0-.68,1.47l.78,2.16a1.17,1.17,0,0,0,1.08.76,1.11,1.11,0,0,0,.39-.07A1.16,1.16,0,0,0,136.61,174.13Z"/><path d="M104.82,163.6v8.07a1.15,1.15,0,1,0,2.31,0V163.6h-2.31Z"/><path d="M113.6,180.56a1.14,1.14,0,0,0,.78-.41,1.09,1.09,0,0,0,.27-.84l-.2-2.29a1.14,1.14,0,0,0-1.12-1.06h-.14a1.09,1.09,0,0,0-.77.4,1.07,1.07,0,0,0-.26.84l.2,2.29a1.15,1.15,0,0,0,1.15,1Z"/><path d="M91.57,175l-.19,0a1.16,1.16,0,0,0-1.15,1l-.4,2.27a1.15,1.15,0,0,0,.93,1.33l.21,0a1.15,1.15,0,0,0,1.13-1l.4-2.27A1.17,1.17,0,0,0,91.57,175Z"/><path d="M91.24,170.28a1.16,1.16,0,0,0,.93,1.34l.2,0a1.16,1.16,0,0,0,1.14-1l1.4-7.94q-1.14-.18-2.27-.4Z"/><path d="M84.5,173.46a1.09,1.09,0,0,0-.3,0,1.16,1.16,0,0,0-1.11.85l-.6,2.23a1.16,1.16,0,0,0,.82,1.41,1.33,1.33,0,0,0,.3,0,1.16,1.16,0,0,0,1.12-.85l.59-2.22a1.12,1.12,0,0,0-.12-.87A1.14,1.14,0,0,0,84.5,173.46Z"/><path d="M88.62,161.44l-1.42-.38-.53-.15-2.09,7.79a1.17,1.17,0,0,0,.82,1.42,1.31,1.31,0,0,0,.3,0,1.16,1.16,0,0,0,1.12-.85l2.09-7.79-.23-.06h0Z"/><path d="M98,184h-.1a1.17,1.17,0,0,0-1.14,1.05,1.15,1.15,0,0,0,1,1.24h.1A1.15,1.15,0,0,0,98,184Z"/><path d="M90.17,183l-.2,0a1.15,1.15,0,0,0-.2,2.29H90a1.15,1.15,0,0,0,.2-2.28Z"/><path d="M140.11,154.75l4,7a1.15,1.15,0,0,0,1,.58,1.1,1.1,0,0,0,.58-.16,1.14,1.14,0,0,0,.41-1.57l-4-7-.1.06Q141.06,154.22,140.11,154.75Z"/><path d="M106,176.28a1.16,1.16,0,0,0-1.15,1.15v2.3a1.15,1.15,0,0,0,2.3,0v-2.3A1.16,1.16,0,0,0,106,176.28Z"/><path d="M98.74,176h-.12A1.14,1.14,0,0,0,97.5,177l-.2,2.29a1.09,1.09,0,0,0,.26.84,1.14,1.14,0,0,0,.78.4h.09a1.16,1.16,0,0,0,1.15-1l.2-2.29a1.07,1.07,0,0,0-.26-.84A1.1,1.1,0,0,0,98.74,176Z"/><path d="M112.9,172.53a1.16,1.16,0,0,0,.78-.41,1.11,1.11,0,0,0,.27-.84l-.7-8c-.76.08-1.53.14-2.29.2l.7,8a1.15,1.15,0,0,0,1.15,1Z"/><circle cx="105.98" cy="185.5" r="1.15"/><path d="M98,171.27a1.11,1.11,0,0,0,.26.84,1.16,1.16,0,0,0,.77.42h.1a1.15,1.15,0,0,0,1.15-1l.7-8c-.77-.05-1.53-.12-2.29-.2Z"/><path d="M129.46,176.5l-.6-2.23a1.16,1.16,0,0,0-1.11-.85,1.13,1.13,0,0,0-.3,0,1.15,1.15,0,0,0-.69.53,1.12,1.12,0,0,0-.12.87l.59,2.22a1.16,1.16,0,0,0,1.12.85,1.3,1.3,0,0,0,.3,0A1.16,1.16,0,0,0,129.46,176.5Z"/><path d="M187.57,121.8l-2.17-.78a1.11,1.11,0,0,0-.38-.07,1.15,1.15,0,0,0-.41,2.24l2.17.78a1.15,1.15,0,0,0,.39.07,1.15,1.15,0,0,0,.4-2.23Z"/><path d="M192.2,108.54a1.14,1.14,0,0,0-.93-1.34l-2.27-.4-.2,0a1.15,1.15,0,0,0-1.12,1,1.14,1.14,0,0,0,.19.86,1.17,1.17,0,0,0,.75.47l2.27.4h.19A1.13,1.13,0,0,0,192.2,108.54Z"/><path d="M190,131.23a1.14,1.14,0,0,0-.47-.1,1.17,1.17,0,0,0-1.07.66,1.13,1.13,0,0,0,.55,1.52,1,1,0,0,0,.48.12,1.16,1.16,0,0,0,.49-2.2Z"/><path d="M181.81,137.11a1.16,1.16,0,0,0-.43-1.58l-2-1.15a1.12,1.12,0,0,0-.55-.14,1.2,1.2,0,0,0-1,.57,1.15,1.15,0,0,0,.43,1.57l2,1.15a1.13,1.13,0,0,0,.58.16A1.16,1.16,0,0,0,181.81,137.11Z"/><path d="M181.5,145.05a1.19,1.19,0,0,0-1,.48,1.16,1.16,0,0,0,.29,1.6,1.13,1.13,0,0,0,1.6-.28,1.14,1.14,0,0,0-.28-1.6A1.12,1.12,0,0,0,181.5,145.05Z"/><path d="M185.34,130.33a1.16,1.16,0,0,0-.55-1.53l-2.1-1a1.07,1.07,0,0,0-.46-.1,1.19,1.19,0,0,0-1.07.67,1.17,1.17,0,0,0,.57,1.53l2.09,1a1.2,1.2,0,0,0,.48.12A1.16,1.16,0,0,0,185.34,130.33Z"/><path d="M186.37,138.41a1.08,1.08,0,0,0-.55-.15,1.18,1.18,0,0,0-1,.57,1.15,1.15,0,0,0,.41,1.57,1.14,1.14,0,0,0,.58.16,1.15,1.15,0,0,0,1.12-1.45A1.19,1.19,0,0,0,186.37,138.41Z"/><path d="M197,108.2l-.21,0a1.15,1.15,0,0,0-1.13,1,1.17,1.17,0,0,0,.93,1.34h.2a1.16,1.16,0,0,0,1.14-1A1.14,1.14,0,0,0,197,108.2Z"/><path d="M195.3,116.07a1.08,1.08,0,0,0-.28,0,1.17,1.17,0,0,0-1.12.85,1.14,1.14,0,0,0,.81,1.41,1.55,1.55,0,0,0,.3,0,1.16,1.16,0,0,0,1.12-.87,1.18,1.18,0,0,0-.12-.88A1.13,1.13,0,0,0,195.3,116.07Z"/><path d="M193,123.77a1.14,1.14,0,0,0-.37-.06,1.18,1.18,0,0,0-1.1.75,1.15,1.15,0,0,0,.68,1.48,1.18,1.18,0,0,0,.4.07,1.14,1.14,0,0,0,1.07-.76A1.16,1.16,0,0,0,193,123.77Z"/><path d="M192.6,63a1.19,1.19,0,0,0,.39-.07,1.15,1.15,0,0,0,.68-1.47,1.16,1.16,0,0,0-1.09-.76,1.09,1.09,0,0,0-.38.07,1.15,1.15,0,0,0-.68,1.47A1.16,1.16,0,0,0,192.6,63Z"/><path d="M160.92,157a1.16,1.16,0,0,0-.9-.41,1.14,1.14,0,0,0-.73.25,1.18,1.18,0,0,0-.4.78,1.11,1.11,0,0,0,.27.84l1.47,1.77a1.17,1.17,0,0,0,.89.4,1.15,1.15,0,0,0,.74-.26,1.18,1.18,0,0,0,.42-.78,1.12,1.12,0,0,0-.28-.84Z"/><path d="M155.16,161.57a1.18,1.18,0,0,0-1-.49,1.11,1.11,0,0,0-.64.2,1.09,1.09,0,0,0-.47.75,1.13,1.13,0,0,0,.18.85l1.32,1.89a1.18,1.18,0,0,0,.94.5,1.12,1.12,0,0,0,.66-.22,1.1,1.1,0,0,0,.47-.74,1.16,1.16,0,0,0-.19-.86Z"/><path d="M152,146.4l-.94.8-.82.68,5.2,6.2a1.14,1.14,0,0,0,.89.41,1.11,1.11,0,0,0,.74-.28,1.15,1.15,0,0,0,.41-.77,1.11,1.11,0,0,0-.28-.84Z"/><path d="M158.83,167.69a1.14,1.14,0,0,0-.65.2,1.16,1.16,0,0,0-.47.75,1.07,1.07,0,0,0,.2.85,1.15,1.15,0,0,0,1.89-1.31A1.18,1.18,0,0,0,158.83,167.69Z"/><path d="M149,165.59a1.2,1.2,0,0,0-1-.57,1.09,1.09,0,0,0-.55.14,1.19,1.19,0,0,0-.54.7,1.16,1.16,0,0,0,.12.88l1.15,2a1.17,1.17,0,0,0,1,.58,1.23,1.23,0,0,0,.58-.15,1.16,1.16,0,0,0,.43-1.58Z"/><path d="M152,172a1.1,1.1,0,0,0-.56.15,1.14,1.14,0,0,0-.43,1.57,1.17,1.17,0,0,0,1,.58,1.09,1.09,0,0,0,.58-.15,1.16,1.16,0,0,0,.43-1.58A1.18,1.18,0,0,0,152,172Z"/><path d="M175.53,140.62a1.11,1.11,0,0,0-.65-.2,1.15,1.15,0,0,0-1,.49,1.13,1.13,0,0,0,.29,1.6l1.88,1.32a1.22,1.22,0,0,0,.67.21,1.16,1.16,0,0,0,.94-.5,1.14,1.14,0,0,0,.18-.86,1.1,1.1,0,0,0-.47-.74Z"/><path d="M151.85,156.85l-4.64-6.64q-.93.68-1.88,1.32l4.64,6.62a1.16,1.16,0,0,0,.94.5,1.15,1.15,0,0,0,.94-1.81Z"/><path d="M176.59,151.43a1.15,1.15,0,1,0,.87,1.88,1.14,1.14,0,0,0-.87-1.88Z"/><path d="M165.22,162.79a1.13,1.13,0,0,0-.74.26,1.15,1.15,0,0,0-.14,1.63,1.15,1.15,0,0,0,1.76-1.49A1.15,1.15,0,0,0,165.22,162.79Z"/><path d="M171.14,146.51a1.1,1.1,0,0,0-.73-.26,1.18,1.18,0,0,0-.9.4,1.16,1.16,0,0,0,.15,1.62l1.76,1.48a1.16,1.16,0,0,0,.74.28,1.14,1.14,0,0,0,.89-.42,1.15,1.15,0,0,0,.27-.84,1.14,1.14,0,0,0-.4-.79Z"/><path d="M171.15,157.36a1.15,1.15,0,0,0-.82.33,1.14,1.14,0,0,0-.33.82,1.11,1.11,0,0,0,.33.81,1.15,1.15,0,0,0,.82.35,1.1,1.1,0,0,0,.81-.35,1.12,1.12,0,0,0,.34-.81,1.15,1.15,0,0,0-.34-.82A1.12,1.12,0,0,0,171.15,157.36Z"/><path d="M166.26,152a1.12,1.12,0,0,0-.81-.33,1.14,1.14,0,0,0-.82,2l1.64,1.64a1.15,1.15,0,0,0,2-.82,1.16,1.16,0,0,0-.33-.82Z"/><path d="M122,182.95l-.2,0a1.15,1.15,0,0,0,.2,2.28h.21a1.15,1.15,0,0,0-.2-2.29Z"/><path d="M15,78.45l.21,0a1.15,1.15,0,0,0,1.13-1,1.11,1.11,0,0,0-.2-.86,1.18,1.18,0,0,0-.74-.47l-.19,0a1.17,1.17,0,0,0-1.15.95A1.15,1.15,0,0,0,15,78.45Z"/><path d="M19,62.89a1.16,1.16,0,0,0,1.49-.69,1.16,1.16,0,0,0,0-.88,1.1,1.1,0,0,0-.65-.6,1.09,1.09,0,0,0-.38-.07,1.19,1.19,0,0,0-1.1.76A1.17,1.17,0,0,0,19,62.89Z"/><path d="M21.95,55.42a1.22,1.22,0,0,0,.5.1,1.16,1.16,0,0,0,1-.67,1.1,1.1,0,0,0,0-.88,1.2,1.2,0,0,0-.6-.66,1.11,1.11,0,0,0-.47-.1,1.17,1.17,0,0,0-1.06.67A1.16,1.16,0,0,0,21.95,55.42Z"/><path d="M24.27,78.92a1.14,1.14,0,0,0-.93-1.34l-2.27-.4-.19,0a1.18,1.18,0,0,0-1.15.95,1.15,1.15,0,0,0,.8,1.28h3.52A1.09,1.09,0,0,0,24.27,78.92Z"/><path d="M16.93,116a1.09,1.09,0,0,0-.28,0,1.12,1.12,0,0,0-.7.53,1.16,1.16,0,0,0,1,1.74,1.34,1.34,0,0,0,.29,0,1.12,1.12,0,0,0,.7-.54,1.09,1.09,0,0,0,.12-.86A1.18,1.18,0,0,0,16.93,116Z"/><path d="M16.34,109.13a1.15,1.15,0,0,0-1.13-1l-.21,0a1.15,1.15,0,0,0,.2,2.28h.21A1.16,1.16,0,0,0,16.34,109.13Z"/><path d="M16.65,70.58a1.27,1.27,0,0,0,.3,0,1.14,1.14,0,0,0,1.11-.85,1.12,1.12,0,0,0-.12-.88,1.14,1.14,0,0,0-.7-.53,1.11,1.11,0,0,0-.28,0,1.18,1.18,0,0,0-1.12.86,1.14,1.14,0,0,0,.12.86A1.11,1.11,0,0,0,16.65,70.58Z"/><path d="M36.42,46a1.12,1.12,0,0,0,.66.21,1.15,1.15,0,0,0,.66-2.1l-1.88-1.32a1.11,1.11,0,0,0-.65-.2,1.19,1.19,0,0,0-1,.49,1.16,1.16,0,0,0,.29,1.6Z"/><path d="M30.14,49.54a1.14,1.14,0,0,0,.43,1.57l2,1.15a1.11,1.11,0,0,0,.58.16,1.15,1.15,0,0,0,.58-2.15l-2-1.15a1.15,1.15,0,0,0-.55-.14A1.19,1.19,0,0,0,30.14,49.54Z"/><path d="M21.39,116a1.16,1.16,0,0,0,1.11.85.88.88,0,0,0,.3,0l2.23-.59a1.15,1.15,0,0,0-.3-2.27,1,1,0,0,0-.3,0l-2.22.59A1.16,1.16,0,0,0,21.39,116Z"/><path d="M19.33,123.7a1.14,1.14,0,0,0-.37.06,1.15,1.15,0,0,0,.8,2.17,1.15,1.15,0,0,0,.68-1.48A1.18,1.18,0,0,0,19.33,123.7Z"/><path d="M38.15,53a1.2,1.2,0,0,0-1,.57,1.16,1.16,0,0,0-.11.88,1.17,1.17,0,0,0,.54.7l7,4,.57-1,.59-1-7-4A1.12,1.12,0,0,0,38.15,53Z"/><path d="M40.8,29.3a1.14,1.14,0,1,0,0-2.29,1.12,1.12,0,0,0-.81.33,1.1,1.1,0,0,0-.35.81A1.15,1.15,0,0,0,40,29,1.11,1.11,0,0,0,40.8,29.3Z"/><path d="M80.86,159l-2.76,7.59a1.11,1.11,0,0,0,0,.88,1.15,1.15,0,0,0,2.12-.09L83,159.76q-1.09-.38-2.16-.79Z"/><path d="M35.37,35.23a1.15,1.15,0,1,0,0-2.29,1.17,1.17,0,0,0-.89.39,1.19,1.19,0,0,0-.26.84,1.13,1.13,0,0,0,.4.78A1.18,1.18,0,0,0,35.37,35.23Z"/><path d="M24.38,64.86l2.17.78a1.11,1.11,0,0,0,.39.07,1.15,1.15,0,0,0,.39-2.24l-2.16-.78a1.13,1.13,0,0,0-.38-.06,1.19,1.19,0,0,0-1.11.76A1.15,1.15,0,0,0,24.38,64.86Z"/><path d="M30.47,41.6a1.19,1.19,0,0,0,.95-.48,1.15,1.15,0,0,0,.18-.86,1.13,1.13,0,0,0-1.12-.94,1.17,1.17,0,0,0-1,.48,1.2,1.2,0,0,0-.2.86,1.15,1.15,0,0,0,.48.74A1.09,1.09,0,0,0,30.47,41.6Z"/><path d="M22.8,69.84a1.12,1.12,0,0,0-.28,0,1.18,1.18,0,0,0-1.12.85,1.15,1.15,0,0,0,.82,1.41l2.22.6a1.27,1.27,0,0,0,.3,0,1.16,1.16,0,0,0,.3-2.27Z"/><path d="M25.58,48.24a1.23,1.23,0,0,0,.58.15,1.14,1.14,0,0,0,1-.58,1.11,1.11,0,0,0,.12-.88,1.1,1.1,0,0,0-1.08-.84,1.2,1.2,0,0,0-1,.57,1.15,1.15,0,0,0-.12.88A1.18,1.18,0,0,0,25.58,48.24Z"/><path d="M26.61,56.32a1.15,1.15,0,0,0,0,.88,1.11,1.11,0,0,0,.59.66l2.1,1a1,1,0,0,0,.48.12,1.15,1.15,0,0,0,.48-2.2l-2.09-1a1.1,1.1,0,0,0-.47-.1A1.19,1.19,0,0,0,26.61,56.32Z"/><path d="M40.81,40.14a1.16,1.16,0,0,0,1.89-1,1.15,1.15,0,0,0-.41-.78l-1.76-1.49a1.14,1.14,0,0,0-.73-.25,1.15,1.15,0,0,0-.76,2Z"/><path d="M24.27,107.73a1.15,1.15,0,0,0-1.12-1l-.2,0-2.28.4a1.15,1.15,0,0,0,.21,2.28h.2l2.27-.4A1.15,1.15,0,0,0,24.27,107.73Z"/><path d="M60.46,172.16a1.1,1.1,0,0,0-.56-.15,1.18,1.18,0,0,0-1,.56,1.17,1.17,0,0,0-.12.88,1.18,1.18,0,0,0,.54.7,1.12,1.12,0,0,0,.58.15,1.16,1.16,0,0,0,1-.58,1.22,1.22,0,0,0,.12-.88A1.15,1.15,0,0,0,60.46,172.16Z"/><path d="M62,158.16l4.64-6.63q-1-.65-1.88-1.32l-4.65,6.64a1.15,1.15,0,0,0,.28,1.6,1.15,1.15,0,0,0,.67.21A1.16,1.16,0,0,0,62,158.16Z"/><path d="M60.56,146.92l-.62-.53-5.21,6.21a1.15,1.15,0,0,0,.15,1.61,1.11,1.11,0,0,0,.74.28,1.14,1.14,0,0,0,.89-.41l5.2-6.2-.56-.47-.27-.23Z"/><path d="M53.12,167.69a1.15,1.15,0,0,0-1,.48,1.08,1.08,0,0,0-.2.85,1.09,1.09,0,0,0,.47.75,1.15,1.15,0,1,0,.68-2.08Z"/><path d="M64.5,165.16a1.09,1.09,0,0,0-.55-.14,1.2,1.2,0,0,0-1,.57l-1.15,2a1.16,1.16,0,0,0,.43,1.58,1.22,1.22,0,0,0,.58.15,1.15,1.15,0,0,0,1-.58l1.15-2a1.22,1.22,0,0,0,.12-.88A1.19,1.19,0,0,0,64.5,165.16Z"/><path d="M58.39,161.28a1.11,1.11,0,0,0-.64-.2,1.16,1.16,0,0,0-1,.49l-1.33,1.88a1.15,1.15,0,0,0-.18.86,1.1,1.1,0,0,0,.47.74,1.12,1.12,0,0,0,.66.22,1.18,1.18,0,0,0,.94-.5l1.32-1.89a1.14,1.14,0,0,0,.19-.86A1.1,1.1,0,0,0,58.39,161.28Z"/><path d="M75.23,156.52h0l-3.41,7.32a1.14,1.14,0,0,0,.55,1.53,1,1,0,0,0,.48.12,1.17,1.17,0,0,0,1-.67l3.41-7.32-.3-.14-.12-.05Z"/><path d="M69.84,153.59l-4,7a1.15,1.15,0,0,0,.43,1.57,1.12,1.12,0,0,0,.58.16,1.15,1.15,0,0,0,1-.58l4-7h0Q70.83,154.19,69.84,153.59Z"/><path d="M77.6,171.28a1.11,1.11,0,0,0-.38-.07,1.18,1.18,0,0,0-1.09.76l-.78,2.16a1.16,1.16,0,0,0,.69,1.49,1.11,1.11,0,0,0,.39.07,1.16,1.16,0,0,0,1.08-.76l.78-2.16A1.15,1.15,0,0,0,77.6,171.28Z"/><path d="M74.84,178.86a1.07,1.07,0,0,0-.38-.07,1.18,1.18,0,0,0-1.1.75,1.14,1.14,0,0,0,.69,1.47,1.13,1.13,0,0,0,.39.08,1.17,1.17,0,0,0,1.08-.76,1.13,1.13,0,0,0,0-.89A1.12,1.12,0,0,0,74.84,178.86Z"/><path d="M70.91,168.51a1.14,1.14,0,0,0-.46-.1,1.18,1.18,0,0,0-1.07.66l-1,2.09a1.1,1.1,0,0,0,0,.87,1.16,1.16,0,0,0,.6.66,1.22,1.22,0,0,0,.48.1,1.15,1.15,0,0,0,1-.66l1-2.1a1.16,1.16,0,0,0,0-.88A1.2,1.2,0,0,0,70.91,168.51Z"/><path d="M67.5,175.82a1.08,1.08,0,0,0-.46-.1,1.2,1.2,0,0,0-1.07.66,1.16,1.16,0,1,0,2.1,1,1.18,1.18,0,0,0,0-.89A1.14,1.14,0,0,0,67.5,175.82Z"/><path d="M53.06,157.65a1.19,1.19,0,0,0-.4-.78,1.14,1.14,0,0,0-.73-.25,1.16,1.16,0,0,0-.9.41l-1.47,1.76a1.12,1.12,0,0,0-.28.84,1.18,1.18,0,0,0,.41.78,1.16,1.16,0,0,0,.74.26,1.17,1.17,0,0,0,.89-.4l1.47-1.77A1.11,1.11,0,0,0,53.06,157.65Z"/><path d="M30.8,128.39a1.19,1.19,0,0,0-1.07-.67,1.07,1.07,0,0,0-.46.1l-2.1,1a1.12,1.12,0,0,0-.59.64,1.18,1.18,0,0,0,0,.89,1.16,1.16,0,0,0,1,.67,1.24,1.24,0,0,0,.48-.12l2.09-1A1.16,1.16,0,0,0,30.8,128.39Z"/><path d="M26.13,138.26a1.08,1.08,0,0,0-.55.15,1.18,1.18,0,0,0-.54.7,1.15,1.15,0,0,0,1.12,1.45,1.14,1.14,0,0,0,.58-.16,1.08,1.08,0,0,0,.53-.69,1.11,1.11,0,0,0-.12-.88A1.17,1.17,0,0,0,26.13,138.26Z"/><path d="M46.73,162.79a1.14,1.14,0,0,0-.74,2,1.1,1.1,0,0,0,.74.27,1.17,1.17,0,0,0,.88-.4,1.09,1.09,0,0,0,.26-.84,1.13,1.13,0,0,0-1.14-1Z"/><path d="M22.41,131.13a1.09,1.09,0,0,0-1.05.76,1.1,1.1,0,0,0,0,.88,1.16,1.16,0,0,0,1,.67,1.06,1.06,0,0,0,.48-.12,1.18,1.18,0,0,0,.6-.65,1.15,1.15,0,0,0,0-.88A1.17,1.17,0,0,0,22.41,131.13Z"/><path d="M34.14,134.8a1.2,1.2,0,0,0-1-.57,1.12,1.12,0,0,0-.55.14l-2,1.15a1.18,1.18,0,0,0-.54.7,1.15,1.15,0,0,0,1.12,1.45,1.14,1.14,0,0,0,.58-.16l2-1.15A1.15,1.15,0,0,0,34.14,134.8Z"/><path d="M27.33,123.18a1.15,1.15,0,0,0-.4-2.24,1.11,1.11,0,0,0-.38.07l-2.17.78a1.15,1.15,0,0,0,.39,2.23,1.07,1.07,0,0,0,.39-.07Z"/><path d="M30.45,145.05a1.11,1.11,0,0,0-.65.2,1.15,1.15,0,1,0,1.33,1.88,1.16,1.16,0,0,0,.29-1.6A1.19,1.19,0,0,0,30.45,145.05Z"/><path d="M47.32,153.61a1.09,1.09,0,0,0,.33-.8,1.14,1.14,0,0,0-.33-.82,1.15,1.15,0,0,0-.82-.33,1.12,1.12,0,0,0-.81.33l-1.64,1.62a1.16,1.16,0,0,0,0,1.64,1.14,1.14,0,0,0,.82.33,1.12,1.12,0,0,0,.81-.33Z"/><path d="M41.53,146.25a1.13,1.13,0,0,0-.74.26L39,148a1.14,1.14,0,0,0-.4.79,1.16,1.16,0,0,0,.26.84,1.14,1.14,0,0,0,.89.42,1.17,1.17,0,0,0,.74-.28l1.76-1.48a1.15,1.15,0,0,0-.75-2Z"/><path d="M40.8,157.36a1.12,1.12,0,0,0-.81.33,1.15,1.15,0,0,0-.35.82,1.13,1.13,0,0,0,.35.81,1.1,1.1,0,0,0,.81.35,1.15,1.15,0,0,0,.82-.35,1.11,1.11,0,0,0,.33-.81,1.14,1.14,0,0,0-.33-.82A1.15,1.15,0,0,0,40.8,157.36Z"/><path d="M37.06,140.42a1.09,1.09,0,0,0-.64.2l-1.89,1.32a1.15,1.15,0,0,0-.29,1.6,1.16,1.16,0,0,0,.94.5,1.22,1.22,0,0,0,.67-.21l1.89-1.32a1.19,1.19,0,0,0,.47-.74,1.2,1.2,0,0,0-.2-.86A1.16,1.16,0,0,0,37.06,140.42Z"/><path d="M35.36,151.43a1.15,1.15,0,0,0,0,2.29,1.15,1.15,0,1,0,0-2.29Z"/><path d="M175.14,105.84h-2q-.6,3.26-1.51,6.4a68.36,68.36,0,0,1-132.89-6.4h-2c0,.27.09.55.14.82.24,1.26.52,2.51.83,3.74l.13.5.05.21.16.57c.09.32.17.64.26,1q.53,1.85,1.15,3.65.38,1.09.79,2.16Q41,120.24,41.8,122h0q.47,1.05,1,2.08.84,1.72,1.77,3.39h0l.39.68.27.47.47.8,0,0q1,1.64,2.06,3.23l.06.09,0,.06c.28.42.57.82.86,1.23l.22.32.14.19q1.13,1.55,2.33,3l.28.34.11.14.18.21.55.65.36.42q1.26,1.45,2.59,2.82c.33.34.68.68,1,1l.61.61h0q1.38,1.33,2.82,2.59l.62.53.31.27.27.23.56.47q1.49,1.21,3,2.33.93.68,1.88,1.32c1.05.71,2.13,1.4,3.22,2.06q1,.6,2,1.16h0q1.67.93,3.39,1.77h0l1.67.79.12.05.3.14q1.74.78,3.53,1.47h0q1.07.41,2.16.79h0q1.8.62,3.65,1.15l.53.15,1.42.38h0l.23.06q1.85.46,3.74.83,1.13.22,2.27.4,1.88.3,3.8.5c.76.08,1.52.14,2.29.2,1.26.09,2.54.14,3.82.16h2.3q1.92,0,3.82-.16,1.15-.08,2.29-.2c1.28-.13,2.54-.3,3.8-.5q1.14-.18,2.27-.4,1.89-.36,3.73-.83h0l1.86-.49.37-.11q1.85-.53,3.65-1.15h0q1.09-.38,2.17-.79h0q1.79-.69,3.53-1.47h0c.71-.32,1.4-.64,2.1-1h0q1.72-.84,3.38-1.77,1-.53,1.89-1.1l.1-.06h0c1.09-.66,2.17-1.35,3.23-2.06q1-.64,1.88-1.32,1.55-1.13,3-2.33l.82-.68.94-.8q1.45-1.26,2.83-2.59.81-.79,1.61-1.61h0l0,0h0q1.33-1.38,2.59-2.82.75-.87,1.48-1.76,1.21-1.48,2.33-3c.41-.57.81-1.14,1.21-1.72l.12-.17h0q1.07-1.58,2.06-3.23.59-1,1.15-2,.93-1.67,1.77-3.39l.23-.48.14-.28q.31-.66.61-1.33h0q.78-1.74,1.47-3.53c.1-.26.19-.52.29-.79.17-.46.34-.92.5-1.38h0c.42-1.21.8-2.42,1.15-3.66q.32-1.1.6-2.22c.31-1.23.59-2.48.83-3.74l.13-.67v-.15Z"/><path d="M106,25A68.47,68.47,0,0,1,172.9,79.4h2c-.21-1.06-.45-2.11-.71-3.15-.15-.6-.31-1.2-.47-1.79l-.12-.44h0q-.53-1.84-1.15-3.65h0c-.11-.33-.24-.65-.36-1s-.28-.79-.43-1.18q-.69-1.79-1.47-3.53l-.31-.68-.07-.15,0-.1-.22-.46-.34-.71q-.84-1.72-1.77-3.39h0l-.08-.15-.52-.91-.34-.6-.21-.35q-1-1.64-2.06-3.22c-.22-.32-.44-.63-.66-.94s-.43-.63-.66-.94h0q-1.13-1.55-2.33-3-.73-.9-1.48-1.77-1.26-1.45-2.59-2.82h0q-.8-.82-1.62-1.62h0q-1.38-1.33-2.83-2.59h0l-.49-.42-.52-.44-.24-.2-.28-.23-.11-.09-.11-.09h0q-1.48-1.21-3-2.33l-.12-.08L146,35.6l-.37-.25-.34-.23h0q-1.58-1.07-3.22-2.06h0l-.9-.54-.63-.36-.47-.27q-1.67-.93-3.39-1.77h0q-1-.51-2.09-1h0q-1.74-.78-3.53-1.47l-1.48-.55-.68-.24q-1.8-.62-3.65-1.15h0l-.81-.23-.09,0-.14,0-1.19-.31h0q-1.85-.46-3.74-.83l-.93-.17-.51-.09-.83-.14c-1.26-.2-2.52-.37-3.8-.5l-.58-.06L111,23.22q-1.9-.13-3.82-.16h-2.3c-1.28,0-2.56.08-3.82.16h0c-.77.05-1.53.12-2.29.2h0q-1.91.2-3.8.5h0q-1.11.18-2.2.39h-.07c-1.26.24-2.51.52-3.74.83h0l-.2,0-1.39.37-.25.07-.08,0-.3.09h0q-1.84.53-3.65,1.15-1.09.38-2.16.79-1.79.69-3.53,1.47h0l-.64.3-1.28.6-.11.05-.05,0h0q-1.72.84-3.38,1.77h0l-.47.27-1.53.89q-1.64,1-3.22,2.06h0c-.64.43-1.26.87-1.88,1.32h0q-1.55,1.12-3,2.33h0l-.25.2-.35.29-1.17,1h0q-1.45,1.26-2.82,2.59h0q-.61.59-1.21,1.2l-.23.23h0l-.18.18q-1.33,1.38-2.59,2.82h0q-.76.87-1.49,1.77h0q-1.2,1.48-2.33,3c-.45.62-.89,1.25-1.33,1.89q-1.07,1.58-2.06,3.22h0l-.59,1-.57,1q-.93,1.67-1.77,3.39h0l-.35.74-.17.35-.13.28-.27.58-.07.15h0q-.78,1.74-1.47,3.53h0c-.07.2-.14.39-.22.59-.2.52-.39,1-.57,1.58q-.62,1.8-1.15,3.65h0c-.2.7-.39,1.41-.57,2.12l0,.11c-.26,1-.49,2.09-.71,3.15h2A68.47,68.47,0,0,1,106,25Z"/><path d="M51.42,49.06q.73-.9,1.49-1.77h0q-.76.87-1.49,1.77h0Z"/><path d="M51.42,49.06q.73-.9,1.49-1.77h0q-.76.87-1.49,1.77h0Z"/><polygon points="41.8 64.67 41.8 64.67 41.8 64.67 41.8 64.67"/><polygon points="41.8 64.67 41.8 64.67 41.8 64.67 41.8 64.67"/><circle cx="42.78" cy="62.58" transform="translate(-28.31 88.91) rotate(-75.96)"/><circle cx="42.78" cy="62.58" transform="translate(-28.31 88.91) rotate(-75.96)"/><path d="M42.13,63.95l.13-.28.17-.35-.17.35Z"/><path d="M42.13,63.95l.13-.28.17-.35-.17.35Z"/><path d="M57.12,42.85h0q-.61.59-1.21,1.2l-.23.23.23-.23Q56.51,43.44,57.12,42.85Z"/><path d="M57.12,42.85h0q-.61.59-1.21,1.2l-.23.23.23-.23Q56.51,43.44,57.12,42.85Z"/><path d="M92.7,24.3q1.09-.21,2.2-.39h0Q93.8,24.09,92.7,24.3Z"/><path d="M92.7,24.3q1.09-.21,2.2-.39h0Q93.8,24.09,92.7,24.3Z"/><circle cx="92.64" cy="24.31"/><circle cx="92.64" cy="24.31"/><path d="M40.33,68.21c-.07.2-.14.39-.22.59.07-.2.14-.4.22-.59Z"/><path d="M40.33,68.21c-.07.2-.14.39-.22.59.07-.2.14-.4.22-.59Z"/><path d="M37.79,76.25h0l0-.11Z"/><path d="M37.79,76.25h0l0-.11Z"/><path d="M125.28,25.74h0l-.81-.22Z"/><path d="M125.28,25.74h0l-.81-.22Z"/><path d="M123.05,25.14l1.19.31-1.19-.31h0Z"/><path d="M123.05,25.14l1.19.31-1.19-.31h0Z"/><path d="M107.13,23.05h0Z"/><path d="M107.13,23.05h0Z"/><path d="M105.84,23h0Z"/><path d="M105.84,23h0Z"/><path d="M101,23.22h0c-.77.05-1.53.12-2.29.2h0C99.47,23.34,100.23,23.27,101,23.22Z"/><path d="M101,23.22h0c-.77.05-1.53.12-2.29.2h0C99.47,23.34,100.23,23.27,101,23.22Z"/><path d="M75.28,30.11l-.05,0h0Z"/><path d="M75.28,30.11l-.05,0h0Z"/><path d="M76.68,29.45l.64-.3h0Z"/><path d="M76.68,29.45l.64-.3h0Z"/><path d="M66.62,35.12h0c-.64.43-1.26.87-1.88,1.32h0C65.36,36,66,35.55,66.62,35.12Z"/><path d="M66.62,35.12h0c-.64.43-1.26.87-1.88,1.32h0C65.36,36,66,35.55,66.62,35.12Z"/><polygon points="61.71 38.77 61.71 38.77 61.71 38.77 61.71 38.77"/><polygon points="61.71 38.77 61.71 38.77 61.71 38.77 61.71 38.77"/><path d="M61.11,39.26l.35-.29-.35.29-1.17,1h0Z"/><path d="M61.11,39.26l.35-.29-.35.29-1.17,1h0Z"/><path d="M47.82,132.76l0,.06c.28.41.57.82.86,1.23-.29-.41-.58-.81-.86-1.23Z"/><path d="M47.82,132.76l0,.06c.28.41.57.82.86,1.23-.29-.41-.58-.81-.86-1.23Z"/><path d="M56.51,143.2l.61.61h0Z"/><path d="M56.51,143.2l.61.61h0Z"/><path d="M51.82,138.08l.18.21.55.65-.55-.65Z"/><path d="M51.82,138.08l.18.21.55.65-.55-.65Z"/><path d="M41.8,122q.47,1.05,1,2.08h0q-.5-1-1-2.08Z"/><path d="M41.8,122q.47,1.05,1,2.08h0q-.5-1-1-2.08Z"/><path d="M44.55,127.46h0l.39.68-.39-.68Z"/><path d="M44.55,127.46h0l.39.68-.39-.68Z"/><path d="M37.92,110.9l.05.21.16.57-.16-.57Z"/><path d="M37.92,110.9l.05.21.16.57-.16-.57Z"/><path d="M87.31,25.56l1.39-.37.2,0h0l-.2,0Z"/><path d="M87.31,25.56l1.39-.37.2,0h0l-.2,0Z"/><path d="M87,25.65l-.3.09h0Z"/><path d="M87,25.65l-.3.09h0Z"/><path d="M156.44,142.2v0h0Z"/><path d="M156.44,142.2v0h0Z"/><polygon points="156.44 142.2 156.44 142.2 156.44 142.2 156.44 142.2"/><polygon points="156.44 142.2 156.44 142.2 156.44 142.2 156.44 142.2"/><path d="M175.14,105.84h0v0Z"/><path d="M175.14,105.84h0v0Z"/><path d="M156.45,44.47h0c-.53-.55-1.08-1.09-1.62-1.62h0Q155.65,43.64,156.45,44.47Z"/><path d="M156.45,44.47h0c-.53-.55-1.08-1.09-1.62-1.62h0Q155.65,43.64,156.45,44.47Z"/><path d="M172.41,70.37h0c-.11-.33-.24-.65-.36-1,.12.33.24.65.36,1Z"/><path d="M172.41,70.37h0c-.11-.33-.24-.65-.36-1,.12.33.24.65.36,1Z"/><path d="M169.77,63.85l0-.1-.22-.46.22.46Z"/><path d="M169.77,63.85l0-.1-.22-.46.22.46Z"/><path d="M163.52,53c-.22-.31-.43-.63-.66-.94h0C163.08,52.4,163.3,52.72,163.52,53Z"/><path d="M163.52,53c-.22-.31-.43-.63-.66-.94h0C163.08,52.4,163.3,52.72,163.52,53Z"/><path d="M169.54,123.31l-.14.28.14-.28q.31-.66.61-1.33h0Q169.85,122.65,169.54,123.31Z"/><path d="M169.54,123.31l-.14.28.14-.28q.31-.66.61-1.33h0Q169.85,122.65,169.54,123.31Z"/><path d="M171.91,117.66c.17-.46.34-.92.5-1.38h0C172.25,116.74,172.08,117.2,171.91,117.66Z"/><path d="M171.91,117.66c.17-.46.34-.92.5-1.38h0C172.25,116.74,172.08,117.2,171.91,117.66Z"/><path d="M164.07,132.84l.12-.17h0Z"/><path d="M164.07,132.84l.12-.17h0Z"/><polygon points="150.24 38.77 150.24 38.77 150.24 38.77 150.24 38.77"/><polygon points="150.24 38.77 150.24 38.77 150.24 38.77 150.24 38.77"/><path d="M150.35,38.86l.11.09.28.23-.28-.24Z"/><path d="M150.35,38.86l.11.09.28.23-.28-.24Z"/><path d="M151.51,39.84l.49.42h0Z"/><path d="M151.51,39.84l.49.42h0Z"/><path d="M145.66,35.35l.37.25,1.07.76L146,35.6l-.37-.25-.34-.23h0Z"/><path d="M145.66,35.35l.37.25,1.07.76L146,35.6l-.37-.25-.34-.23h0Z"/><path d="M136.71,30.13h0q-1-.51-2.09-1h0Q135.68,29.62,136.71,30.13Z"/><path d="M136.71,30.13h0q-1-.51-2.09-1h0Q135.68,29.62,136.71,30.13Z"/><path d="M142.1,33.06h0l-.9-.53-.63-.36.63.36Z"/><path d="M142.1,33.06h0l-.9-.53-.63-.36.63.36Z"/><path d="M167.4,59.2h0l-.08-.15-.52-.91.52.91Z"/><path d="M167.4,59.2h0l-.08-.15-.52-.91.52.91Z"/><path d="M134.63,157.5h0c.71-.32,1.4-.64,2.1-1h0c-.69.34-1.39.66-2.1,1Z"/><path d="M134.63,157.5h0c.71-.32,1.4-.64,2.1-1h0c-.69.34-1.39.66-2.1,1Z"/><path d="M128.93,159.76h0c.73-.25,1.45-.52,2.17-.79h0Q130,159.38,128.93,159.76Z"/><path d="M128.93,159.76h0c.73-.25,1.45-.52,2.17-.79h0Q130,159.38,128.93,159.76Z"/><path d="M88.62,161.44h0Z"/><path d="M88.62,161.44h0Z"/><path d="M142,153.66l.1-.06h0Z"/><path d="M142,153.66l.1-.06h0Z"/><path d="M80.86,159h0q1.07.41,2.16.79h0Q81.93,159.38,80.86,159Z"/><path d="M80.86,159h0q1.07.41,2.16.79h0Q81.93,159.38,80.86,159Z"/><path d="M60.56,146.92l.31.27.27.23-.27-.23Z"/><path d="M60.56,146.92l.31.27.27.23-.27-.23Z"/><path d="M75.23,156.52h0l1.67.79.12.05-.12-.05Z"/><path d="M75.23,156.52h0l1.67.79.12.05-.12-.05Z"/><polygon points="71.84 154.75 71.84 154.75 71.85 154.75 71.84 154.75"/><polygon points="71.84 154.75 71.84 154.75 71.85 154.75 71.84 154.75"/><path d="M85.13,114.17l6.07-3.75a8,8,0,0,1,4-1.38,2.93,2.93,0,0,1,1.5.37c1.26.73,1.94,2.65,1.86,5.27l-.2,7.12,3.38-6.26c1.24-2.31,2.79-3.63,4.25-3.63s3,1.32,4.25,3.63l3.38,6.26-.2-7.12c-.08-2.62.6-4.54,1.86-5.27a2.92,2.92,0,0,1,1.5-.37,8,8,0,0,1,4,1.38l6.07,3.75-3.75-6.07a10.59,10.59,0,0,1-1.07-2.26H111a13.43,13.43,0,0,1-10.1,0H90a10.61,10.61,0,0,1-1.07,2.26Z"/><path d="M123.07,78.55l3.75-6.07-6.07,3.75a8,8,0,0,1-4,1.38,2.92,2.92,0,0,1-1.5-.37c-1.26-.73-1.94-2.65-1.86-5.27l.2-7.12-3.38,6.26c-1.24,2.31-2.79,3.63-4.25,3.63s-3-1.32-4.25-3.63l-3.38-6.26.2,7.12c.08,2.62-.6,4.53-1.86,5.27a2.92,2.92,0,0,1-1.5.37,8,8,0,0,1-4-1.38l-6.07-3.75,3.75,6.07q.26.43.48.84h33.24C122.74,79.12,122.89,78.84,123.07,78.55Z"/><path d="M106,72.23a.84.84,0,0,0,.84-.84V54.51a.84.84,0,0,0-1.69,0V71.39A.84.84,0,0,0,106,72.23Z"/><path d="M114.49,61.54l.22,0a.84.84,0,0,0,.81-.63L116.84,56a.84.84,0,0,0-.6-1L116,55a.85.85,0,0,0-.82.63L113.9,60.5A.84.84,0,0,0,114.49,61.54Z"/><path d="M118.63,59.15l.22,0a.84.84,0,0,0,.81-.63l.44-1.63a.85.85,0,0,0-.6-1l-.22,0a.84.84,0,0,0-.82.63L118,58.12A.84.84,0,0,0,118.63,59.15Z"/><path d="M112.11,57.4l.22,0a.84.84,0,0,0,.81-.63l.44-1.63a.84.84,0,0,0-.6-1l-.22,0a.85.85,0,0,0-.82.63l-.44,1.63A.84.84,0,0,0,112.11,57.4Z"/><path d="M129.25,70.05a.84.84,0,0,0,1.19,0L134,66.47a.84.84,0,0,0-1.19-1.19l-3.58,3.58A.84.84,0,0,0,129.25,70.05Z"/><path d="M134,70.05a.84.84,0,0,0,1.19,0l1.19-1.19a.84.84,0,1,0-1.19-1.19L134,68.86A.84.84,0,0,0,134,70.05Z"/><path d="M129.84,65.53a.84.84,0,0,0,.6-.25l1.19-1.19a.84.84,0,0,0-1.19-1.19l-1.19,1.19a.84.84,0,0,0,.6,1.44Z"/><path d="M142.6,79.18l-.22,0-.72.19h1.5A.84.84,0,0,0,142.6,79.18Z"/><path d="M140.75,107l1.63.44.22,0a.84.84,0,0,0,.26-1.64h-2.65a.81.81,0,0,0-.06.14A.84.84,0,0,0,140.75,107Z"/><path d="M130.44,116.6a.84.84,0,1,0-1.19,1.19l3.58,3.58a.84.84,0,0,0,1.19-1.19Z"/><path d="M130.44,121.37a.84.84,0,1,0-1.19,1.19l1.19,1.19a.84.84,0,0,0,1.19-1.19Z"/><path d="M135.21,116.6a.84.84,0,0,0-1.19,1.19l1.19,1.19a.84.84,0,0,0,1.19-1.19Z"/><path d="M115.53,125.71a.84.84,0,0,0-.81-.63l-.22,0a.84.84,0,0,0-.6,1l1.31,4.89a.84.84,0,0,0,.81.63l.22,0a.84.84,0,0,0,.6-1Z"/><path d="M113.14,129.85a.84.84,0,0,0-.81-.63l-.22,0a.84.84,0,0,0-.6,1l.44,1.63a.84.84,0,0,0,.82.63l.22,0a.85.85,0,0,0,.6-1Z"/><path d="M119.66,128.1a.84.84,0,0,0-.82-.63l-.22,0a.85.85,0,0,0-.6,1l.44,1.63a.84.84,0,0,0,.81.63l.22,0a.85.85,0,0,0,.6-1Z"/><path d="M97.46,125.12l-.22,0a.84.84,0,0,0-.81.63l-1.31,4.89a.84.84,0,0,0,.6,1l.22,0a.84.84,0,0,0,.81-.63l1.31-4.89A.84.84,0,0,0,97.46,125.12Z"/><path d="M93.32,127.5l-.22,0a.84.84,0,0,0-.81.63l-.44,1.63a.84.84,0,0,0,.6,1l.22,0a.84.84,0,0,0,.81-.63l.44-1.63A.84.84,0,0,0,93.32,127.5Z"/><path d="M99.84,129.25l-.22,0a.84.84,0,0,0-.81.63l-.44,1.63a.84.84,0,0,0,.6,1l.22,0a.84.84,0,0,0,.82-.63l.44-1.63A.84.84,0,0,0,99.84,129.25Z"/><path d="M82.11,116.35a.84.84,0,0,0-.6.25l-3.58,3.58a.84.84,0,1,0,1.19,1.19l3.58-3.58a.84.84,0,0,0-.6-1.44Z"/><path d="M77.93,116.6a.84.84,0,0,0-1.19,0l-1.19,1.19A.84.84,0,1,0,76.74,119l1.19-1.19A.84.84,0,0,0,77.93,116.6Z"/><path d="M82.11,121.12a.84.84,0,0,0-.6.25l-1.19,1.19a.84.84,0,1,0,1.19,1.19l1.19-1.19a.84.84,0,0,0-.6-1.44Z"/><path d="M68.54,106.85a.84.84,0,0,0,.81.63l.22,0L71.2,107a.84.84,0,0,0,.6-1,.82.82,0,0,0-.06-.14H69.09A.84.84,0,0,0,68.54,106.85Z"/><path d="M69.35,79.17a.83.83,0,0,0-.56.22h1.5l-.72-.19Z"/><path d="M81.51,70.05a.84.84,0,0,0,1.19-1.19l-3.58-3.58a.84.84,0,1,0-1.19,1.19Z"/><path d="M81.51,65.28a.84.84,0,1,0,1.19-1.19l-1.19-1.19a.84.84,0,1,0-1.19,1.19Z"/><path d="M76.74,70.05a.84.84,0,0,0,1.19-1.19l-1.19-1.19a.84.84,0,1,0-1.19,1.19Z"/><path d="M96.42,60.94a.84.84,0,0,0,.82.63l.22,0a.84.84,0,0,0,.6-1l-1.31-4.89a.84.84,0,0,0-.81-.63l-.22,0a.84.84,0,0,0-.6,1Z"/><path d="M98.81,56.81a.84.84,0,0,0,.81.63l.22,0a.84.84,0,0,0,.6-1L100,54.74a.84.84,0,0,0-.81-.63l-.22,0a.84.84,0,0,0-.6,1Z"/><path d="M92.29,58.55a.84.84,0,0,0,.81.63l.22,0a.84.84,0,0,0,.6-1l-.44-1.63a.84.84,0,0,0-.81-.63l-.22,0a.84.84,0,0,0-.6,1Z"/><path d="M102.6,67.17a.84.84,0,0,0,.84-.84V59.57a.84.84,0,1,0-1.69,0v6.75A.84.84,0,0,0,102.6,67.17Z"/><path d="M109.35,67.17a.84.84,0,0,0,.84-.84V59.57a.84.84,0,0,0-1.69,0v6.75A.84.84,0,0,0,109.35,67.17Z"/><path d="M116.52,75.06a.84.84,0,0,0,1.15-.31l8.44-14.62a.84.84,0,1,0-1.46-.84L116.21,73.9A.84.84,0,0,0,116.52,75.06Z"/><path d="M119.2,62l-3.38,5.85a.84.84,0,0,0,1.46.84l3.38-5.85A.84.84,0,1,0,119.2,62Z"/><path d="M125.78,64.94a.84.84,0,0,0-.73.42l-3.38,5.85a.84.84,0,0,0,1.46.84l3.38-5.85a.85.85,0,0,0-.73-1.27Z"/><path d="M140,74.65a.84.84,0,1,0-.84-1.46L128.41,79.4h3.38Z"/><path d="M127.68,77.75a.83.83,0,0,0,.42-.11l5.85-3.38a.84.84,0,1,0-.84-1.46l-5.85,3.38a.84.84,0,0,0,.42,1.58Z"/><path d="M137.63,79a.84.84,0,0,0-1.15-.31l-1.31.76h2.56A.82.82,0,0,0,137.63,79Z"/><path d="M139.59,113.58A.84.84,0,0,0,140,112l-10.67-6.16H126l13.2,7.62A.83.83,0,0,0,139.59,113.58Z"/><path d="M136.9,108.12a.84.84,0,0,0,.42-1.58l-1.23-.71h-3.38l3.76,2.17A.84.84,0,0,0,136.9,108.12Z"/><path d="M133.52,114a.84.84,0,0,0,.42-1.57L128.1,109a.84.84,0,1,0-.84,1.46l5.85,3.38A.83.83,0,0,0,133.52,114Z"/><path d="M117.68,111.9a.85.85,0,0,0-.73-.42.83.83,0,0,0-.42.11.84.84,0,0,0-.31,1.15l8.44,14.62a.84.84,0,1,0,1.46-.84Z"/><path d="M123.13,114.6a.84.84,0,0,0-.73-.42.83.83,0,0,0-.42.11.84.84,0,0,0-.31,1.15l3.38,5.85a.84.84,0,1,0,1.46-.84Z"/><path d="M117.29,118a.85.85,0,0,0-.73-.42.83.83,0,0,0-.42.11.84.84,0,0,0-.31,1.15l3.38,5.85a.84.84,0,1,0,1.46-.84Z"/><path d="M106,114.42a.84.84,0,0,0-.84.84v16.88a.84.84,0,0,0,1.69,0V115.27A.84.84,0,0,0,106,114.42Z"/><path d="M109.35,119.49a.84.84,0,0,0-.84.84v6.75a.84.84,0,0,0,1.69,0v-6.75A.84.84,0,0,0,109.35,119.49Z"/><path d="M102.6,119.49a.84.84,0,0,0-.84.84v6.75a.84.84,0,0,0,1.69,0v-6.75A.84.84,0,0,0,102.6,119.49Z"/><path d="M95.43,111.6a.84.84,0,0,0-1.15.31l-8.44,14.62a.84.84,0,0,0,1.46.84l8.44-14.62A.84.84,0,0,0,95.43,111.6Z"/><path d="M92.75,124.67l3.38-5.85a.84.84,0,0,0-.31-1.15.83.83,0,0,0-.42-.11.84.84,0,0,0-.73.42l-3.38,5.85A.84.84,0,0,0,91.6,125a.83.83,0,0,0,.42.11A.85.85,0,0,0,92.75,124.67Z"/><path d="M86.17,121.72a.84.84,0,0,0,.73-.42l3.38-5.85a.84.84,0,0,0-1.46-.84l-3.38,5.85a.84.84,0,0,0,.73,1.27Z"/><path d="M71.63,113.16a.84.84,0,0,0,1.15.31L86,105.84H82.61L71.94,112A.84.84,0,0,0,71.63,113.16Z"/><path d="M84.28,108.91a.84.84,0,0,0-.42.11L78,112.4a.84.84,0,0,0,.84,1.46l5.85-3.38a.84.84,0,0,0-.42-1.58Z"/><path d="M74.32,107.7a.84.84,0,0,0,1.15.31l3.76-2.17H75.86l-1.23.71A.84.84,0,0,0,74.32,107.7Z"/><path d="M72.36,73.07a.84.84,0,0,0-.42,1.58l8.23,4.75h3.37L72.78,73.19A.85.85,0,0,0,72.36,73.07Z"/><path d="M75.06,78.53a.84.84,0,0,0-.73.42.82.82,0,0,0-.1.45h2.56l-1.31-.76A.84.84,0,0,0,75.06,78.53Z"/><path d="M78.43,72.68A.84.84,0,0,0,78,74.26l5.85,3.38a.84.84,0,0,0,.84-1.46l-5.85-3.38A.85.85,0,0,0,78.43,72.68Z"/><path d="M94.27,74.75a.84.84,0,1,0,1.46-.84L87.3,59.29a.84.84,0,0,0-1.46.84Z"/><path d="M88.82,72a.84.84,0,1,0,1.46-.84l-3.38-5.85a.84.84,0,1,0-1.46.84Z"/><path d="M94.67,68.67a.84.84,0,1,0,1.46-.84L92.75,62a.84.84,0,1,0-1.46.84Z"/><path d="M106,134.68a41.42,41.42,0,0,1-39.41-28.83H64.8a43,43,0,0,0,82.35,0h-1.77A41.42,41.42,0,0,1,106,134.68Z"/><path d="M106,50.29A43.1,43.1,0,0,0,65.26,79.4H67a41.34,41.34,0,0,1,77.86,0h1.78A43.1,43.1,0,0,0,106,50.29Z"/><path d="M106,139.74a46.49,46.49,0,0,0,44.68-33.9h-1.75a44.71,44.71,0,0,1-85.86,0H61.29A46.49,46.49,0,0,0,106,139.74Z"/><path d="M106,48.6a44.8,44.8,0,0,1,42.49,30.8h1.78a46.41,46.41,0,0,0-88.55,0h1.78A44.8,44.8,0,0,1,106,48.6Z"/><path d="M106,26.66A66.77,66.77,0,0,1,171.17,79.4h1.73a68.36,68.36,0,0,0-133.84,0h1.73A66.77,66.77,0,0,1,106,26.66Z"/><path d="M171.45,105.84a66.65,66.65,0,0,1-130.94,0H38.78a68.36,68.36,0,0,0,132.89,6.4q.91-3.14,1.51-6.4Z"/><path d="M114,161.21a68.35,68.35,0,0,1-75.2-55.37h0a68.36,68.36,0,0,0,132.89,6.4A68.54,68.54,0,0,1,114,161.21Z"/><path d="M114,161.21a68.35,68.35,0,0,1-75.2-55.37h0a68.36,68.36,0,0,0,132.89,6.4A68.54,68.54,0,0,1,114,161.21Z"/><path d="M171.67,112.24q.91-3.14,1.51-6.4h0Q172.57,109.1,171.67,112.24Z"/><path d="M171.67,112.24q.91-3.14,1.51-6.4h0Q172.57,109.1,171.67,112.24Z"/><path d="M106,156.62a63.39,63.39,0,0,1-62-50.77H42.22a65,65,0,0,0,127.51,0H168A63.39,63.39,0,0,1,106,156.62Z"/><path d="M106,28.35a65.08,65.08,0,0,0-63.46,51h1.73a63.28,63.28,0,0,1,123.45,0h1.73A65.08,65.08,0,0,0,106,28.35Z"/><path d="M58.45,120.47c3.53-1.44,5.25-4.19,3.95-7.4-1.24-3-4.49-4.12-8.17-2.62s-5.22,4.26-4,7.38C51.46,120.74,54.6,122,58.45,120.47Zm-6.86-3.1c-.85-2.09.41-4,3.38-5.24,2.8-1.14,5.29-.57,6.1,1.44s-.39,4-3.38,5.2S52.39,119.35,51.59,117.38Z"/><path d="M66.33,127.67a3.67,3.67,0,0,0,1.53-2.09c.33-1.29-.2-2.71-1.22-4.16l-1.42-2c-.15-.22-.31-.22-.52-.07L55,126.14a.33.33,0,0,0-.11.51l.58.83a.33.33,0,0,0,.52.1l3.61-2.54.71,1C61.82,128.22,64.1,129.24,66.33,127.67Zm-5-2.37-.68-1,4.29-3,.59.85c1.06,1.51,1.36,3-.28,4.1S62.41,126.79,61.36,125.3Z"/><path d="M74.31,132.11c.08-1.33-.71-2.62-2-3.85l-1.77-1.71c-.19-.18-.35-.16-.52,0l-8.24,8.52a.33.33,0,0,0,0,.53l.73.71a.33.33,0,0,0,.53,0l3.07-3.17L67,134c1.87,1.8,4.3,2.37,6.2.41A3.66,3.66,0,0,0,74.31,132.11Zm-2.41,1.14c-1.3,1.34-2.73,1.09-4-.18l-.85-.85,3.64-3.77.74.72C72.73,130.45,73.29,131.81,71.91,133.25Z"/><path d="M81.13,134.87c-2.79-1.72-6.06-.67-8.14,2.71s-1.7,6.53,1.17,8.29c2.68,1.65,6,.84,8.16-2.7C84.32,139.92,84.09,136.68,81.13,134.87Zm-.43,7.37c-1.65,2.68-3.94,3.6-5.75,2.49s-2-3.49-.37-6.23c1.58-2.58,3.93-3.59,5.77-2.45S82.4,139.49,80.71,142.24Z"/><path d="M89.75,139.23l-2.56-.88c-.27-.09-.39,0-.49.26l-3.83,11.2c-.08.24,0,.4.21.48l1,.33a.33.33,0,0,0,.46-.25l1.53-4.49,1.71.59,1.12,5.46a.58.58,0,0,0,.45.5l1.07.37c.25.09.36-.11.3-.3l-1.28-5.72v0A3.65,3.65,0,0,0,93,144.27a3.6,3.6,0,0,0,0-2.5C92.62,140.56,91.35,139.78,89.75,139.23Zm1.61,4.48c-.53,1.54-1.95,2-3.51,1.43l-1.37-.47L88.06,140l1.14.39C91,141,91.94,142,91.36,143.71Z"/><path d="M103.78,142.24l-9.11-1.32c-.21,0-.29,0-.32.23l-.11.76c0,.22,0,.3.26.33l3.59.52-1.56,10.8c0,.25,0,.38.28.41l1.06.15c.24,0,.35-.06.39-.31L99.83,143l3.48.5c.26,0,.43,0,.51-.22l.22-.73C104.08,142.39,104,142.27,103.78,142.24Z"/><path d="M115.1,141.92c0-.24-.12-.36-.38-.34l-1,.08a.33.33,0,0,0-.35.39l.48,6.43c.18,2.36,0,4.58-3,4.8s-3.59-1.83-3.77-4.27l-.48-6.45c0-.24-.12-.36-.38-.34l-1,.08a.32.32,0,0,0-.33.39l.5,6.61c.27,3.56,1.52,5.71,5.6,5.4,3.71-.28,5-2.72,4.71-6.06Z"/><path d="M126.56,138.31c-.09-.26-.19-.34-.46-.25l-.86.29c-.23.08-.31.2-.22.48l3,8.87h0l-9.59-6.76a.5.5,0,0,0-.55-.1l-.71.24a.33.33,0,0,0-.23.48l3.79,11.23c.09.26.23.33.48.24l.82-.28a.34.34,0,0,0,.23-.48l-3-8.75h0l9.4,6.61a.65.65,0,0,0,.65.15l.82-.28c.21-.07.28-.17.18-.47Z"/><path d="M137.71,144.91c-.08-.14-.22-.19-.41-.08l-1,.56-5.12-9,1-.57c.21-.12.26-.19.13-.41l-.29-.51c-.08-.14-.19-.18-.4-.06l-3.53,2a.23.23,0,0,0-.09.37l.3.53c.1.17.19.19.37.08l1-.6,5.12,9-1,.56c-.2.11-.21.2-.12.36l.31.54a.24.24,0,0,0,.38.1l3.48-2c.18-.1.18-.21.08-.38Z"/><path d="M137.91,131.89l2.72-2.23c.2-.17.31-.3.18-.52l-.39-.65c-.1-.15-.23-.19-.42,0l-7.12,5.83c-.16.13-.18.22,0,.39l.49.59c.14.17.24.18.42,0l2.81-2.3,6.92,8.44c.16.2.31.22.49.07l.83-.68c.19-.15.19-.3,0-.5Z"/><path d="M152.43,131.85c-.12-.11-.27-.11-.42.06l-.74.85L143.46,126l.75-.87c.16-.18.18-.27,0-.43l-.44-.38c-.12-.11-.24-.11-.4.07l-2.66,3.08a.23.23,0,0,0,0,.38l.46.4c.15.13.24.11.38,0l.79-.91,7.81,6.76-.74.85c-.15.17-.13.26,0,.38l.47.41a.24.24,0,0,0,.39,0l2.62-3c.14-.16.1-.26,0-.39Z"/><path d="M159.06,122.79l-.59-.36c-.19-.11-.33-.06-.47.18L155.3,127l-3.94-2.4,2.3-3.8c.14-.23.12-.34-.1-.48L153,120c-.19-.11-.34-.07-.48.15l-2.3,3.78-3.43-2.08,2.57-4.23c.17-.27.22-.44,0-.58l-.56-.43c-.18-.13-.31-.17-.45.08l-3.44,5.66c-.14.23-.09.36.13.5L155.2,129c.27.16.37.14.53-.14l3.41-5.61C159.29,123,159.25,122.9,159.06,122.79Z"/><path d="M150.08,111.79c-.68,1.86-.3,4.14,1.68,4.86a3.38,3.38,0,0,0,3.5-.93l2-1.82a2.42,2.42,0,0,1,2.53-.84c1.36.49,1.45,2,1,3.17a8,8,0,0,1-1.41,2.33c-.16.18-.19.37,0,.52l.69.51a.34.34,0,0,0,.51-.07,10.63,10.63,0,0,0,1.56-2.8c.79-2.17.36-4.52-1.9-5.34-1.6-.58-2.83.13-4.06,1.25l-1.67,1.53a2.16,2.16,0,0,1-2.27.73c-1.15-.42-1.18-1.73-.82-2.72a6.64,6.64,0,0,1,1.32-2.06l.13-.19a.27.27,0,0,0-.1-.32l-.61-.52L152,109c-.14-.05-.26,0-.39.18A7.42,7.42,0,0,0,150.08,111.79Z"/><path d="M73.13,55.88c.15.23.33.28.53.16l.8-.51c.2-.13.23-.31.08-.54L71.3,49.9l4.89-3.12,3.24,5.08c.15.23.33.28.53.16l.82-.52c.2-.13.21-.3.06-.54L73.93,40.13c-.15-.23-.3-.28-.5-.15l-.82.52c-.2.13-.24.29-.09.53l2.9,4.55-4.89,3.12-2.9-4.54c-.15-.23-.32-.27-.52-.14l-.81.51c-.2.13-.24.29-.09.53Z"/><path d="M82,50.77l1-.39c.23-.09.27-.19.26-.46L83.06,46l4.34-1.69,2.44,3c.19.24.3.27.58.16l1-.4c.29-.11.21-.3.07-.47L82.69,36.1a.32.32,0,0,0-.39-.1l-.89.35a.35.35,0,0,0-.2.38l.49,13.73C81.71,50.64,81.76,50.86,82,50.77Zm.63-12.43c.17.23.44.59.9,1.16l3,3.71L83,44.58l-.25-4.73c0-.77-.07-1.18-.11-1.51Z"/><path d="M97.65,46.16a7.36,7.36,0,0,0,3.27-1.46.38.38,0,0,0,.1-.58l-.34-.56c-.13-.22-.28-.23-.42-.11a6,6,0,0,1-2.63,1.22c-2.71.49-4.39-1.92-4.92-4.85a6.72,6.72,0,0,1,.39-4.12,3.49,3.49,0,0,1,2.55-2,4.89,4.89,0,0,1,2.78.3l.17,0c.09,0,.15-.09.18-.23l.15-.77a.75.75,0,0,0,0-.24c0-.12-.1-.16-.26-.23a6.14,6.14,0,0,0-3.4-.29c-3.54.64-5,4.24-4.3,8S93.95,46.83,97.65,46.16Z"/><path d="M102.84,45.28l1,0c.23,0,.34-.13.35-.41l.11-5.9h0l4.39,6a.71.71,0,0,0,.68.39l1.22,0c.16,0,.23-.06.24-.15a.62.62,0,0,0-.14-.32l-5-6.71,4.72-6.12.06-.16a.19.19,0,0,0-.21-.2l-1,0a.59.59,0,0,0-.51.25l-4.44,5.81h0l.1-5.75c0-.28-.1-.4-.34-.4l-1,0c-.23,0-.34.11-.35.39l-.23,12.84C102.5,45.14,102.61,45.28,102.84,45.28Z"/><path d="M112.09,45.53l.81.17c.23,0,.38-.06.44-.33l2-9.77h0l4.3,11.14c.12.31.24.43.45.48l.81.17c.21,0,.32,0,.38-.34L124,34.5c.06-.29,0-.42-.25-.48l-.85-.18c-.23,0-.36,0-.42.34l-2.08,9.91h0L116,32.7c-.09-.26-.19-.34-.4-.39l-.7-.15c-.23,0-.38,0-.44.33L111.82,45C111.76,45.33,111.84,45.47,112.09,45.53Z"/><path d="M123.6,48.39l5.79,2.45a.31.31,0,0,0,.47-.19l.29-.69c.09-.22,0-.35-.22-.46l-4.58-1.93L127.3,43l3.91,1.65c.23.1.35.06.45-.2l.28-.66a.31.31,0,0,0-.19-.47l-3.89-1.65,1.69-4,4.36,1.84c.28.12.45.14.57-.1l.36-.67c.11-.21.13-.35-.12-.46l-5.83-2.47c-.23-.1-.36,0-.47.23l-5,11.83C123.29,48.17,123.32,48.27,123.6,48.39Z"/><path d="M133.82,53.44l.9.57c.18.12.31.08.45-.14l2.69-4.25L145.11,45a.51.51,0,0,0,.2-.18c.06-.1,0-.22-.14-.32l-.64-.41c-.27-.17-.39-.15-.68,0L138,48h0l.94-7a.54.54,0,0,0-.32-.6l-.85-.54c-.15-.1-.27-.08-.33,0a.48.48,0,0,0-.06.2l-1,8.74L133.76,53C133.61,53.19,133.64,53.32,133.82,53.44Z"/><rect y="79.17" width="211.52" height="1.75"/><rect y="104.21" width="211.52" height="1.75"/></g></g></svg>