<?xml version="1.0" encoding="UTF-8"?>
<svg width="45px" height="55px" viewBox="0 0 45 55" version="1.1" xmlns="http://www.w3.org/2000/svg" xmlns:xlink="http://www.w3.org/1999/xlink">
    <!-- Generator: Sketch 43 (38999) - http://www.bohemiancoding.com/sketch -->
    <title>Page 1</title>
    <desc>Created with Sketch.</desc>
    <defs>
        <polygon id="path-1" points="0 54.7013139 0 0.0003 44.0996 0.0003 44.0996 54.7013139 1.154594e-15 54.7013139"></polygon>
    </defs>
    <g id="Page-1" stroke="none" stroke-width="1" fill="none" fill-rule="evenodd">
        <g>
            <mask id="mask-2" fill="white">
                <use xlink:href="#path-1"></use>
            </mask>
            <g id="Clip-2"></g>
            <path d="M13.3206,53.1231 L4.7636,53.1101 C3.9296,53.1101 3.1356,52.7931 2.5006,52.1971 C1.9056,51.6021 1.5876,50.8081 1.5876,49.9351 L1.5876,44.6561 C1.5876,38.3841 5.9146,32.9061 11.9086,31.5571 L17.7436,30.2471 C18.1006,30.1671 18.3786,29.8501 18.3786,29.4531 L18.3786,25.2451 C18.3786,25.0071 18.2596,24.7691 18.0606,24.6101 C16.9096,23.7371 15.9176,22.6651 15.2026,21.3951 C14.4486,20.0851 13.9326,18.6561 13.7336,17.1481 L13.4566,15.0441 C13.2176,13.3771 13.1786,11.6701 13.2576,10.0031 C13.3766,7.7011 14.3696,5.5571 15.9966,3.9691 C17.6236,2.3821 19.7676,1.5081 22.0306,1.5081 C24.2926,1.5081 26.4366,2.3821 28.0636,3.9691 C29.6906,5.5571 30.6836,7.7011 30.8026,10.0031 C30.8426,10.4791 30.8426,10.9951 30.8426,11.4711 C30.8426,12.7021 30.7626,13.8931 30.6036,15.0441 L30.3266,17.1481 C29.9296,20.1251 28.3416,22.8241 25.9596,24.6101 C25.7616,24.7691 25.6426,25.0071 25.6426,25.2451 L25.6426,29.4531 C25.6426,29.8101 25.9206,30.1281 26.2776,30.2471 L32.1126,31.5571 C38.1066,32.9061 42.4326,38.3841 42.4326,44.6561 L42.5126,49.8951 C42.5126,50.7681 42.1946,51.5621 41.5996,52.1581 C41.0036,52.7531 40.2096,53.1101 39.3366,53.1101 L31.0406,53.1101 C30.6036,53.1101 30.2466,53.4681 30.2466,53.9041 C30.2466,54.3411 30.6036,54.6981 31.0406,54.6981 L39.3366,54.6981 C40.6066,54.6981 41.8376,54.1821 42.7106,53.2691 C43.6236,52.3561 44.0996,51.1651 44.0996,49.8561 L44.0606,44.6561 C44.0606,37.6691 39.1776,31.5171 32.5096,30.0091 L27.2696,28.8571 L27.2696,25.6821 C29.8106,23.6581 31.4776,20.6801 31.9136,17.4261 L32.1916,15.3221 C32.3506,14.0911 32.4296,12.8211 32.4296,11.5111 C32.4296,10.9951 32.4296,10.4791 32.3906,9.9631 C32.2316,7.2641 31.0806,4.7631 29.1746,2.8981 C27.2296,1.0321 24.6896,0.0001 22.0306,0.0001 C19.3706,0.0001 16.8306,1.0321 14.8856,2.8981 C12.9406,4.7631 11.7886,7.2641 11.6696,9.9631 C11.5506,11.7491 11.6306,13.5361 11.8686,15.3221 L12.1466,17.4261 C12.3846,19.1721 12.9406,20.8001 13.8536,22.2681 C14.6466,23.5781 15.6396,24.7291 16.8306,25.6821 L16.8306,28.8571 L11.5906,30.0091 C4.8826,31.5171 -0.0004,37.6691 -0.0004,44.6561 L-0.0004,49.9351 C-0.0004,51.2051 0.4766,52.3961 1.3896,53.3091 C2.3026,54.2221 3.4926,54.6981 4.7636,54.6981 L13.2976,54.6981 C13.2976,54.6981 14.0066,54.7931 14.0316,53.9501 C14.0316,53.9501 14.0976,53.1641 13.3206,53.1231" id="Fill-1" fill="#479DA6" mask="url(#mask-2)"></path>
        </g>
    </g>
</svg>