<?xml version="1.0" encoding="UTF-8"?>
<svg width="62px" height="53px" viewBox="0 0 62 53" version="1.1" xmlns="http://www.w3.org/2000/svg" xmlns:xlink="http://www.w3.org/1999/xlink">
    <!-- Generator: Sketch 43 (38999) - http://www.bohemiancoding.com/sketch -->
    <title>Fill 1</title>
    <desc>Created with Sketch.</desc>
    <defs></defs>
    <g id="Page-1" stroke="none" stroke-width="1" fill="none" fill-rule="evenodd">
        <path d="M34.159,32.96 L16.215,32.96 C15.659,32.96 15.207,33.412 15.207,33.968 C15.207,34.525 15.659,34.976 16.215,34.976 L34.159,34.976 C34.715,34.976 35.167,34.525 35.167,33.968 C35.167,33.412 34.715,32.96 34.159,32.96 M39.603,24.895 L16.215,24.895 C15.659,24.895 15.207,25.347 15.207,25.903 C15.207,26.46 15.659,26.911 16.215,26.911 L39.603,26.911 C40.159,26.911 40.611,26.46 40.611,25.903 C40.611,25.347 40.159,24.895 39.603,24.895 M46.659,16.831 L16.215,16.831 C15.659,16.831 15.207,17.282 15.207,17.839 C15.207,18.395 15.659,18.847 16.215,18.847 L46.659,18.847 C47.216,18.847 47.667,18.395 47.667,17.839 C47.667,17.282 47.216,16.831 46.659,16.831 M30.851,47.449 C27.652,47.449 24.514,47.041 21.524,46.235 C21.205,46.148 20.866,46.225 20.613,46.437 C16.709,49.719 9.864,50.074 7.102,50.074 C6.29,50.074 5.798,50.044 5.781,50.043 L5.614,50.032 L5.754,49.925 C7.515,48.571 8.908,45.579 9.895,41.031 C9.974,40.67 9.848,40.294 9.568,40.053 C4.699,35.859 2.017,30.419 2.017,24.734 C2.017,12.208 14.952,2.016 30.852,2.016 C46.751,2.016 59.686,12.208 59.686,24.734 C59.685,37.259 46.75,47.449 30.851,47.449 M30.851,0 C13.839,0 0,11.096 0,24.734 C0,30.833 2.764,36.65 7.795,41.18 C6.658,46.07 5.269,47.755 4.526,48.327 L2.255,50.07 C1.921,50.326 1.782,50.761 1.904,51.163 C2.026,51.565 2.386,51.849 2.804,51.875 L5.653,52.055 C5.653,52.055 6.195,52.09 7.101,52.09 C9.992,52.09 17.047,51.714 21.496,48.312 C24.506,49.077 27.651,49.465 30.851,49.465 C47.863,49.465 61.702,38.371 61.702,24.734 C61.702,11.096 47.863,0 30.851,0" id="Fill-1" fill="#479DA6"></path>
    </g>
</svg>