<?xml version="1.0" encoding="UTF-8"?>
<svg width="47px" height="44px" viewBox="0 0 47 44" version="1.1" xmlns="http://www.w3.org/2000/svg" xmlns:xlink="http://www.w3.org/1999/xlink">
    <!-- Generator: Sketch 43 (38999) - http://www.bohemiancoding.com/sketch -->
    <title>Page 1</title>
    <desc>Created with Sketch.</desc>
    <defs>
        <polygon id="path-1" points="0.0004 43.3107 46.066 43.3107 46.066 0 0.0004 0"></polygon>
    </defs>
    <g id="Page-1" stroke="none" stroke-width="1" fill="none" fill-rule="evenodd">
        <g>
            <mask id="mask-2" fill="white">
                <use xlink:href="#path-1"></use>
            </mask>
            <g id="Clip-2"></g>
            <path d="M25.6424,15.559 C25.4224,15.493 25.0464,15.404 24.5394,15.404 C22.5994,15.404 21.0324,17.235 21.0324,19.375 C21.0324,20.346 21.5174,21.052 22.4894,21.052 C23.7684,21.052 24.9364,19.42 25.1794,18.051 L25.6424,15.559 Z M22.9294,25.971 C19.3124,25.971 16.2464,23.324 16.2464,19.089 C16.2464,14.545 19.3994,10.618 24.2974,10.618 C28.1354,10.618 30.7164,13.309 30.7164,16.993 C30.7164,20.302 28.8634,22.244 26.7894,22.244 C25.9064,22.244 25.0904,21.648 25.1574,20.302 L25.0694,20.302 C24.2974,21.603 23.2814,22.244 21.9584,22.244 C20.6794,22.244 19.5764,21.206 19.5764,19.463 C19.5764,16.729 21.7384,14.236 24.8054,14.236 C25.7524,14.236 26.5914,14.435 27.1644,14.7 L26.4154,18.692 C26.0834,20.368 26.3484,21.141 27.0774,21.163 C28.2014,21.186 29.4594,19.685 29.4594,17.126 C29.4594,13.928 27.5404,11.633 24.1204,11.633 C20.5254,11.633 17.5034,14.48 17.5034,18.956 C17.5034,22.64 19.9074,24.912 23.1724,24.912 C24.4294,24.912 25.5984,24.647 26.5024,24.14 L26.8564,25.089 C25.6424,25.728 24.4074,25.971 22.9294,25.971 L22.9294,25.971 Z M44.6704,17.075 L23.2554,35.208 L23.2374,35.193 L13.9634,27.492 L1.3954,17.056 L1.3954,41.915 L44.6704,41.915 L44.6704,17.075 Z M1.8694,15.636 L4.9254,18.174 L4.9254,13.634 L1.8694,15.636 Z M6.3204,19.301 L14.8514,26.416 L23.2084,33.386 L23.2274,33.37 L39.7434,19.305 L39.7434,12.673 L39.7434,10.997 L39.7434,5.654 L31.6944,5.654 L29.1704,5.654 L17.0984,5.654 L14.5524,5.654 L6.3204,5.654 L6.3204,11.05 L6.3204,12.719 L6.3204,19.301 Z M19.2284,4.258 L27.0684,4.258 L23.1734,1.672 L19.2284,4.258 Z M41.1384,18.237 L44.2084,15.637 L41.1384,13.599 L41.1384,18.237 Z M46.0664,15.195 L46.0664,43.311 L0.0004,43.311 L0.0004,15.193 L4.9254,11.964 L4.9254,4.258 L16.6824,4.258 L23.1784,0 L29.5914,4.258 L41.1384,4.258 L41.1384,11.923 L46.0664,15.195 Z M23.2264,33.37 L14.8514,26.416 L23.2084,33.386 L23.2264,33.37 Z M13.9634,27.492 L23.2364,35.193 L23.2154,35.211 L13.9634,27.492 Z" id="Fill-1" fill="#479DA6" mask="url(#mask-2)"></path>
        </g>
    </g>
</svg>