<?xml version="1.0" encoding="UTF-8"?>
<svg width="32px" height="41px" viewBox="0 0 32 41" version="1.1" xmlns="http://www.w3.org/2000/svg" xmlns:xlink="http://www.w3.org/1999/xlink">
    <!-- Generator: Sketch 43 (38999) - http://www.bohemiancoding.com/sketch -->
    <title>Group 6</title>
    <desc>Created with Sketch.</desc>
    <defs>
        <polygon id="path-1" points="0.9236 41 31.9236 41 31.9236 0.6063 0.9236 0.6063 0.9236 41"></polygon>
    </defs>
    <g id="Page-1" stroke="none" stroke-width="1" fill="none" fill-rule="evenodd">
        <g transform="translate(-200.000000, -1.000000)" id="Group-6">
            <g transform="translate(200.000000, 0.393900)">
                <mask id="mask-2" fill="white">
                    <use xlink:href="#path-1"></use>
                </mask>
                <g id="Clip-5"></g>
                <path d="M17.7446,29.7273 C17.5906,29.7543 17.4536,29.8623 17.3926,30.0063 L15.1316,35.4373 L13.4876,35.8483 C13.2496,35.9093 13.0886,36.1823 13.1506,36.4203 C13.2116,36.6593 13.4846,36.8193 13.7226,36.7583 L15.6016,36.2883 C15.7446,36.2533 15.8686,36.1463 15.9246,36.0093 L17.8036,31.4883 L19.2716,35.5253 C19.3976,35.8583 19.9516,35.8973 20.1226,35.5843 L22.0156,32.1783 L23.5126,35.5543 C23.6026,35.7543 23.8436,35.8723 24.0566,35.8183 L25.9346,35.3493 C26.1736,35.2873 26.3346,35.0153 26.2726,34.7763 C26.2116,34.5383 25.9386,34.3773 25.6996,34.4393 L24.2026,34.8063 L22.4856,30.9453 C22.3456,30.6303 21.8206,30.6023 21.6486,30.9013 L19.7996,34.2333 L18.2726,30.0353 C18.1336,29.7543 17.9476,29.6933 17.7446,29.7273 L17.7446,29.7273 Z M7.0296,25.5003 C6.7706,25.5003 6.5596,25.7103 6.5596,25.9693 C6.5596,26.2293 6.7706,26.4393 7.0296,26.4393 L25.8176,26.4393 C26.0766,26.4393 26.2876,26.2293 26.2876,25.9693 C26.2876,25.7103 26.0766,25.5003 25.8176,25.5003 L7.0296,25.5003 Z M7.0296,20.3333 C6.7706,20.3333 6.5596,20.5433 6.5596,20.8033 C6.5596,21.0623 6.7706,21.2723 7.0296,21.2723 L25.8176,21.2723 C26.0766,21.2723 26.2876,21.0623 26.2876,20.8033 C26.2876,20.5433 26.0766,20.3333 25.8176,20.3333 L7.0296,20.3333 Z M12.1966,15.1663 C11.9366,15.1663 11.7266,15.3773 11.7266,15.6363 C11.7266,15.8963 11.9366,16.1063 12.1966,16.1063 L25.8176,16.1063 C26.0766,16.1063 26.2876,15.8963 26.2876,15.6363 C26.2876,15.3773 26.0766,15.1663 25.8176,15.1663 L12.1966,15.1663 Z M12.1966,10.0003 C11.9366,10.0003 11.7266,10.2103 11.7266,10.4693 C11.7266,10.7293 11.9366,10.9393 12.1966,10.9393 L25.8176,10.9393 C26.0766,10.9393 26.2876,10.7293 26.2876,10.4693 C26.2876,10.2103 26.0766,10.0003 25.8176,10.0003 L12.1966,10.0003 Z M2.3916,1.5453 L30.4556,1.5453 C30.7746,1.5453 30.9846,1.7633 30.9846,2.0153 L30.9846,39.5913 C30.9846,39.8423 30.7746,40.0603 30.4556,40.0603 L2.3916,40.0603 C2.0726,40.0603 1.8626,39.8423 1.8626,39.5913 L1.8626,2.0153 C1.8626,1.7633 2.0726,1.5453 2.3916,1.5453 L2.3916,1.5453 Z M2.3916,0.6063 C1.5996,0.6063 0.9236,1.2263 0.9236,2.0153 L0.9236,39.5913 C0.9236,40.3803 1.5996,41.0003 2.3916,41.0003 L30.4556,41.0003 C31.2476,41.0003 31.9236,40.3803 31.9236,39.5913 L31.9236,2.0153 C31.9236,1.2263 31.2476,0.6063 30.4556,0.6063 L2.3916,0.6063 Z" id="Fill-4" fill="#489DA6" mask="url(#mask-2)"></path>
            </g>
        </g>
    </g>
</svg>