<?xml version="1.0" encoding="UTF-8"?>
<svg width="52px" height="31px" viewBox="0 0 52 31" version="1.1" xmlns="http://www.w3.org/2000/svg" xmlns:xlink="http://www.w3.org/1999/xlink">
    <!-- Generator: Sketch 43 (38999) - http://www.bohemiancoding.com/sketch -->
    <title>Group 3</title>
    <desc>Created with Sketch.</desc>
    <defs>
        <polygon id="path-1" points="2.71050543e-20 0.480616452 2.71050543e-20 30.2445574 51.5486864 30.2445574 51.5486864 0.480616452 0 0.480616452"></polygon>
    </defs>
    <g id="Page-1" stroke="none" stroke-width="1" fill="none" fill-rule="evenodd">
        <g transform="translate(0.000000, -4.000000)" id="Group-3">
            <g transform="translate(0.000000, 4.393900)">
                <mask id="mask-2" fill="white">
                    <use xlink:href="#path-1"></use>
                </mask>
                <g id="Clip-2"></g>
                <path d="M11.2596,12.9138 L13.9856,12.9138 C14.6696,12.9138 15.1496,12.2818 16.9076,9.5798 C17.4236,8.7858 17.9526,7.9738 18.4116,7.3458 C20.1286,4.9968 29.0036,2.8158 30.1526,3.0058 C30.9406,3.0558 31.7216,2.8298 32.3606,2.3658 C33.3426,1.8088 33.3786,1.8648 33.5876,2.2358 C34.2676,3.4288 32.9486,4.6128 31.7266,5.3928 C30.1826,6.1198 28.5686,6.6858 26.9086,7.0808 C26.7886,7.1118 26.6796,7.1718 26.5896,7.2568 C26.0406,7.6698 25.6866,8.2908 25.6076,8.9738 C25.6506,9.5838 25.9356,10.1508 26.4006,10.5488 C27.1756,11.3498 30.2506,11.3928 31.2566,11.2018 C31.8706,11.1368 40.1346,11.2298 45.5456,11.3078 C46.0116,11.3048 46.4606,11.4848 46.7966,11.8078 C47.1146,12.1108 47.2926,12.5328 47.2866,12.9728 C47.3136,13.3578 47.1656,13.7358 46.8836,13.9998 C46.5426,14.3498 46.0756,14.5508 45.5856,14.5568 L29.9316,14.5908 C29.5256,14.5908 29.1956,14.9198 29.1956,15.3268 C29.1956,15.7328 29.5256,16.0628 29.9316,16.0628 L48.6106,16.0888 C49.3986,16.0838 50.0476,16.7068 50.0756,17.4938 C50.0736,17.8828 49.9296,18.2568 49.6696,18.5458 C49.3886,18.8338 49.0016,18.9948 48.5996,18.9878 L35.6166,19.5158 L29.6516,19.6248 C29.2646,19.6318 28.9496,19.9358 28.9286,20.3218 C28.9216,20.7028 29.1976,21.0308 29.5736,21.0908 L30.0586,21.1428 L46.5746,20.7818 C46.8976,20.7528 47.2176,20.8708 47.4436,21.1048 C47.7536,21.4098 47.9466,21.8128 47.9916,22.2448 C48.1266,23.1248 47.2036,23.6138 46.6876,23.6948 L32.4826,24.3088 L28.6636,24.4308 C28.2576,24.4378 27.9336,24.7738 27.9406,25.1798 C27.9476,25.5868 28.2826,25.9098 28.6896,25.9028 L37.1416,25.6298 C39.1926,25.8268 39.1926,26.4738 39.1926,26.7168 C39.2326,27.4458 38.6926,28.0778 37.9656,28.1518 C36.9206,28.1748 35.4386,28.2738 33.7226,28.3818 C28.5706,28.7158 18.9916,29.3368 17.5836,27.6968 C15.7786,25.5938 12.7386,25.4648 11.2616,25.5438 L11.2596,12.9138 Z M1.4706,28.2248 L1.4706,10.4078 L9.7876,10.4078 L9.7876,28.2268 L1.4706,28.2248 Z M16.4646,28.6468 C18.2096,30.6798 25.3556,30.3918 33.8166,29.8428 C35.5156,29.7328 36.9826,29.6378 37.9966,29.6148 C39.5306,29.5398 40.7196,28.2448 40.6626,26.7088 C40.6756,26.2558 40.5416,25.8108 40.2816,25.4398 L46.8256,25.1588 C48.4016,25.0218 49.5726,23.6418 49.4526,22.0648 C49.3826,21.4828 49.1656,20.9278 48.8216,20.4528 C49.5446,20.4068 50.2246,20.0908 50.7266,19.5668 C51.2856,19.0068 51.5826,18.2368 51.5456,17.4468 C51.4896,15.8628 50.1866,14.6098 48.6016,14.6168 L48.2686,14.6168 C48.6116,14.1328 48.7846,13.5478 48.7586,12.9558 L48.7586,12.9388 C48.7586,12.1098 48.4186,11.3178 47.8166,10.7478 C47.2136,10.1658 46.4076,9.8408 45.5696,9.8398 C41.3796,9.7788 31.5756,9.6488 31.0236,9.7528 C29.8346,9.9118 28.6256,9.8358 27.4666,9.5278 C27.3716,9.4308 27.0876,9.1368 27.0876,9.0158 C27.0796,9.0158 27.0796,8.8478 27.4686,8.4558 C29.2156,8.0358 30.9096,7.4238 32.5226,6.6328 C35.8766,4.4878 35.4346,2.4998 34.8716,1.5078 C33.9036,-0.1992 32.4296,0.6358 31.6376,1.0838 C31.2746,1.3518 30.8446,1.5148 30.3956,1.5538 C28.7286,1.2768 19.3266,3.6008 17.2236,6.4778 C16.7506,7.1238 16.2066,7.9608 15.6746,8.7778 C15.1066,9.7048 14.4806,10.5958 13.7986,11.4428 L11.2596,11.4428 L11.2596,9.6728 C11.2596,9.2668 10.9296,8.9368 10.5236,8.9368 L0.7356,8.9368 C0.3296,8.9368 -0.0004,9.2668 -0.0004,9.6728 L-0.0004,28.9608 C-0.0004,29.3678 0.3296,29.6968 0.7356,29.6968 L10.5246,29.6968 C10.9316,29.6968 11.2606,29.3678 11.2606,28.9608 L11.2606,27.0128 C12.4496,26.9408 15.0456,26.9948 16.4646,28.6468 L16.4646,28.6468 Z" id="Fill-1" fill="#489DA6" mask="url(#mask-2)"></path>
            </g>
        </g>
    </g>
</svg>