<?xml version="1.0" encoding="UTF-8" standalone="no"?><!DOCTYPE svg PUBLIC "-//W3C//DTD SVG 1.1//EN" "http://www.w3.org/Graphics/SVG/1.1/DTD/svg11.dtd"><svg width="50px" height="50px" viewBox="0 0 60 60" version="1.1" xmlns="http://www.w3.org/2000/svg" xmlns:xlink="http://www.w3.org/1999/xlink" xml:space="preserve" xmlns:serif="http://www.serif.com/" style="fill-rule:evenodd;clip-rule:evenodd;stroke-linejoin:round;stroke-miterlimit:1.41421;"><g><circle cx="30" cy="29.4" r="0.9" style="fill:#009ca6;"/><circle cx="32.7" cy="27.6" r="0.9" style="fill:#009ca6;"/><circle cx="27.3" cy="27.6" r="0.9" style="fill:#009ca6;"/><circle cx="24.6" cy="25.8" r="0.9" style="fill:#009ca6;"/><circle cx="35.4" cy="25.8" r="0.9" style="fill:#009ca6;"/><circle cx="38.1" cy="24" r="0.9" style="fill:#009ca6;"/><circle cx="21.9" cy="24" r="0.9" style="fill:#009ca6;"/><circle cx="30" cy="25.8" r="0.9" style="fill:#009ca6;"/><circle cx="30" cy="36.6" r="0.9" style="fill:#009ca6;"/><circle cx="30" cy="39.3" r="0.9" style="fill:#009ca6;"/><circle cx="30" cy="42" r="0.9" style="fill:#009ca6;"/><circle cx="30" cy="44.7" r="0.9" style="fill:#009ca6;"/><circle cx="30" cy="47.4" r="0.9" style="fill:#009ca6;"/><circle cx="30" cy="50.1" r="0.9" style="fill:#009ca6;"/><path d="M52,58.167l-2.75,0l0,-3.667l-4.583,0l0,-9.37c0,-2.475 -1.231,-4.774 -3.29,-6.147l-9.724,-6.483l9.724,-6.483c2.059,-1.373 3.29,-3.672 3.29,-6.147l0,-9.37l4.583,0l0,-3.667l2.75,0c0.506,0 0.917,-0.409 0.917,-0.916c0,-0.507 -0.411,-0.917 -0.917,-0.917l-2.75,0l-0.917,0l-36.666,0l-0.917,0l-2.75,0c-0.506,0 -0.917,0.41 -0.917,0.917c0,0.507 0.411,0.916 0.917,0.916l2.75,0l0,3.667l4.583,0l0,9.37c0,2.475 1.231,4.774 3.29,6.147l9.724,6.483l-9.724,6.483c-2.059,1.373 -3.29,3.672 -3.29,6.147l0,9.37l-4.583,0l0,3.667l-2.75,0c-0.506,0 -0.917,0.409 -0.917,0.916c0,0.507 0.411,0.917 0.917,0.917l44,0c0.506,0 0.917,-0.41 0.917,-0.917c0,-0.507 -0.411,-0.916 -0.917,-0.916Zm-39.417,-49.5l0,-1.834l34.834,0l0,1.834l-2.75,0l-29.334,0l-2.75,0Zm7.057,15.825c-1.548,-1.033 -2.473,-2.761 -2.473,-4.622l0,-9.37l25.666,0l0,9.37c0,1.861 -0.925,3.589 -2.473,4.622l-10.36,6.906l-10.36,-6.906Zm-2.473,20.638c0,-1.861 0.925,-3.589 2.473,-4.622l10.36,-6.906l10.36,6.906c1.548,1.033 2.473,2.761 2.473,4.622l0,9.37l-25.666,0l0,-9.37Zm-4.584,11.203l34.834,0l0,1.834l-34.834,0l0,-1.834Z" style="fill:#009ca6;fill-rule:nonzero;"/></g></svg>