<?xml version="1.0" encoding="UTF-8" standalone="no"?><!DOCTYPE svg PUBLIC "-//W3C//DTD SVG 1.1//EN" "http://www.w3.org/Graphics/SVG/1.1/DTD/svg11.dtd"><svg width="50px" height="50px" viewBox="0 0 45 45" version="1.1" xmlns="http://www.w3.org/2000/svg" xmlns:xlink="http://www.w3.org/1999/xlink" xml:space="preserve" xmlns:serif="http://www.serif.com/" style="fill-rule:evenodd;clip-rule:evenodd;stroke-linejoin:round;stroke-miterlimit:1.41421;"><g><path d="M35.25,3l-9,0l1.35,-1.8c0.249,-0.331 0.181,-0.801 -0.15,-1.05c-0.331,-0.248 -0.801,-0.181 -1.049,0.15l-2.026,2.7l-3.661,0l-1.293,-2.586c-0.186,-0.37 -0.636,-0.519 -1.007,-0.335c-0.37,0.185 -0.52,0.636 -0.335,1.007l0.958,1.914l-9.287,0c-1.24,0 -2.25,1.009 -2.25,2.25l0,37.499c0,1.241 1.01,2.25 2.25,2.25l25.5,0c1.24,0 2.25,-1.009 2.25,-2.25l0,-37.499c0,-1.241 -1.01,-2.25 -2.25,-2.25Zm-25.5,1.5l10.037,0l0.75,1.5c-0.63,0.55 -1.037,1.349 -1.037,2.25c0,1.654 1.346,3 3,3c1.654,0 3,-1.346 3,-3c0,-1.655 -1.346,-3 -3,-3c-0.215,0 -0.424,0.024 -0.627,0.068l-0.409,-0.818l13.786,0c0.414,0 0.75,0.336 0.75,0.75l0,24.75l-6.111,0c-0.229,-0.888 -0.821,-1.646 -1.658,-2.064l-2.731,-1.395l0,-0.291c1.221,-0.666 2.08,-1.764 2.559,-3.273c0.727,-0.385 1.191,-1.136 1.191,-1.977l0,-0.75c0,-0.695 -0.323,-1.339 -0.863,-1.762c-0.468,-2.835 -2.447,-4.272 -5.887,-4.272c-0.163,0 -0.322,0.006 -0.477,0.018c-0.647,0.05 -1.597,-0.002 -2.418,-0.555c-0.307,-0.207 -0.538,-0.408 -0.686,-0.595c-0.252,-0.322 -0.675,-0.435 -1.052,-0.28c-0.376,0.155 -0.597,0.531 -0.55,0.936c0.031,0.28 0.079,0.606 0.15,0.964c0.145,0.731 0.145,0.731 -0.059,1.169c-0.076,0.165 -0.171,0.367 -0.282,0.639c-0.248,0.609 -0.424,1.275 -0.525,1.986c-0.533,0.423 -0.851,1.064 -0.851,1.752l0,0.75c0,0.841 0.464,1.592 1.191,1.977c0.479,1.509 1.338,2.607 2.559,3.273l0,0.282l-2.827,1.394c-0.807,0.44 -1.371,1.198 -1.58,2.074l-6.093,0l0,-24.75c0,-0.414 0.336,-0.75 0.75,-0.75Zm11.499,2.925l0.58,1.16c0.132,0.263 0.397,0.415 0.672,0.415c0.112,0 0.227,-0.026 0.334,-0.079c0.371,-0.185 0.521,-0.636 0.335,-1.007l-0.577,-1.155c0.783,0.049 1.407,0.696 1.407,1.491c0,0.827 -0.673,1.5 -1.5,1.5c-0.827,0 -1.5,-0.673 -1.5,-1.5c0,-0.305 0.092,-0.588 0.249,-0.825Zm-0.991,20.406c0.451,-0.22 0.742,-0.687 0.742,-1.191l0,-1.352l-0.453,-0.195c-1.138,-0.49 -1.877,-1.426 -2.261,-2.86l-0.107,-0.4l-0.395,-0.123c-0.314,-0.098 -0.534,-0.389 -0.534,-0.71l0,-0.75c0,-0.272 0.155,-0.524 0.406,-0.657l0.352,-0.188l0.041,-0.397c0.074,-0.703 0.231,-1.352 0.466,-1.927c0.1,-0.244 0.185,-0.426 0.254,-0.575c0.254,-0.546 0.346,-0.828 0.283,-1.407c0.882,0.504 1.941,0.717 3.091,0.631c0.116,-0.01 0.236,-0.014 0.358,-0.014c2.808,0 4.179,1.017 4.446,3.298l0.047,0.392l0.349,0.184c0.25,0.134 0.407,0.387 0.407,0.66l0,0.75c0,0.321 -0.22,0.612 -0.534,0.71l-0.395,0.123l-0.107,0.4c-0.384,1.434 -1.123,2.37 -2.261,2.86l-0.453,0.196l0,1.358c0,0.502 0.277,0.954 0.723,1.181l2.831,1.447c0.323,0.162 0.579,0.418 0.743,0.725l-11.628,0c0.149,-0.314 0.391,-0.577 0.695,-0.741l2.894,-1.428Zm14.992,15.668l-25.5,0c-0.414,0 -0.75,-0.336 -0.75,-0.75l0,-11.249l27,0l0,11.249c0,0.414 -0.336,0.75 -0.75,0.75Z" style="fill:#009ca6;fill-rule:nonzero;"/><path d="M29.25,36.75l-13.5,0c-0.415,0 -0.75,0.335 -0.75,0.75c0,0.414 0.335,0.75 0.75,0.75l13.5,0c0.415,0 0.75,-0.336 0.75,-0.75c0,-0.415 -0.335,-0.75 -0.75,-0.75Z" style="fill:#009ca6;fill-rule:nonzero;"/><path d="M18.75,35.25l7.5,0c0.415,0 0.75,-0.336 0.75,-0.75c0,-0.415 -0.335,-0.75 -0.75,-0.75l-7.5,0c-0.415,0 -0.75,0.335 -0.75,0.75c0,0.414 0.335,0.75 0.75,0.75Z" style="fill:#009ca6;fill-rule:nonzero;"/><path d="M16.5,39.75l-0.75,0c-0.415,0 -0.75,0.335 -0.75,0.75c0,0.414 0.335,0.75 0.75,0.75l0.75,0c0.415,0 0.75,-0.336 0.75,-0.75c0,-0.415 -0.335,-0.75 -0.75,-0.75Z" style="fill:#009ca6;fill-rule:nonzero;"/><path d="M21,39.75l-1.5,0c-0.415,0 -0.75,0.335 -0.75,0.75c0,0.414 0.335,0.75 0.75,0.75l1.5,0c0.415,0 0.75,-0.336 0.75,-0.75c0,-0.415 -0.335,-0.75 -0.75,-0.75Z" style="fill:#009ca6;fill-rule:nonzero;"/><path d="M24.75,39.75l-0.75,0c-0.415,0 -0.75,0.335 -0.75,0.75c0,0.414 0.335,0.75 0.75,0.75l0.75,0c0.415,0 0.75,-0.336 0.75,-0.75c0,-0.415 -0.335,-0.75 -0.75,-0.75Z" style="fill:#009ca6;fill-rule:nonzero;"/><path d="M29.25,39.75l-1.5,0c-0.415,0 -0.75,0.335 -0.75,0.75c0,0.414 0.335,0.75 0.75,0.75l1.5,0c0.415,0 0.75,-0.336 0.75,-0.75c0,-0.415 -0.335,-0.75 -0.75,-0.75Z" style="fill:#009ca6;fill-rule:nonzero;"/></g></svg>