<svg xmlns="http://www.w3.org/2000/svg" viewBox="0 0 41.02 36.26"><defs><style>.cls-1{fill:#489da6;}.cls-2{fill:#fff;}</style></defs><title>Asset 1</title><g id="Layer_2" data-name="Layer 2"><g id="Layer_1-2" data-name="Layer 1"><path class="cls-1" d="M.42,0A.48.48,0,0,0,0,.5V35.78a.48.48,0,0,0,.48.48H40.53a.48.48,0,1,0,0-1H1V.5A.48.48,0,0,0,.5,0ZM18.09,11.46a.48.48,0,0,0-.45.48V31a.48.48,0,0,0,.48.48H24.8a.48.48,0,0,0,.48-.48V11.94a.48.48,0,0,0-.39-.48H18.09Zm.51,1h5.72V30.54H18.6Zm-.51-1a.48.48,0,0,0-.45.48V31a.48.48,0,0,0,.48.48H24.8a.48.48,0,0,0,.48-.48V11.94a.48.48,0,0,0-.39-.48H18.09Zm.51,1h5.72V30.54H18.6ZM6.17,18.14a.48.48,0,0,0-.45.48V31a.48.48,0,0,0,.48.48h6.68a.48.48,0,0,0,.48-.48V18.62a.48.48,0,0,0-.39-.48H6.17Zm.51,1H12.4V30.54H6.68Z"/><path class="cls-1" d="M30.92,4.55a.48.48,0,0,0-.45.48V31.1a.48.48,0,0,0,.48.48h6.68a.48.48,0,0,0,.48-.48V5a.48.48,0,0,0-.39-.48H30.92Z"/><rect class="cls-2" x="31.43" y="5.5" width="5.72" height="25.12"/></g></g></svg>