<?xml version="1.0" encoding="UTF-8"?>
<svg width="51px" height="51px" viewBox="0 0 51 51" version="1.1" xmlns="http://www.w3.org/2000/svg" xmlns:xlink="http://www.w3.org/1999/xlink">
    <!-- Generator: Sketch 43 (38999) - http://www.bohemiancoding.com/sketch -->
    <title>WiW Homepage 1</title>
    <desc>Created with Sketch.</desc>
    <defs></defs>
    <g id="Page-1" stroke="none" stroke-width="1" fill="none" fill-rule="evenodd">
        <g id="WiW-Homepage-1" transform="translate(-529.000000, -1594.000000)">
            <g id="Group-3" transform="translate(0.000000, 731.000000)" fill="#FFFFFF">
                <polygon id="Fill-1" points="0 1862 1103 1862 1103 0 0 0"></polygon>
                <polygon id="Fill-2" points="0 1862 1103 1862 1103 0 0 0"></polygon>
            </g>
            <g id="Group-51" transform="translate(0.000000, 909.000000)"></g>
            <g id="Group-111" transform="translate(81.000000, 1517.000000)"></g>
            <g id="Group-169" transform="translate(127.000000, 1595.000000)" stroke="#009CA6" stroke-width="1.7" stroke-linejoin="round">
                <path d="M409.758621,45.62071 C409.758621,47.486934 408.245534,49.000021 406.37931,49.000021 C404.513086,49.000021 403,47.486934 403,45.62071 C403,43.754486 404.513086,42.2414 406.37931,42.2414 C408.245534,42.2414 409.758621,43.754486 409.758621,45.62071 Z" id="Stroke-135"></path>
                <path d="M435.103421,45.62071 C435.103421,47.486934 433.590334,49.000021 431.72411,49.000021 C429.857886,49.000021 428.3448,47.486934 428.3448,45.62071 C428.3448,43.754486 429.857886,42.2414 431.72411,42.2414 C433.590334,42.2414 435.103421,43.754486 435.103421,45.62071 Z" id="Stroke-137"></path>
                <path d="M452.000021,29.56901 C452.000021,31.435234 450.486934,32.948321 448.62071,32.948321 C446.754486,32.948321 445.2414,31.435234 445.2414,29.56901 C445.2414,27.702786 446.754486,26.1897 448.62071,26.1897 C450.486934,26.1897 452.000021,27.702786 452.000021,29.56901 Z" id="Stroke-139"></path>
                <path d="M452.000021,3.37931 C452.000021,5.246379 450.486934,6.758621 448.62071,6.758621 C446.754486,6.758621 445.2414,5.246379 445.2414,3.37931 C445.2414,1.513931 446.754486,0 448.62071,0 C450.486934,0 452.000021,1.513931 452.000021,3.37931 Z" id="Stroke-141"></path>
                <path d="M409.758621,10.98271 C409.758621,12.848934 408.245534,14.362021 406.37931,14.362021 C404.513086,14.362021 403,12.848934 403,10.98271 C403,9.116486 404.513086,7.6034 406.37931,7.6034 C408.245534,7.6034 409.758621,9.116486 409.758621,10.98271 Z" id="Stroke-143"></path>
                <path d="M439.32755,21.120676 C439.32755,25.78666 435.54526,29.56895 430.879276,29.56895 C426.214138,29.56895 422.431,25.78666 422.431,21.120676 C422.431,16.454693 426.214138,12.6724 430.879276,12.6724 C435.54526,12.6724 439.32755,16.454693 439.32755,21.120676 Z" id="Stroke-145"></path>
                <path d="M431.7241,29.569 L431.7241,42.28534" id="Stroke-147"></path>
                <path d="M408.9138,43.18845 L425.06775,27.0345" id="Stroke-149"></path>
                <path d="M438.4828,25.3448 L445.551472,28.710593" id="Stroke-151"></path>
                <path d="M446.185048,5.9138 L436.7931,15.305748" id="Stroke-153"></path>
                <path d="M409.7586,12.6724 L423.32991,18.287124" id="Stroke-155"></path>
            </g>
        </g>
    </g>
</svg>