<?xml version="1.0" encoding="UTF-8"?>
<svg width="36px" height="49px" viewBox="0 0 36 49" version="1.1" xmlns="http://www.w3.org/2000/svg" xmlns:xlink="http://www.w3.org/1999/xlink">
    <!-- Generator: Sketch 43 (38999) - http://www.bohemiancoding.com/sketch -->
    <title>Page 1</title>
    <desc>Created with Sketch.</desc>
    <defs>
        <polygon id="path-1" points="0.0002 48.7751 36.0005935 48.7751 36.0005935 0.000111977944 0.0002 0.000111977944 0.0002 48.7751"></polygon>
    </defs>
    <g id="Page-1" stroke="none" stroke-width="1" fill="none" fill-rule="evenodd">
        <g>
            <mask id="mask-2" fill="white">
                <use xlink:href="#path-1"></use>
            </mask>
            <g id="Clip-2"></g>
            <path d="M6.3872,38.3233 C6.0662,38.3233 5.8062,38.5833 5.8062,38.9043 C5.8062,39.2243 6.0662,39.4843 6.3872,39.4843 L29.6132,39.4843 C29.9342,39.4843 30.1942,39.2243 30.1942,38.9043 C30.1942,38.5833 29.9342,38.3233 29.6132,38.3233 L6.3872,38.3233 Z M6.3872,29.0333 C6.0662,29.0333 5.8062,29.2923 5.8062,29.6133 C5.8062,29.9343 6.0662,30.1943 6.3872,30.1943 L29.6132,30.1943 C29.9342,30.1943 30.1942,29.9343 30.1942,29.6133 C30.1942,29.2923 29.9342,29.0333 29.6132,29.0333 L6.3872,29.0333 Z M6.3872,19.7423 C6.0662,19.7423 5.8062,20.0023 5.8062,20.3233 C5.8062,20.6433 6.0662,20.9033 6.3872,20.9033 L24.9682,20.9033 C25.2892,20.9033 25.5492,20.6433 25.5492,20.3233 C25.5492,20.0023 25.2892,19.7423 24.9682,19.7423 L6.3872,19.7423 Z M25.5492,1.9783 L34.0232,10.4523 L25.5492,10.4523 L25.5492,1.9783 Z M1.1612,1.1613 L24.3872,1.1613 L24.3872,11.0323 C24.3872,11.3363 24.6642,11.6133 24.9682,11.6133 L34.8392,11.6133 L34.8392,47.6133 L1.1612,47.6133 L1.1612,1.1613 Z M0.5802,0.0003 C0.1962,0.0013 0.0002,0.3373 0.0002,0.5803 L0.0002,48.1943 C0.0002,48.4983 0.2762,48.7753 0.5802,48.7753 L35.4202,48.7753 C35.7242,48.7753 36.0002,48.4983 36.0002,48.1943 L36.0002,11.0323 C36.0062,10.8793 35.9432,10.7253 35.8372,10.6153 L25.3852,0.1633 C25.2752,0.0563 25.1212,-0.0037 24.9682,0.0003 L0.5802,0.0003 Z" id="Fill-1" fill="#479DA6" mask="url(#mask-2)"></path>
        </g>
    </g>
</svg>